<svg id="a8154c7b-5c61-4362-87a5-04ab3436fadf" data-name="Layer 1" xmlns="http://www.w3.org/2000/svg" xmlns:xlink="http://www.w3.org/1999/xlink" width="865.76" height="682.89" viewBox="0 0 865.76 682.89"><defs><clipPath id="f36c1835-e09f-49ea-bde7-a69573d7bd6c"><path id="a44a48a6-18fc-4926-8489-0ce52ecab2ab" data-name="SVGID" d="M729.33,438.15c-2.88,2.88-5.12.32-5.12.32a5.27,5.27,0,0,1-6.07.64c-7,1.64-8.21-3.07-8.35-5.7a3.09,3.09,0,0,1,1.92-3.1c1.06-.39,2.37-.1,3.38,2.58,0,0,3.8-2.68,6.48-.45,0,0,3.36-3.8,5.59.67,0,0,2.69-4,5.82-.22l4.85-.32s.06,0,0,.05C737.66,433.26,735.41,439.54,729.33,438.15Z" fill="#f9b499"/></clipPath></defs><g id="f4b8c64a-36dc-44fd-9692-9a7cba1d603a" data-name="freepik--background-simple--inject-1"><path d="M854.15,505.66c18.29-137.43-70.45-320.08-162.3-395.49C525.9-26,388,.32,280.77,49.08S158.32,260.71,84.26,334.37-31.9,507.12,80.45,605.77,283.51,654.29,400.87,648s273.2,43,357.45.18C817.16,618.3,846.13,566.47,854.15,505.66Z" fill="#85f200"/><path d="M854.15,505.66c18.29-137.43-70.45-320.08-162.3-395.49C525.9-26,388,.32,280.77,49.08S158.32,260.71,84.26,334.37-31.9,507.12,80.45,605.77,283.51,654.29,400.87,648s273.2,43,357.45.18C817.16,618.3,846.13,566.47,854.15,505.66Z" fill="#fff" opacity="0.8" style="isolation:isolate"/></g><g id="bb03952e-af88-450f-8a6e-7b90c6970baf" data-name="freepik--Floor--inject-1"><path d="M21.87,528.87C32.33,554.22,51.13,580,80.45,605.73,192.79,704.36,283.51,654.25,400.87,648s273.2,43,357.45.18c51.18-26,79.77-68.68,91.66-119.33Z" fill="#85f200"/><path d="M21.87,528.87C32.33,554.22,51.13,580,80.45,605.73,192.79,704.36,283.51,654.25,400.87,648s273.2,43,357.45.18c51.18-26,79.77-68.68,91.66-119.33Z" fill="#fff" opacity="0.5" style="isolation:isolate"/></g><path d="M35.84,307.3c13.29,0,236.84,1.48,250.88,1a1.09,1.09,0,0,0,.56-2c-8.85-4.4-18.91-3.51-28.11-6.62-5.41-1.84-8.74-5.35-12.51-9.42A25.86,25.86,0,0,0,235,282.69a24.57,24.57,0,0,0-12.68-.39c-4.52,1.07-8.46,3.69-12.78,5.3-10.76,4.07-21.18.2-28.85-7.74-6.34-6.54-12.55-12.73-21.14-16.26a28.09,28.09,0,0,0-22.36-.24c-8.2,3.69-13.82,11.2-21.52,15.69-9.13,5.34-20,4.08-30.14,5.69s-17.83,10.09-26.67,15a19,19,0,0,1-9.64,3,49,49,0,0,1-5.88-.84c-3.05-.38-5.93-.29-8,2.26C34.86,304.68,35,307.3,35.84,307.3Z" fill="#ebebeb"/><path d="M25.38,74c9.69,0,172.91,1.07,183.16.74.74,0,1.15-1.11.41-1.48-6.47-3.2-13.81-2.55-20.53-4.82-4-1.33-6.38-3.92-9.11-6.88a19,19,0,0,0-8.5-5.54,18,18,0,0,0-9.24-.29c-3.33.79-6.19,2.69-9.35,3.88-7.85,2.95-15.47.14-21.07-5.66-4.62-4.77-9.14-9.24-15.43-11.86a20.48,20.48,0,0,0-16.35-.22c-6,2.69-10.09,8.16-15.71,11.43-6.67,3.9-14.65,3-22,4.16S48.72,64.84,42.18,68.39a13.66,13.66,0,0,1-7,2.18A41.39,41.39,0,0,1,30.85,70c-2.21-.26-4.32-.2-5.82,1.65C24.66,72.07,24.74,74,25.38,74Z" fill="#ebebeb"/><path d="M412.56,327.13c9.7,0,172.9,1.07,183.18.75a.79.79,0,0,0,.39-1.47c-6.47-3.2-13.81-2.55-20.51-4.83-4-1.33-6.4-3.91-9.13-6.87a19,19,0,0,0-8.5-5.54,17.88,17.88,0,0,0-9.24-.28,78.68,78.68,0,0,0-9.35,3.88c-7.84,3-15.47.15-21.07-5.66-4.6-4.78-9.24-9.24-15.43-11.88a20.56,20.56,0,0,0-16.35-.22c-6,2.72-10.09,8.17-15.71,11.46-6.67,3.9-14.63,3-22,4.14S435.9,318,429.36,321.56a13.78,13.78,0,0,1-7,2.18,41.39,41.39,0,0,1-4.29-.61,5.86,5.86,0,0,0-5.82,1.65C411.8,325.2,411.88,327.13,412.56,327.13Z" fill="#ebebeb"/><path d="M662.43,140.82c9.7,0,172.9,1.08,183.15.74.74,0,1.15-1.09.41-1.46-6.47-3.19-13.8-2.57-20.51-4.82-4-1.33-6.39-3.92-9.13-6.89a19,19,0,0,0-8.5-5.55,18,18,0,0,0-9.24-.27c-3.32.77-6.19,2.68-9.35,3.88-7.83,3-15.46.15-21.06-5.66-4.62-4.78-9.15-9.24-15.43-11.88a20.5,20.5,0,0,0-16.36-.22c-6,2.72-10.08,8.17-15.7,11.46-6.67,3.88-14.66,3-22,4.14s-12.94,7.39-19.48,11a13.75,13.75,0,0,1-7,2.18,37,37,0,0,1-4.28-.61c-2.22-.27-4.33-.22-5.82,1.65C661.71,138.9,661.78,140.82,662.43,140.82Z" fill="#ebebeb"/><path d="M179.24,182.14c.18.56,257.23,0,254,0-1.48,0,2.24-2.19.79-2.91-8.37-4.16-17.51-4.27-26.62-5.1a41,41,0,0,1-15.58-3.79c-4.84-2.53-7.85-6.93-11.29-11a48.31,48.31,0,0,0-43.91-16.63c-18.27,2.85-32.68,16.78-51,19.35-11,1.53-21.39-2.72-32.15-4.23a39.36,39.36,0,0,0-24.13,4.41c-5.8,2.89-11.09,5.31-17.7,5.75-5.05.37-10.09-.22-15.14-.26a33.92,33.92,0,0,0-22.32,8.89C173.43,177.34,170.85,182.14,179.24,182.14Z" fill="#ebebeb"/><path d="M508.21,395.51c.2.54,257.25,0,254,0-1.48,0,2.25-2.21.81-2.93-8.37-4.14-17.53-4.27-26.64-5.1a41,41,0,0,1-15.56-3.7c-4.84-2.55-7.87-6.95-11.31-11.09a48.28,48.28,0,0,0-43.89-16.63c-18.27,2.87-32.68,16.78-51,19.35-11.08,1.53-21.39-2.72-32.15-4.21a39.07,39.07,0,0,0-24.13,4.41c-5.8,2.87-11.09,5.29-17.72,5.75-5,.35-10.09-.22-15.14-.28A33.86,33.86,0,0,0,503.31,390C502.4,390.69,499.82,395.51,508.21,395.51Z" fill="#ebebeb"/><path d="M141,222.11c12.76-22.86,28.1-38.84,44.56-38.84,44.83,0,81.2,118.61,81.2,171.48,0,19-4.76,33.81-12.87,45h0C239.48,419.66,214.24,428,185.53,428c-44.87,0-81.21-20.42-81.21-73.3C104.32,321.24,118.88,261.4,141,222.11Z" fill="#bcbec0"/><polygon points="255.2 374.5 225.67 363.37 252.51 349.75 196.48 368.94 195.58 349.12 241.31 316.32 220.06 328.08 214.75 312.61 216.31 330.56 195.08 341.7 194.84 319.41 224.06 273.61 193.06 313.84 190.29 256.89 187.29 288.46 172.09 272.98 186.49 299.6 189.09 367.08 184.89 358.41 179.66 337.99 178.14 354.69 168.46 341.7 163.37 275.47 162.85 307.03 149.06 279.8 161.52 311.98 164.15 340.46 141.59 319.41 187.72 375.13 186.89 387.5 181.94 386.89 169.8 373.27 175.77 385.64 134 366.45 150.52 378.21 139.22 388.12 155.45 380.07 187.35 397.4 184.09 630.85 201.61 630.85 196.98 376.36 221.3 365.22 255.2 374.5" fill="#d1d3d4"/><path d="M250,87.15a33.43,33.43,0,0,1,11.32-2.06c54.43,0,98.56,144,98.56,208.21s-44.17,88.94-98.6,88.94c-3.82,0-7.6-.13-11.32-.37-49-3.34-87.17-28.92-87.17-88.6S200.94,105,250,87.15Z" fill="#bcbec0"/><path d="M250,87.14C299,105,337.15,233.57,337.15,293.27s-38.07,85.29-87.17,88.6c-49-3.34-87.17-28.92-87.17-88.6S200.94,105,250,87.14Z" opacity="0.1" style="isolation:isolate"/><polygon points="342.18 319.77 306.34 306.23 338.92 289.71 270.92 312.99 269.81 288.96 325.32 249.14 299.54 263.42 293.09 244.64 294.98 266.42 269.21 279.94 268.92 252.9 304.4 197.31 266.77 246.14 263.41 177.04 259.77 215.35 241.31 196.56 258.8 228.87 261.94 310.75 256.87 300.23 250.51 275.44 248.68 295.72 236.92 279.94 230.73 199.57 230.1 237.88 213.37 204.83 228.5 243.89 231.69 278.44 204.31 252.9 260.28 320.51 259.28 335.53 253.28 334.79 238.53 318.25 245.79 333.29 195.11 309.99 215.14 324.27 201.42 336.29 221.11 326.53 259.83 347.55 255.88 630.85 277.13 630.85 271.53 322.01 301.05 308.49 342.18 319.77" fill="#d1d3d4"/><g id="fd5c6c1c-185a-49c0-ab7b-e4b066bc5b06" data-name="freepik--Plants--inject-609"><path d="M471.79,630c0,3,70.6,5.42,157.69,5.42,23.52,0,45.81-.18,65.86-.5a35.29,35.29,0,0,1-1.63,4.26l.2.18a33.81,33.81,0,0,0,1.68-4.44c54.08-.9,91.59-2.73,91.59-4.92,0-.84-5.71-1.65-15.94-2.37a3.61,3.61,0,0,0,0-1.31c-.67-3.51-4.22-4.21-6.57-3.37-2,.7-3.26,1.71-5,2.23-.2,0,0-.12,0-.12h0a27.45,27.45,0,0,0,2.25-8.17c.83-.1,2.6,1.2,3.11,1.48,2.13,1.21,3.69,2.31,5.88,1.81,1.74-.42,3.32-1.83,2.54-4.3-1-3.33-4.77-3.43-7.09-2.29a20.79,20.79,0,0,0-4.42,3.16c.37-2.5.56-5,.9-7.48A10.94,10.94,0,0,1,766,610c2.39.64,4.25,1.36,6.41.34,1.7-.82,3.49-2.45,2.43-5-1.46-3.42-5.64-1.93-7.9-.32a20.78,20.78,0,0,0-4.11,3.85c.14-1.66.36-3.32.65-5a43.44,43.44,0,0,1,1.77-4.48h0v-.12h0a8.61,8.61,0,0,1,3.4,1.23c2.43,1,4.25,1.93,6.61,1.22,1.88-.56,4.09-1.8,3.54-4.72-.76-3.95-5.15-3-7.63-1.6-1.93,1.1-4,2.45-5.86,3.73l.3-.62a64,64,0,0,1,4.5-7.49h0a.43.43,0,0,1,0-.16,1.83,1.83,0,0,1,.19-.24,10.9,10.9,0,0,1,3.54.44c2.64.5,4.57,1,6.89-.12,1.84-.92,4.16-2.51,3.22-5.4-1.25-3.8-5.54-1.89-8,0-1.44,1.16-3.51,2.89-5,4.3.91-1.25,1.9-2.5,2.89-3.68h0c.23-.29.47-.56.72-.82A22.76,22.76,0,0,1,778,583.2c2.49-1.47,4.81-2.49,6.23-5,1.06-2,1.33-4.4-.71-5.53-2.74-1.5-5.06,2.49-6.41,5.47-.94,2.11-2.09,4.92-2.94,7.19-1.38,1.6-2.71,3.33-3.93,5a34.08,34.08,0,0,1,1.4-4.36c1-3.15,2.64-5.84,1.77-9-.67-2.51-2.55-3.77-4.6-2.17C766,577,766,582,767.29,585.23a58.44,58.44,0,0,0,2.64,5.6,64.74,64.74,0,0,0-4.62,7.65,2.1,2.1,0,0,1-.22.42,24.61,24.61,0,0,1,.25-4.2c.2-3.29.92-5.8-.46-8.63a3,3,0,0,0-1.06-1.51,2.57,2.57,0,0,0-3.83.89c-2.21,3.07-1.13,7.47.92,10a27.78,27.78,0,0,0,4,3.89,37.64,37.64,0,0,0-1.77,4.6c-.39,1.69-.43,3.68-.7,5.43h0c-.85-.79-1.15-3.72-1.25-4.56-.46-3.1,0-5.37-1.42-8-1.1-2.11-3.13-2.73-4.64-.36-2,3.2.5,7.79,2.27,9.44a36.22,36.22,0,0,0,4.8,3.43c.55.41.42.29.26.29-.3,2.39-.49,4.88-.87,7.21a17.92,17.92,0,0,1-2.12-4c-1.38-2.71-2-5.06-4.18-6.57a2.36,2.36,0,0,0-1.47-.68,2.71,2.71,0,0,0-2.78,2.69c-.53,3.82,2.71,6.65,5.31,7.53a32.56,32.56,0,0,0,5.32,1.15,24.25,24.25,0,0,1-2.24,8,19.17,19.17,0,0,1-1.89-3.52c-1.43-2.75-2.41-5.18-4.64-6.6-1.75-1.13-3.93-1.09-4.36,1.76-.58,3.88,2.82,6.41,5.44,7.35a33.64,33.64,0,0,0,5.31,1.19c-.4.64-.83,1.26-1.25,1.87-5.35-.26-11.36-.5-17.89-.73a36.22,36.22,0,0,0-1.12-6.12c.43-.62,2.08-1,2.54-1.17a6.9,6.9,0,0,0,4.23-2.71c.85-1.3,1.29-3.35-.48-4.23-2.35-1.23-4.48,1.06-5.15,3.23-.55,1.81-.59,3.23-1.17,4.82V620h0a20.54,20.54,0,0,0-3.54-5.64c.35-.67,2-1.35,2.37-1.59,1.74-1,3.13-1.61,3.91-3.48.54-1.5.54-3.37-1.24-4-2.42-.83-4.32,1.89-4.79,4.18a23.5,23.5,0,0,0-.34,4.82c-1.24-1.49-2.6-2.86-3.88-4.3a10.78,10.78,0,0,1,2-2c1.54-1.45,2.87-2.57,3.32-4.58.28-1.67.21-3.8-1.78-4.24-2.67-.58-3.86,3.26-4,5.73a21.34,21.34,0,0,0,.21,4.92,36.87,36.87,0,0,1-2.53-2.92,34.67,34.67,0,0,1-1.77-3.43h-.09c.35-.84,2-1.71,2.37-2,1.77-1.3,3.19-2.21,3.93-4.32.59-1.64.94-3.89-1-4.9-2.65-1.36-4.25,2.35-4.64,4.86-.32,2-.53,4.18-.71,6.19l-.21-.52a62,62,0,0,1-2.14-7h-.09a.57.57,0,0,1,0-.26,11.76,11.76,0,0,1,1.93-2.37,10.29,10.29,0,0,0,3.3-5.16c.37-1.81.56-4.32-1.55-5-2.86-1-3.94,3.15-3.94,5.86a51,51,0,0,0,0,5.8c-.29-1.36-.54-2.71-.71-4h0c0-.1-.13-.81-.13-1a30.47,30.47,0,0,1,.41-3.57,15.14,15.14,0,0,0,.16-7c-.58-1.79-1.89-3.13-3.54-2.17-2.25,1.31-1.06,5,0,7.43.74,1.67,1.8,4,2.71,5.69.25,1.8.6,3.63,1,5.36a25.86,25.86,0,0,1-1.77-3.18c-1.31-2.3-2.09-4.78-4.34-5.68-1.77-.72-3.54,0-3.54,2.35,0,3.13,2.82,5.52,5.31,6.19a36.76,36.76,0,0,0,4.54.76,54.59,54.59,0,0,0,2.16,7.15c0,.14.14.28.14.38a15.13,15.13,0,0,1-2.3-2.23c-1.83-1.75-2.91-3.51-5.23-3.87-1.82-.29-3.22,1-2.72,3.31a5.58,5.58,0,0,0,6.19,4.2,20,20,0,0,0,4.22-1.07,29.22,29.22,0,0,0,1.77,3.54c.78,1.14,1.91,2.08,2.8,3.15h0c-.87.24-2.71-1-3.26-1.29-2-1.2-3.08-2.67-5.31-2.91-1.76-.18-3.1,1-2.47,3.26.85,3.07,4.79,3.47,6.56,2.93a29.46,29.46,0,0,0,4.32-1.89c.49-.14.4,0,.28,0,1.22,1.39,2.57,2.75,3.74,4.16a10.51,10.51,0,0,1-3.3-.34c-2.28-.31-3.91-1-5.82-.11a2,2,0,0,0-1.11.75,2.61,2.61,0,0,0,.17,3.37c1.91,2.29,5.13,1.29,6.9-.24a29.62,29.62,0,0,0,3.25-3.37,18.11,18.11,0,0,1,3.54,5.58,12.25,12.25,0,0,1-3-.3,10,10,0,0,0-6.07.22c-1.51.66-2.54,2.31-1.1,4,2,2.31,5.12,1,6.89-.47a32.38,32.38,0,0,0,3.31-3.41,34.93,34.93,0,0,1,1.13,6c-12.73-.44-27.57-.78-43.93-1a3.82,3.82,0,0,1-.13-.62,6.47,6.47,0,0,1,2.77,0,6.35,6.35,0,0,0,4.92-.77,2.22,2.22,0,0,0,.58-.44,2.86,2.86,0,0,0,.13-3.69c-1.74-2.13-4.57-.87-6,.84a20.62,20.62,0,0,0-2.44,4c-.41-2-1-4-1.42-6a9.05,9.05,0,0,1,2.61-.58,7.36,7.36,0,0,0,4.9-2c1-1.2,1.95-3.09.43-4.6-2.06-2-4.78.61-6,2.61a18.82,18.82,0,0,0-2,4.36c-.36-1.32-.66-2.66-.89-4a38.5,38.5,0,0,1,0-4h0a6.93,6.93,0,0,1,2.89-.3,7.65,7.65,0,0,0,5.31-1.45c1.33-1.1,2.57-2.83,1.33-4.84-1.68-2.69-4.71-.46-6.18,1.55-1.15,1.54-2.3,3.27-3.37,4.92v-.56a58.79,58.79,0,0,1,1.28-7.25h0v-.12c.09,0,.09-.27.09-.27a9.4,9.4,0,0,1,2.71-.9,8.62,8.62,0,0,0,5.15-2.59c1.13-1.34,2.41-3.39.9-5.22-2-2.47-4.72.52-6,2.81-.76,1.41-1.82,3.43-2.53,5,.32-1.26.71-2.57,1.13-3.81h0c0-.1.3-.75.3-.87a22.63,22.63,0,0,1,2-2.87,14.1,14.1,0,0,0,3.28-6c.3-1.87-.3-3.78-2.07-3.88-2.5-.16-3.12,3.7-3.28,6.41-.19,1.92-.19,4.45-.19,6.46-.61,1.71-1.1,3.5-1.56,5.18a29.65,29.65,0,0,1-.18-3.77c-.11-2.75.34-5.4-1.2-7.41-1.23-1.67-3-2-4.08,0-1.5,2.65,0,6.34,1.77,8.35a47.7,47.7,0,0,0,3.55,3.28,57.42,57.42,0,0,0-1.31,7.41V610a17.16,17.16,0,0,1-1-3.24c-.78-2.55-1-4.69-2.77-6.32a2.17,2.17,0,0,0-1.21-.75,2.28,2.28,0,0,0-2.63,2c-.76,3.08,1.29,6,3.54,7.19a20.65,20.65,0,0,0,4.11,1.49,33.7,33.7,0,0,0,0,4c.18,1.4.71,2.91,1,4.33h0c-.85-.28-1.89-2.39-2.21-3-1.24-2.23-1.58-4.1-3.35-5.58-1.4-1.19-3.08-.93-3.54,1.38-.64,3.14,2.58,5.69,4.35,6.29a29.85,29.85,0,0,0,4.57.84c.52.12.41.12.27.12.44,1.89,1,3.84,1.38,5.73a12.63,12.63,0,0,1-2.92-2.41c-1.79-1.55-2.94-3.08-5-3.44-1.61-.28-3.1.75-2.64,3a4.53,4.53,0,0,0,2.52,3.19c-6.59-.1-13.41-.24-20.4-.24a27.85,27.85,0,0,0-.85-4.74,4.84,4.84,0,0,1,1.91-.89,5.18,5.18,0,0,0,3.19-2c.64-1,.94-2.53-.37-3.2l-.22-.07a3,3,0,0,0-3.64,2.5c-.43,1.37-.45,2.43-.89,3.64v-.1h0a15.38,15.38,0,0,0-2.71-4.26c.23-.5,1.45-1,1.77-1.18,1.29-.77,2.36-1.21,2.92-2.64a1.58,1.58,0,0,0,.19-.44,2.08,2.08,0,0,0-1.11-2.55c-1.77-.62-3.18,1.43-3.54,3.16a17.4,17.4,0,0,0-.25,3.61c-.94-1.12-2-2.15-2.92-3.23a8.2,8.2,0,0,1,1.49-1.51c1.15-1.08,2.16-1.87,2.5-3.45.26-1.17.23-2.83-1.26-3.18-2-.44-2.91,2.45-3,4.3a16.35,16.35,0,0,0,.16,3.7c-.6-.75-1.34-1.39-1.89-2.19a21.52,21.52,0,0,1-1.33-2.57h0c.23-.59,1.43-1.23,1.77-1.45,1.33-1,2.39-1.67,2.94-3.23.44-1.25.73-2.95-.76-3.72-2-1-3.24,1.67-3.54,3.68-.23,1.48-.39,3.11-.53,4.64l-.16-.38a45.14,45.14,0,0,1-1.6-5.27h0a.34.34,0,0,1,0-.2,9.58,9.58,0,0,1,1.45-1.76,7.75,7.75,0,0,0,2.48-3.88c.29-1.37.43-3.25-1.15-3.78-2.16-.74-3,2.41-3,4.42-.09,1.25,0,3,0,4.34-.22-.94-.39-2-.53-2.95h0c0-.08-.11-.6-.11-.7a20.57,20.57,0,0,1,.3-2.72A11.13,11.13,0,0,0,655,589c-.43-1.34-1.42-2.35-2.64-1.62-1.68,1-.8,3.73,0,5.56.57,1.3,1.36,3,2,4.28.19,1.34.46,2.73.72,4a21.26,21.26,0,0,1-1.38-2.37c-1-1.74-1.49-3.61-3.26-4.3a1.78,1.78,0,0,0-2.64,1.79c-.07,2.35,2.09,4.14,4,4.64a28.08,28.08,0,0,0,3.4.58,44.71,44.71,0,0,0,1.63,5.39l.11.26a10.35,10.35,0,0,1-1.77-1.67c-1.37-1.33-2.15-2.65-3.92-2.91-1.36-.2-2.42.76-2,2.49a4.24,4.24,0,0,0,4.67,3.17,16,16,0,0,0,3.16-.82,21.34,21.34,0,0,0,1.36,2.65c.58.84,1.43,1.58,2.11,2.39h0c-.66.18-2-.72-2.43-1-1.54-.92-2.37-2-4-2.18-1.33-.15-2.33.74-1.86,2.45.64,2.3,3.54,2.59,4.93,2.18a25.88,25.88,0,0,0,3.25-1.4c.38-.12.22,0,.22,0,.92,1.1,1.93,2,2.79,3.11a8.25,8.25,0,0,1-2.47-.26,7.6,7.6,0,0,0-4.38,0,1.53,1.53,0,0,0-.85.57,2,2,0,0,0,.14,2.52c1.44,1.73,3.86,1,5.19-.16a23.67,23.67,0,0,0,2.45-2.55,13.55,13.55,0,0,1,2.67,4.2,8.64,8.64,0,0,1-2.21-.22,7.44,7.44,0,0,0-4.57.16c-1.14.56-1.92,1.79-.84,3.07,1.47,1.67,3.81.78,5.19-.34a21.54,21.54,0,0,0,2.48-2.57,25,25,0,0,1,.87,4.72c-12.09-.16-24.72-.16-37.72-.16h-8.85a5.39,5.39,0,0,0-4.82-.52,10.62,10.62,0,0,0-1.31.54h-3a33.89,33.89,0,0,0,1.57-6.65c.83-.1,2.6,1.21,3.12,1.49,2.12,1.2,3.68,2.33,5.88,1.8a3.19,3.19,0,0,0,2.55-4.29c-1-3.32-4.75-3.44-7.09-2.29a21.1,21.1,0,0,0-4.42,3.15c.39-2.47.56-5,.9-7.47a10.61,10.61,0,0,1,3.17.74c2.39.65,4.27,1.37,6.41.34,1.7-.8,3.51-2.43,2.43-5-1.44-3.43-5.63-1.92-7.9-.32a20.72,20.72,0,0,0-4.11,3.84c.15-1.66.36-3.31.66-4.94a43.27,43.27,0,0,1,1.68-4.5h.09v-.12h0a8.87,8.87,0,0,1,3.4,1.22c2.42,1,4.25,2,6.6,1.25,1.88-.56,4.11-1.83,3.54-4.74-.76-4-5.15-3-7.61-1.61-2,1.11-4,2.45-5.88,3.74l.3-.6a62.68,62.68,0,0,1,4.5-7.51h0c0-.17,0-.11,0-.17a1.42,1.42,0,0,1,.19-.24,11,11,0,0,1,3.46.43c2.63.5,4.57,1,6.88-.13,1.86-.9,4.17-2.51,3.23-5.4-1.26-3.89-5.54-2-8-.1-1.43,1.17-3.49,2.89-5,4.32.9-1.25,1.89-2.51,2.88-3.68h0l.73-.82a25.53,25.53,0,0,1,3.4-2.19c2.48-1.46,4.8-2.49,6.21-5,1.08-2,1.33-4.4-.69-5.5-2.76-1.53-5.08,2.47-6.43,5.46-.93,2.09-2.08,4.9-2.93,7.19-1.39,1.59-2.71,3.34-3.94,5a34.88,34.88,0,0,1,1.4-4.38c1.07-3.15,2.64-5.82,1.77-9-.67-2.51-2.55-3.8-4.6-2.19-2.78,2.19-2.75,7.15-1.49,10.42q1.38,2.68,3,5.18a62.27,62.27,0,0,0-4.6,7.63c-.09.16-.21.45-.21.45a22,22,0,0,1,.23-4.22c.19-3.3.94-5.81-.46-8.64a3.15,3.15,0,0,0-1-1.47,2.56,2.56,0,0,0-3.83.85c-2.23,3.07-1.14,7.47.9,10a27.77,27.77,0,0,0,4,3.9,44.61,44.61,0,0,0-1.77,4.6c-.39,1.68-.4,3.67-.67,5.42h0c-.85-.78-1.13-3.72-1.26-4.56-.46-3.07,0-5.36-1.41-8-1.1-2.09-3.14-2.73-4.64-.36-2,3.19.49,7.79,2.26,9.43a41,41,0,0,0,4.8,3.46c.55.4.43.28.27.28-.3,2.37-.5,4.86-.87,7.19a18.07,18.07,0,0,1-2.13-3.92c-1.36-2.73-2-5.06-4.16-6.58-1.71-1.15-3.82-.81-4.25,2a6.53,6.53,0,0,0,2.68,6,2.22,2.22,0,0,0-1.68,0,2.77,2.77,0,0,0-2.08,0,4.76,4.76,0,0,0,.66-1.57c.35-1.4.25-3.19-1.42-3.55-2.25-.5-3.24,2.77-3.38,4.78a16.79,16.79,0,0,0,.18,4.13,30.6,30.6,0,0,1-2.13-2.43,23.85,23.85,0,0,1-1.49-2.89h0c.22-.64,1.63-1.36,2-1.62a7.65,7.65,0,0,0,3.31-3.62c.48-1.38.78-3.27-.85-4.12-2.23-1.22-3.58,1.89-3.9,4-.26,1.65-.46,3.47-.6,5.18l-.18-.44a49.19,49.19,0,0,1-1.77-5.88h0a.53.53,0,0,1,0-.25,8.81,8.81,0,0,1,1.63-2,8.56,8.56,0,0,0,2.76-4.34c.31-1.53.48-3.64-1.29-4.22-2.41-.82-3.24,2.63-3.33,4.92a41.47,41.47,0,0,0,0,4.86c-.23-1.06-.44-2.19-.6-3.29h0a7.93,7.93,0,0,1-.11-.79,23.5,23.5,0,0,1,.34-3,13.06,13.06,0,0,0,.14-5.9c-.49-1.51-1.59-2.63-3-1.83-1.88,1.11-.91,4.24,0,6.25.61,1.44,1.52,3.31,2.28,4.78.19,1.5.5,3,.8,4.49a23.44,23.44,0,0,1-1.54-2.67c-1.1-1.92-1.76-4-3.65-4.78-1.49-.58-2.94,0-2.94,2-.07,2.61,2.34,4.62,4.44,5.18a34.1,34.1,0,0,0,3.79.67,47.81,47.81,0,0,0,1.77,6,1.73,1.73,0,0,1,.11.32,13.1,13.1,0,0,1-1.93-1.87c-1.52-1.48-2.43-3-4.37-3.25-1.54-.24-2.71.76-2.31,2.77a4.72,4.72,0,0,0,5.23,3.54,16.31,16.31,0,0,0,3.54-.91,26.07,26.07,0,0,0,1.52,3,30.12,30.12,0,0,0,2.36,2.65h0c-.73.2-2.27-.81-2.73-1.09-1.72-1-2.62-2.23-4.5-2.43-1.49-.16-2.6.72-2.07,2.73.71,2.57,4,2.9,5.49,2.45a22.78,22.78,0,0,0,3.54-1.58c.43-.12.36,0,.25,0,1,1.16,2.16,2.31,3.13,3.47a8.62,8.62,0,0,1-2.76-.28,8.52,8.52,0,0,0-4.9,0,2.16,2.16,0,0,0-1.37,2.13l-22.2.26a3.33,3.33,0,0,0-4.29-2.21c-1.38.38-2.28,1-3.54,1.27h0a18.78,18.78,0,0,0,1.77-5.49c.57,0,1.74,1,2.07,1.19a5.42,5.42,0,0,0,3.95,1.5,2.14,2.14,0,0,0,1.91-2.81c-.6-2.33-3.15-2.57-4.8-1.91a14.12,14.12,0,0,0-3.13,2c.35-1.68.57-3.39.89-5.08a6.87,6.87,0,0,1,2.14.69,6.11,6.11,0,0,0,4.37.54c1.12-.48,2.41-1.51,1.77-3.3-.78-2.41-3.7-1.58-5.31-.6a13.41,13.41,0,0,0-3,2.43c.23-1.1.32-2.29.64-3.35a25.88,25.88,0,0,1,1.33-3h0a5.81,5.81,0,0,1,2.28,1,6.43,6.43,0,0,0,4.48,1.16c1.3-.3,2.85-1.06,2.59-3.07-.37-2.73-3.38-2.31-5.15-1.46-1.39.66-2.82,1.48-4.17,2.26l.23-.4a44.49,44.49,0,0,1,3.37-4.92h0v-.1l.16-.16a7.6,7.6,0,0,1,2.34.46A6.8,6.8,0,0,0,577,602c1.3-.54,2.93-1.52,2.41-3.53-.72-2.73-3.7-1.65-5.47-.46-1,.68-2.48,1.81-3.54,2.69.67-.8,1.38-1.63,2.11-2.37h0l.51-.52a16.82,16.82,0,0,1,2.41-1.35,10.13,10.13,0,0,0,4.64-3.69c.85-1.29,1.08-3-.27-3.82-1.82-1.16-3.56,1.43-4.6,3.44-.73,1.38-1.61,3.23-2.29,4.75-1,1-2,2.15-2.87,3.24a26.11,26.11,0,0,1,1.12-2.91c.83-2,2-3.82,1.54-6-.37-1.71-1.59-2.71-3.06-1.71-2,1.35-2.15,4.74-1.42,7.05q.71,2.06,1.59,4a42.47,42.47,0,0,0-3.43,5l-.18.28a17.06,17.06,0,0,1,.34-2.85c.23-2.33.83-4,0-6a2.17,2.17,0,0,0-.65-1,1.77,1.77,0,0,0-2.68.38,6,6,0,0,0,.25,6.89,19.26,19.26,0,0,0,2.6,2.87,23.8,23.8,0,0,0-1.36,3c-.34,1.13-.43,2.49-.68,3.68h0c-.55-.58-.69-2.59-.69-3.17-.17-2.19.22-3.74-.65-5.63-.69-1.48-2-2-3.15-.48-1.51,2.09,0,5.36,1.18,6.57a28.49,28.49,0,0,0,3.15,2.59c.36.2.18.2.18.2-.3,1.63-.53,3.31-.87,4.88a12.8,12.8,0,0,1-1.31-2.77c-.83-1.93-1.18-3.58-2.6-4.7a1.88,1.88,0,0,0-.45-.35,1.68,1.68,0,0,0-2.37.93c-1.64,0-2.9,2-3.24,3.64a18.58,18.58,0,0,0-.28,4c-1-1.26-2.19-2.39-3.26-3.61a9.22,9.22,0,0,1,1.67-1.69c1.29-1.2,2.41-2.09,2.78-3.85.35-1.39.25-3.18-1.42-3.54-2.25-.5-3.24,2.77-3.38,4.78a17.94,17.94,0,0,0,.18,4.14c-.69-.83-1.53-1.55-2.13-2.43a27.16,27.16,0,0,1-1.49-2.89h0c.23-.65,1.63-1.37,2-1.63,1.53-1.09,2.68-1.85,3.3-3.62.49-1.38.79-3.27-.85-4.11-2.23-1.23-3.58,1.89-3.9,4-.26,1.65-.44,3.48-.6,5.19l-.18-.45a48.65,48.65,0,0,1-1.77-5.88h0a.49.49,0,0,1,0-.24,8.65,8.65,0,0,1,1.63-2,8.69,8.69,0,0,0,2.76-4.34c.32-1.52.48-3.63-1.29-4.21-2.41-.83-3.24,2.63-3.33,4.92-.1,1.4,0,3.37,0,4.86-.23-1.07-.44-2.19-.6-3.3h0c0-.08-.11-.66-.11-.78a23.3,23.3,0,0,1,.34-3,13,13,0,0,0,.14-5.91c-.48-1.5-1.57-2.63-3-1.83-1.87,1.11-.88,4.24,0,6.25.64,1.45,1.53,3.31,2.29,4.78.21,1.51.51,3.05.81,4.5a21.29,21.29,0,0,1-1.54-2.67c-1.11-1.93-1.77-4-3.65-4.78-1.5-.58-2.93,0-2.93,2-.09,2.61,2.31,4.61,4.42,5.18a32.59,32.59,0,0,0,3.79.64,46.85,46.85,0,0,0,1.77,6c0,.12.13.33.13.33a13.25,13.25,0,0,1-1.95-1.87c-1.52-1.49-2.43-3-4.38-3.26a1.75,1.75,0,0,0-1.13,0,2.25,2.25,0,0,0-1.17,2.74,4.73,4.73,0,0,0,5.23,3.53,16.88,16.88,0,0,0,3.54-.9,25.8,25.8,0,0,0,1.5,3,28.75,28.75,0,0,0,2.36,2.65h0c-.73.2-2.27-.8-2.71-1.08-1.74-1-2.64-2.23-4.52-2.43-1.48-.17-2.6.72-2.07,2.73.71,2.57,4,2.89,5.51,2.45a24.82,24.82,0,0,0,3.63-1.59c.41-.12.34,0,.23,0,1,1.17,2.16,2.31,3.13,3.47a8.35,8.35,0,0,1-2.76-.28,8.48,8.48,0,0,0-4.89,0,2.11,2.11,0,0,0-.79,3.46c1.61,1.93,4.3,1.08,5.81-.2a27.11,27.11,0,0,0,2.72-2.84,15.26,15.26,0,0,1,3,4.68,10.38,10.38,0,0,1-2.48-.24,8.46,8.46,0,0,0-5.1.18,2.64,2.64,0,0,0-1.4,1.51c-19.55.4-36.27,1-48.91,1.63a2.27,2.27,0,0,0-2.94-1.65c-.92.26-1.54.68-2.39.86h0a12.83,12.83,0,0,0,1.26-3.73c.39,0,1.18.66,1.41.8a3.7,3.7,0,0,0,2.68,1,1.45,1.45,0,0,0,1.29-1.91c-.41-1.57-2.14-1.75-3.24-1.31a9.92,9.92,0,0,0-2.14,1.33c.24-1.15.39-2.29.6-3.44a5.55,5.55,0,0,1,1.47.45,4,4,0,0,0,3,.38,1.72,1.72,0,0,0,1.25-2.23c-.58-1.65-2.57-1.09-3.66-.42a9.77,9.77,0,0,0-2,1.64c.16-.74.19-1.56.42-2.27s.62-1.32.9-2h0c.43-.06,1.28.54,1.54.68a4.26,4.26,0,0,0,3,.78c.89-.14,1.95-.64,1.77-2-.28-1.86-2.35-1.56-3.54-1-.92.44-1.91,1-2.81,1.55l.14-.29a34.94,34.94,0,0,1,2.28-3.33h0a.12.12,0,0,1,.11-.1,5.39,5.39,0,0,1,1.59.3,4.56,4.56,0,0,0,3.21.18c.88-.4,2-1,1.63-2.41-.48-1.85-2.52-1.1-3.7-.3-.66.48-1.7,1.23-2.43,1.83.46-.54.94-1.11,1.43-1.61h0l.36-.36a13,13,0,0,1,1.63-.9,6.61,6.61,0,0,0,3-2c.56-.86.72-2-.2-2.59-1.22-.78-2.41,1-3.12,2.33-.49.94-1.09,2.21-1.54,3.25-.69.68-1.34,1.45-2,2.19a17.32,17.32,0,0,1,.76-2c.57-1.42,1.35-3,1-4.12S499,602.62,498,603.3a4.39,4.39,0,0,0-1,4.78c.37,1.12.69,1.71,1.1,2.69a31,31,0,0,0-2.36,3.39,2.12,2.12,0,0,1-.11.21,10.42,10.42,0,0,1,.24-2c.15-1.51.58-2.65,0-4a1.58,1.58,0,0,0-.44-.7,1.19,1.19,0,0,0-1.81.26,4.08,4.08,0,0,0,.16,4.68,13.07,13.07,0,0,0,1.77,2,17.28,17.28,0,0,0-.92,2,24.16,24.16,0,0,0-.46,2.49h0a4.28,4.28,0,0,1-.48-2.14,10.24,10.24,0,0,0-.45-3.82c-.47-1-1.38-1.39-2.14-.32-.95,1.4,0,3.63.82,4.46a15.94,15.94,0,0,0,2.12,1.74c.25.15.13.15.13.15-.22,1.1-.36,2.24-.59,3.31a7.42,7.42,0,0,1-.88-1.89,7.54,7.54,0,0,0-1.78-3.19,1.27,1.27,0,0,0-.34-.27,1.14,1.14,0,0,0-1.57.69c-1.13,0-2,1.32-2.21,2.45a13.31,13.31,0,0,0-.2,2.75c-.7-.84-1.48-1.63-2.19-2.45a5.23,5.23,0,0,1,1.11-1.14,5,5,0,0,0,1.9-2.61c.21-.95.18-2.17-1-2.41-1.52-.35-2.19,1.84-2.3,3.25a11.5,11.5,0,0,0,.12,2.81c-.47-.56-1-1.06-1.45-1.67a19.7,19.7,0,0,1-1-2h0c.2-.45,1.1-.93,1.35-1.11a6,6,0,0,0,2.25-2.45c.33-.94.53-2.23-.59-2.81-1.5-.76-2.42,1.34-2.64,2.79-.17,1.13-.3,2.35-.4,3.52l-.13-.31a35.76,35.76,0,0,1-1.22-4h0a.33.33,0,0,1,0-.14,6.1,6.1,0,0,1,1.12-1.35,6,6,0,0,0,1.87-2.95c.22-1.05.32-2.47-.88-2.87-1.63-.54-2.25,1.8-2.25,3.35-.05,1.1-.05,2.2,0,3.29-.16-.72-.3-1.48-.41-2.22h0V609a19.13,19.13,0,0,1,.23-2,8.81,8.81,0,0,0,.11-4c-.34-1-1.08-1.79-2-1.23-1.27.75-.6,2.84,0,4.22.43,1,1,2.27,1.54,3.25.14,1.05.35,2.07.57,3.06a12,12,0,0,1-1.05-1.81c-.71-1.23-1.45-2.81-2.48-3.23a1.33,1.33,0,0,0-2,1.34c-.05,1.77,1.58,3.13,3,3.52a23,23,0,0,0,2.59.44,29,29,0,0,0,1.22,4v.23a9,9,0,0,1-1.33-1.29c-1-1-1.64-2-3-2.21a1.17,1.17,0,0,0-.74,0,1.53,1.53,0,0,0-.83,1.88,3.24,3.24,0,0,0,3.54,2.39,11.84,11.84,0,0,0,2.39-.62,18,18,0,0,0,1,2c.44.63,1.1,1.19,1.59,1.79h0c-.42.14-1.47-.54-1.77-.72-1.17-.68-2.05-1.53-3.06-1.67s-1.77.56-1.42,1.87c.48,1.67,2.69,2,3.74,1.67a15.36,15.36,0,0,0,2.46-1.09c.28-.1.18,0,.18,0,.69.79,1.47,1.57,2.12,2.37a6.31,6.31,0,0,1-1.88-.2,5.72,5.72,0,0,0-3.33,0,1.14,1.14,0,0,0-.62.42,1.5,1.5,0,0,0,.09,1.93,2.77,2.77,0,0,0,3.93-.14,17.72,17.72,0,0,0,1.86-2,10.68,10.68,0,0,1,2,3.19,5.89,5.89,0,0,1-1.77-.18,5.8,5.8,0,0,0-3.45.12,1.51,1.51,0,0,0-.91,1.91C475.51,628.78,471.65,629.45,471.79,630Zm223.82-4.76h-2l1.93-.56Zm66.49,2-3.81-.2,1.12-1.63C760.19,625.43,761.5,626.7,762.1,627.24Zm-273.49-.82a4.47,4.47,0,0,1,.31,1.26l-1.58.12C487.78,627.36,488.15,626.9,488.61,626.42Zm1.17-5.51a4.66,4.66,0,0,0,1.12.77,2,2,0,0,0-.57.38,3.63,3.63,0,0,0-.78-.83h-.1l.33-.32Zm2.52,5.38c-.32.45-.66.85-1,1.25l-2.25.14c-.09-.42-.18-.86-.3-1.28.24-.37,1.18-.59,1.45-.69A17,17,0,0,0,492.3,626.29Zm-5.65-3.23a2.23,2.23,0,0,1,.8-.7,3.27,3.27,0,0,0,1.61,2.71,6.84,6.84,0,0,1-.32,1.2h0a12.19,12.19,0,0,0-2.07-3.21Zm5.74,3.11a4.37,4.37,0,0,1-.59-1.16,2.65,2.65,0,0,0,.87-.86,2.25,2.25,0,0,0,.32-1.79l.64.16A11.51,11.51,0,0,1,492.39,626.17Zm0,.37c.37,0,1,.6,1.29.82l-2.11.12c.29-.34.59-.7.87-1.09Zm63.36-2.31a4.83,4.83,0,0,1,.28,1.12H554.7Zm3.25-6.89a4,4,0,0,0-.81.56,4.62,4.62,0,0,0-1.15-1.18l-.14-.11a3.11,3.11,0,0,0,.48-.48A6.53,6.53,0,0,0,559,617.34Zm-1,5.94c1,.38,2,.54,3.07.85l-.94,1.22h-4c-.08-.38-.17-.76-.28-1.16.37-.53,1.75-.83,2.14-1Zm-5.2-4a2.88,2.88,0,0,1,1-1,4.76,4.76,0,0,0,2.39,4,13.82,13.82,0,0,1-.46,1.79V624h0a17.24,17.24,0,0,0-3-4.76ZM563,618.5a16.3,16.3,0,0,1-1.93,5.36,6.76,6.76,0,0,1-.85-1.7,4.14,4.14,0,0,0,1.29-1.31,3,3,0,0,0,.44-2.61l.94.22Zm-1.74,5.77a3.06,3.06,0,0,1,1.24.94H560.3l.81-1Zm40.54.48c-.44-.6-.89-1.19-1.37-1.79a1.67,1.67,0,0,1,.54-.52,9.58,9.58,0,0,0,3.24,2.29Zm-1.44-1.67c.43.54.89,1.09,1.3,1.65h-2.87Zm-3.11-3.69a9.06,9.06,0,0,1,1.52-1.79c.28-.28.57-.54.85-.78a3.8,3.8,0,0,0-.21.82,5.6,5.6,0,0,0,1,4v1.22c-1.06-1.24-2.19-2.39-3.25-3.61ZM612.66,618a30.57,30.57,0,0,1-1.77,6.71h-1.45l-.14-.28c.63-1.09.86-2.67-.52-3.38a2.35,2.35,0,0,0-1.27-.26A25,25,0,0,0,605.9,618a2.44,2.44,0,0,0-.32-2,6.75,6.75,0,0,0,1.63.77,32.42,32.42,0,0,0,5.31,1.14Z" fill="#e6e7e8"/><path d="M231.79,627.09c0,2.86,70.6,5.18,157.69,5.18,23.52,0,45.81-.18,65.86-.48a31,31,0,0,1-1.63,4.06l.2.17a31.56,31.56,0,0,0,1.68-4.23c54.08-.87,91.59-2.61,91.59-4.7,0-.81-5.71-1.57-15.94-2.26a3.29,3.29,0,0,0,0-1.25c-.68-3.36-4.22-4-6.57-3.22-2,.67-3.26,1.63-5,2.13-.2,0-.09-.12,0-.12h0a25.27,25.27,0,0,0,2.25-7.8c.83-.1,2.6,1.15,3.11,1.42,2.13,1.15,3.69,2.2,5.88,1.72,1.74-.4,3.32-1.74,2.54-4.1-1-3.19-4.77-3.28-7.09-2.19a20.8,20.8,0,0,0-4.42,3c.39-2.38.56-4.77.9-7.13A11.2,11.2,0,0,1,526,608c2.39.61,4.25,1.3,6.41.32,1.7-.78,3.49-2.34,2.42-4.75-1.45-3.26-5.63-1.84-7.89-.31a20.19,20.19,0,0,0-4.11,3.68c.14-1.59.36-3.17.65-4.73a40.47,40.47,0,0,1,1.69-4.28h.08v-.11h0a9,9,0,0,1,3.4,1.16c2.43,1,4.25,1.85,6.61,1.17,1.88-.53,4.11-1.72,3.54-4.5-.76-3.78-5.15-2.88-7.63-1.54-1.93,1.06-4,2.34-5.86,3.57l.3-.59a60.68,60.68,0,0,1,4.5-7.16h0a.38.38,0,0,1,0-.15,1.66,1.66,0,0,1,.19-.23,11.15,11.15,0,0,1,3.45.42c2.64.48,4.57,1,6.89-.11,1.85-.89,4.16-2.4,3.23-5.16-1.26-3.63-5.55-1.8-8,0-1.43,1.11-3.51,2.76-5,4.1.91-1.19,1.9-2.38,2.89-3.51h0a9,9,0,0,1,.73-.78,22,22,0,0,1,3.4-2.09c2.48-1.4,4.8-2.38,6.21-4.74,1.06-1.86,1.33-4.2-.71-5.27-2.74-1.44-5.06,2.37-6.41,5.21-.94,2-2.09,4.7-2.94,6.87-1.38,1.53-2.71,3.18-3.93,4.77a31.77,31.77,0,0,1,1.4-4.16c1.06-3,2.64-5.58,1.77-8.61-.67-2.4-2.55-3.6-4.6-2.07-2.78,2.09-2.75,6.81-1.49,9.93a55.34,55.34,0,0,0,2.64,5.35,60.43,60.43,0,0,0-4.61,7.31l-.23.4a22.45,22.45,0,0,1,.25-4c.2-3.14.92-5.54-.46-8.24a2.86,2.86,0,0,0-1.07-1.45,2.62,2.62,0,0,0-3.8.85c-2.23,2.94-1.13,7.14.91,9.59a26.54,26.54,0,0,0,4,3.72,34.71,34.71,0,0,0-1.77,4.39c-.39,1.62-.41,3.51-.69,5.18h0c-.85-.75-1.15-3.55-1.26-4.35-.46-3,0-5.12-1.42-7.67-1.1-2-3.13-2.61-4.64-.35-2,3,.5,7.44,2.27,9a37,37,0,0,0,4.8,3.28c.55.38.42.26.26.26-.3,2.29-.49,4.66-.86,6.89a16.54,16.54,0,0,1-2.13-3.84c-1.36-2.59-2-4.83-4.18-6.27a2.44,2.44,0,0,0-1.47-.65,2.66,2.66,0,0,0-2.78,2.57c-.53,3.64,2.71,6.35,5.31,7.19a32.4,32.4,0,0,0,5.32,1.09,21.83,21.83,0,0,1-2.23,7.67,17.24,17.24,0,0,1-1.9-3.35c-1.43-2.63-2.41-5-4.64-6.31-1.75-1.07-3.93-1-4.35,1.69-.59,3.7,2.81,6.11,5.43,7a36.12,36.12,0,0,0,5.31,1.13c-.4.61-.83,1.21-1.25,1.78-5.35-.25-11.35-.48-17.89-.69a34.11,34.11,0,0,0-1.11-5.85c.44-.59,2.07-1,2.53-1.11a7,7,0,0,0,4.23-2.59c.85-1.25,1.29-3.2-.48-4-2.35-1.17-4.48,1-5.15,3.09-.55,1.73-.59,3.09-1.17,4.6v-.11h0a19.08,19.08,0,0,0-3.54-5.39c.35-.63,2-1.28,2.39-1.51,1.72-1,3.13-1.54,3.9-3.32.53-1.44.53-3.22-1.24-3.84-2.43-.78-4.32,1.8-4.8,4a21.51,21.51,0,0,0-.34,4.6c-1.24-1.42-2.6-2.72-3.88-4.1a10.33,10.33,0,0,1,2-1.92c1.55-1.38,2.86-2.45,3.32-4.37.36-1.59.29-3.62-1.68-4-2.69-.55-3.86,3.11-4.05,5.47a19,19,0,0,0,.23,4.7,33.37,33.37,0,0,1-2.53-2.78,27.34,27.34,0,0,1-1.78-3.28h-.08c.35-.81,1.94-1.63,2.37-1.92,1.77-1.25,3.19-2.11,3.93-4.12.58-1.58.94-3.72-1-4.68-2.66-1.31-4.25,2.24-4.64,4.64-.32,1.9-.53,4-.71,5.9l-.21-.49a52.92,52.92,0,0,1-2.12-6.68h-.09v-.25a11,11,0,0,1,1.93-2.26,9.66,9.66,0,0,0,3.29-4.93c.37-1.72.57-4.12-1.54-4.79-2.87-.92-3.84,3-3.95,5.6a48.76,48.76,0,0,0,0,5.54c-.28-1.3-.53-2.59-.71-3.84h0a2.62,2.62,0,0,1-.1-.9,24.56,24.56,0,0,1,.39-3.41,14.06,14.06,0,0,0,.17-6.73c-.6-1.71-1.91-3-3.54-2.07-2.25,1.24-1.06,4.75,0,7.09.75,1.59,1.81,3.78,2.71,5.43.25,1.73.6,3.47,1,5.12a24,24,0,0,1-1.77-3c-1.31-2.21-2.09-4.56-4.33-5.43-1.78-.69-3.55,0-3.55,2.25,0,3,2.82,5.27,5.32,5.9a36.52,36.52,0,0,0,4.53.73,50.63,50.63,0,0,0,2.16,6.83,2.67,2.67,0,0,1,.14.36,14.9,14.9,0,0,1-2.3-2.13c-1.82-1.66-2.9-3.35-5.21-3.7-1.84-.26-3.24,1-2.74,3.17.65,3,3.74,4.25,6.21,4a20.93,20.93,0,0,0,4.2-1,28.37,28.37,0,0,0,1.77,3.37c.78,1.1,1.91,2,2.8,3h0c-.87.23-2.71-.93-3.26-1.23-2-1.15-3.08-2.55-5.31-2.78-1.75-.18-3.1,1-2.46,3.1.85,2.94,4.78,3.32,6.55,2.8a29,29,0,0,0,4.32-1.8c.5-.13.41,0,.28,0,1.23,1.32,2.57,2.63,3.74,4a10.71,10.71,0,0,1-3.29-.33c-2.29-.28-3.92-.92-5.83-.09a2,2,0,0,0-1.11.71,2.41,2.41,0,0,0,.17,3.22c1.91,2.19,5.14,1.23,6.91-.23a29,29,0,0,0,3.24-3.22,17,17,0,0,1,3.54,5.33,12.87,12.87,0,0,1-3-.29,10.47,10.47,0,0,0-6.07.21c-1.51.63-2.53,2.21-1.1,3.84,1.95,2.2,5.12,1,6.89-.44a31.82,31.82,0,0,0,3.31-3.26,32,32,0,0,1,1.13,5.75c-12.73-.42-27.57-.75-43.93-1a4.75,4.75,0,0,1-.12-.59,6.75,6.75,0,0,1,2.76,0,6.58,6.58,0,0,0,4.92-.73,2.23,2.23,0,0,0,.59-.43,2.64,2.64,0,0,0,.12-3.52c-1.74-2-4.57-.83-6,.8a19.42,19.42,0,0,0-2.45,3.84c-.4-1.92-1-3.84-1.41-5.75a9,9,0,0,1,2.6-.56,7.52,7.52,0,0,0,4.9-1.92c1.05-1.15,1.95-3,.43-4.39-2-2-4.78.58-6,2.49a17.67,17.67,0,0,0-2,4.17c-.27-1.31-.73-2.55-.89-3.84a35.13,35.13,0,0,1,0-3.84h0a7.55,7.55,0,0,1,2.91-.28,8,8,0,0,0,5.31-1.38c1.24-1.06,2.57-2.71,1.33-4.62-1.68-2.57-4.71-.45-6.18,1.47-1.15,1.48-2.3,3.13-3.36,4.7v-.54a52.32,52.32,0,0,1,1.27-6.92h0a.2.2,0,0,1,0-.11,1,1,0,0,1,0-.25,9.55,9.55,0,0,1,2.73-.87,8.71,8.71,0,0,0,5.13-2.47c1.14-1.29,2.41-3.24.91-5-2-2.36-4.73.5-6,2.69-.76,1.34-1.82,3.28-2.53,4.81.32-1.21.71-2.45,1.14-3.64h0a7.42,7.42,0,0,0,.3-.83,23,23,0,0,1,1.94-2.74,13.11,13.11,0,0,0,3.28-5.75c.3-1.79-.3-3.61-2.07-3.7-2.48-.16-3.12,3.53-3.28,6.11-.19,1.85-.19,4.26-.19,6.18-.6,1.63-1.1,3.34-1.56,5a31.06,31.06,0,0,1-.18-3.61c-.1-2.63.34-5.16-1.2-7.07-1.22-1.6-3-1.92-4.07,0-1.51,2.53,0,6.06,1.77,8a41.91,41.91,0,0,0,3.54,3.13,51.22,51.22,0,0,0-1.33,7.07V608a17.18,17.18,0,0,1-1-3.09c-.78-2.43-1-4.49-2.76-6a2.19,2.19,0,0,0-3.84,1.23c-.77,2.93,1.29,5.71,3.54,6.86a20.82,20.82,0,0,0,4.11,1.42,30.75,30.75,0,0,0,0,3.84c.17,1.34.72,2.78,1,4.14h0c-.86-.27-1.91-2.28-2.23-2.84-1.24-2.13-1.57-3.91-3.34-5.33-1.4-1.13-3.08-.88-3.54,1.32-.64,3,2.58,5.43,4.35,6a31,31,0,0,0,4.57.8c.51.12.41.12.27.12.44,1.8,1,3.66,1.38,5.46a12.12,12.12,0,0,1-2.71-2.09c-1.79-1.47-2.94-2.93-5-3.28-1.61-.27-3.1.71-2.64,2.88a4.35,4.35,0,0,0,2.52,3.05c-6.59-.1-13.41-.23-20.4-.23a27.78,27.78,0,0,0-.83-4.53c.31-.44,1.55-.73,1.89-.84a5.2,5.2,0,0,0,3.19-1.92c.64-.94.94-2.42-.37-3l-.22-.07a3,3,0,0,0-3.64,2.39c-.43,1.31-.45,2.32-.89,3.47v-.09h0a14.69,14.69,0,0,0-2.71-4.07c.23-.48,1.45-1,1.77-1.13,1.29-.73,2.36-1.15,2.92-2.51a1.66,1.66,0,0,0,.19-.43,2,2,0,0,0-1.11-2.43c-1.77-.59-3.18,1.36-3.54,3a15.39,15.39,0,0,0-.25,3.45c-.94-1.07-2-2.05-2.92-3.08a7.34,7.34,0,0,1,1.51-1.44c1.13-1,2.14-1.79,2.48-3.3.28-1.11.23-2.7-1.26-3-2-.42-2.91,2.34-3.05,4.1a14.88,14.88,0,0,0,.16,3.53c-.6-.71-1.34-1.32-1.89-2.09a19.94,19.94,0,0,1-1.33-2.45h0c.25-.56,1.45-1.17,1.77-1.38,1.33-.94,2.39-1.6,2.94-3.09.44-1.19.73-2.82-.74-3.55-2-1-3.25,1.59-3.55,3.51-.23,1.42-.39,3-.51,4.43-.06-.12-.11-.24-.16-.36a37.77,37.77,0,0,1-1.61-5h0a.31.31,0,0,1,0-.19,8.5,8.5,0,0,1,1.47-1.69,7.4,7.4,0,0,0,2.46-3.7c.28-1.3.43-3.11-1.15-3.6-2.16-.71-3,2.3-3,4.22-.08,1.18,0,2.87,0,4.14-.21-.9-.38-1.88-.53-2.82h0v-.67a18.66,18.66,0,0,1,.29-2.59,10.4,10.4,0,0,0,.14-5.05c-.44-1.28-1.44-2.24-2.66-1.55-1.77.92-.79,3.57,0,5.31.57,1.25,1.37,2.84,2,4.09.19,1.28.46,2.61.72,3.83a22.33,22.33,0,0,1-1.38-2.26c-1-1.67-1.48-3.45-3.25-4.1-1.35-.52-2.64,0-2.64,1.7-.07,2.25,2.09,4,4,4.43a28,28,0,0,0,3.4.56,41.4,41.4,0,0,0,1.61,5.14,1.12,1.12,0,0,1,.11.25,10.65,10.65,0,0,1-1.77-1.59c-1.35-1.27-2.14-2.53-3.92-2.78a1.77,1.77,0,0,0-2.05,2.37,4.24,4.24,0,0,0,4.68,3,16.48,16.48,0,0,0,3.15-.78,19.83,19.83,0,0,0,1.36,2.53c.59.8,1.44,1.51,2.11,2.28h0c-.66.17-2-.69-2.43-.92-1.54-.88-2.37-1.92-4-2.09-1.32-.13-2.33.71-1.85,2.34.63,2.2,3.54,2.47,4.92,2.09a26.28,26.28,0,0,0,3.26-1.34c.37-.12.3,0,.21,0,.92,1,1.93,1.95,2.81,3a8.41,8.41,0,0,1-2.49-.25,8,8,0,0,0-4.38,0,1.54,1.54,0,0,0-.85.55,1.78,1.78,0,0,0,.15,2.4c1.43,1.65,3.86.92,5.2-.15a24.34,24.34,0,0,0,2.43-2.44,12.91,12.91,0,0,1,2.67,4,9.15,9.15,0,0,1-2.21-.21,7.91,7.91,0,0,0-4.57.15c-1.13.54-1.91,1.71-.83,2.94,1.47,1.59,3.8.75,5.19-.33a23,23,0,0,0,2.49-2.45,24.63,24.63,0,0,1,.85,4.5c-12.09-.15-24.72-.15-37.72-.15h-8.85a5.69,5.69,0,0,0-4.82-.5,13.21,13.21,0,0,0-1.31.52h-3A31,31,0,0,0,373.1,616c.84-.09,2.61,1.15,3.12,1.42,2.13,1.15,3.68,2.23,5.88,1.73,1.74-.39,3.33-1.75,2.55-4.11-1-3.16-4.75-3.27-7.08-2.18a21.64,21.64,0,0,0-4.43,3c.39-2.36.57-4.76.9-7.13a11.32,11.32,0,0,1,3.19.7c2.37.62,4.25,1.31,6.39.33,1.7-.77,3.51-2.32,2.43-4.74-1.44-3.27-5.63-1.84-7.9-.3a20.36,20.36,0,0,0-4.11,3.66c.15-1.58.37-3.16.66-4.72a40.27,40.27,0,0,1,1.77-4.29h0v-.12h0a9,9,0,0,1,3.4,1.17c2.42,1,4.25,1.86,6.6,1.19,1.88-.54,4.11-1.74,3.55-4.52-.77-3.78-5.14-2.88-7.62-1.54-1.95,1.06-4,2.34-5.86,3.57.09-.19.18-.39.28-.58a60.81,60.81,0,0,1,4.5-7.17h0c0-.15,0-.1,0-.15a1.25,1.25,0,0,1,.2-.23,11.18,11.18,0,0,1,3.54.4c2.64.48,4.57,1,6.9-.12,1.84-.86,4.15-2.39,3.21-5.15-1.26-3.72-5.54-1.88-8-.1-1.43,1.11-3.49,2.76-5,4.12.92-1.19,1.89-2.39,2.88-3.51h0c.09-.09.62-.78.73-.78a24.82,24.82,0,0,1,3.4-2.09c2.48-1.4,4.8-2.38,6.21-4.74,1.08-1.86,1.33-4.2-.69-5.25-2.76-1.46-5.08,2.36-6.42,5.21-.94,2-2.09,4.68-2.94,6.87-1.39,1.51-2.71,3.18-3.94,4.77a32,32,0,0,1,1.4-4.18c1.07-3,2.64-5.56,1.77-8.59-.67-2.4-2.55-3.62-4.6-2.09-2.78,2.09-2.74,6.83-1.49,10a54.19,54.19,0,0,0,3.3,4.36,57.71,57.71,0,0,0-4.61,7.28c-.09.16-.21.43-.21.43a20.11,20.11,0,0,1,.23-4c.19-3.15.94-5.54-.46-8.25a2.93,2.93,0,0,0-1-1.4,2.63,2.63,0,0,0-3.83.81c-2.23,2.93-1.13,7.13.9,9.59a27.09,27.09,0,0,0,4,3.72,35.05,35.05,0,0,0-1.78,4.39c-.4,1.61-.42,3.51-.69,5.18h0c-.85-.75-1.13-3.55-1.25-4.36-.46-2.93,0-5.12-1.42-7.67-1.08-2-3.13-2.61-4.62-.34-2,3,.49,7.44,2.26,9a39.94,39.94,0,0,0,4.79,3.3c.54.38.42.27.26.27-.3,2.26-.49,4.64-.85,6.86a16.06,16.06,0,0,1-2.14-3.74c-1.36-2.61-2-4.83-4.16-6.29-1.7-1.09-3.83-.76-4.25,1.92a6.08,6.08,0,0,0,2.67,5.75,2.43,2.43,0,0,0-1.68,0,3,3,0,0,0-2.07,0,4.34,4.34,0,0,0,.65-1.49c.36-1.34.25-3-1.41-3.4-2.25-.48-3.24,2.65-3.39,4.57a16.34,16.34,0,0,0,.18,3.95c-.69-.79-1.52-1.48-2.12-2.32a22.24,22.24,0,0,1-1.49-2.76h0c.21-.62,1.63-1.31,2-1.56,1.54-1,2.69-1.76,3.31-3.45.48-1.32.8-3.12-.85-3.93-2.23-1.17-3.57,1.8-3.89,3.83-.27,1.58-.45,3.32-.61,5l-.17-.42a43.15,43.15,0,0,1-1.77-5.62h0a.45.45,0,0,1,0-.23,8.6,8.6,0,0,1,1.63-1.92,8.17,8.17,0,0,0,2.76-4.14c.3-1.46.48-3.47-1.29-4-2.41-.78-3.24,2.52-3.33,4.7a35.92,35.92,0,0,0,0,4.64c-.23-1-.45-2.09-.61-3.14h0c0-.08-.1-.63-.1-.75a19.84,19.84,0,0,1,.33-2.88,11.66,11.66,0,0,0,.15-5.63c-.5-1.44-1.6-2.52-3-1.75-1.88,1.06-.9,4.05,0,6,.62,1.38,1.52,3.16,2.28,4.56.2,1.44.5,2.91.82,4.29a18.18,18.18,0,0,1-1.54-2.55c-1.12-1.84-1.77-3.83-3.65-4.56-1.51-.56-2.94,0-2.94,1.92-.09,2.49,2.32,4.41,4.43,5a38.35,38.35,0,0,0,3.79.63,43.93,43.93,0,0,0,1.77,5.75.49.49,0,0,1,.12.31,12.67,12.67,0,0,1-1.95-1.79c-1.52-1.41-2.42-2.83-4.37-3.1-1.54-.23-2.71.73-2.3,2.64a4.72,4.72,0,0,0,5.22,3.38,17.25,17.25,0,0,0,3.54-.86,24.05,24.05,0,0,0,1.53,2.83,27.62,27.62,0,0,0,2.35,2.54h0c-.72.19-2.27-.77-2.73-1-1.71-1-2.62-2.13-4.49-2.32-1.49-.15-2.61.69-2.08,2.61.71,2.45,4,2.76,5.51,2.34a25.56,25.56,0,0,0,3.63-1.52c.41-.11.34,0,.23,0,1,1.12,2.16,2.21,3.14,3.32a9.25,9.25,0,0,1-2.77-.27,8.87,8.87,0,0,0-4.9,0,2,2,0,0,0-1.36,2l-22.19.25a3.48,3.48,0,0,0-4.31-2.11c-1.38.37-2.28,1-3.54,1.21h0a17.29,17.29,0,0,0,1.77-5.23c.57,0,1.74.92,2.07,1.13a5.58,5.58,0,0,0,4,1.44,2.08,2.08,0,0,0,1.92-2.69c-.61-2.22-3.16-2.45-4.8-1.82a14.3,14.3,0,0,0-3.14,1.92c.36-1.61.57-3.24.89-4.85a7.27,7.27,0,0,1,2.16.65,6.32,6.32,0,0,0,4.35.52c1.19-.46,2.48-1.44,1.86-3.15-.86-2.3-3.79-1.51-5.4-.57a13.13,13.13,0,0,0-2.95,2.32c.23-1.06.31-2.19.63-3.21a28.45,28.45,0,0,1,1.33-2.85h0a6,6,0,0,1,2.29,1,6.63,6.63,0,0,0,4.48,1.11c1.29-.29,2.85-1,2.58-2.94-.37-2.6-3.38-2.2-5.15-1.4-1.38.64-2.82,1.42-4.16,2.17l.23-.38a41.31,41.31,0,0,1,3.36-4.7h0c0-.1,0-.06,0-.1a1.08,1.08,0,0,1,.14-.15,7.76,7.76,0,0,1,2.34.44,7.25,7.25,0,0,0,4.73.25c1.29-.52,2.92-1.46,2.41-3.38-.73-2.6-3.69-1.57-5.46-.44-1,.66-2.48,1.73-3.54,2.57.67-.76,1.38-1.55,2.11-2.26h0l.51-.5a20.6,20.6,0,0,1,2.41-1.28,9.92,9.92,0,0,0,4.45-2.94c.85-1.22,1.08-2.82-.27-3.64-1.82-1.11-3.56,1.36-4.59,3.28-.72,1.32-1.63,3.09-2.28,4.54-1,1-2,2.06-2.89,3.09a23.06,23.06,0,0,1,1.12-2.78c.83-1.92,2-3.64,1.54-5.75-.37-1.63-1.59-2.59-3.06-1.63-2,1.28-2.15,4.52-1.42,6.73a39,39,0,0,0,1.59,3.83,40.72,40.72,0,0,0-3.43,4.78l-.16.27a13.22,13.22,0,0,1,.32-2.73c.23-2.22.83-3.83,0-5.75a2.18,2.18,0,0,0-.65-1,1.82,1.82,0,0,0-2.68.37,5.48,5.48,0,0,0,.25,6.58,19.28,19.28,0,0,0,2.6,2.74,23.42,23.42,0,0,0-1.37,2.91c-.33,1.08-.42,2.38-.67,3.51h0c-.55-.55-.69-2.47-.69-3-.18-2.09.21-3.56-.65-5.37-.69-1.42-2-1.93-3.16-.46-1.5,2,0,5.12,1.19,6.27a28.6,28.6,0,0,0,3.15,2.48c.36.19.29.19.18.19-.3,1.55-.53,3.16-.87,4.66a12.11,12.11,0,0,1-1.31-2.65c-.83-1.84-1.18-3.41-2.6-4.48a1.62,1.62,0,0,0-.45-.34,1.72,1.72,0,0,0-2.37.89c-1.64,0-2.9,1.88-3.24,3.47a17,17,0,0,0-.28,3.84c-1-1.21-2.2-2.28-3.26-3.45a8.82,8.82,0,0,1,1.67-1.62c1.29-1.15,2.4-2,2.78-3.68.37-1.32.26-3-1.4-3.37-2.27-.48-3.26,2.64-3.4,4.56a15.82,15.82,0,0,0,.17,3.95,29,29,0,0,1-2.12-2.32,25.24,25.24,0,0,1-1.49-2.76h0c.23-.61,1.63-1.3,2-1.55,1.52-1,2.68-1.77,3.3-3.45.49-1.33.79-3.13-.85-3.94-2.24-1.17-3.56,1.81-3.9,3.84-.27,1.57-.44,3.32-.6,4.95l-.18-.42a45.8,45.8,0,0,1-1.77-5.62h0v-.23a9.16,9.16,0,0,1,1.63-1.92,8.25,8.25,0,0,0,2.76-4.14c.32-1.46.48-3.47-1.29-4-2.41-.79-3.33,2.51-3.33,4.7-.09,1.34,0,3.22,0,4.64-.23-1-.44-2.09-.6-3.15h0a7.26,7.26,0,0,1-.11-.74,19.85,19.85,0,0,1,.34-2.88,11.58,11.58,0,0,0,.14-5.64c-.48-1.44-1.58-2.51-3-1.74-1.87,1-.88,4,0,6,.64,1.38,1.53,3.16,2.29,4.56.21,1.44.51,2.92.81,4.3a21.85,21.85,0,0,1-1.54-2.55c-1.12-1.84-1.75-3.84-3.65-4.56-1.5-.56-2.94,0-2.94,1.91-.09,2.5,2.34,4.41,4.43,5a30.83,30.83,0,0,0,3.81.61,42.16,42.16,0,0,0,1.77,5.76,2.49,2.49,0,0,0,.12.3,13.07,13.07,0,0,1-2-1.78c-1.5-1.42-2.42-2.84-4.37-3.11a1.75,1.75,0,0,0-1.13,0,2.1,2.1,0,0,0-1.17,2.61,4.73,4.73,0,0,0,5.22,3.38,18,18,0,0,0,3.54-.87,24.06,24.06,0,0,0,1.51,2.84,27.53,27.53,0,0,0,2.35,2.53h0c-.74.19-2.28-.77-2.72-1-1.72-1-2.64-2.13-4.52-2.32-1.49-.16-2.6.69-2.07,2.6.71,2.46,4,2.77,5.51,2.34a24.93,24.93,0,0,0,3.54-1.51c.41-.12.33,0,.23,0,1,1.11,2.16,2.2,3.15,3.32a9.32,9.32,0,0,1-2.78-.27,8.84,8.84,0,0,0-4.89,0,2,2,0,0,0-.79,3.3c1.61,1.84,4.3,1,5.8-.2a24.85,24.85,0,0,0,2.73-2.7,14.55,14.55,0,0,1,3,4.47,11.6,11.6,0,0,1-2.49-.23,8.78,8.78,0,0,0-5.1.17,2.51,2.51,0,0,0-1.4,1.44c-19.55.38-36.27.92-48.91,1.55a2.29,2.29,0,0,0-2.94-1.57c-.92.25-1.54.65-2.39.82h0a11.89,11.89,0,0,0,1.26-3.56c.39,0,1.18.63,1.41.76a3.74,3.74,0,0,0,2.68,1,1.39,1.39,0,0,0,1.29-1.82c-.39-1.49-2.14-1.67-3.24-1.25a10.07,10.07,0,0,0-2.14,1.27c.24-1.09.39-2.19.6-3.28a5.48,5.48,0,0,1,1.47.42,4.11,4.11,0,0,0,2.95.37c.82-.31,1.7-1,1.26-2.13-.58-1.57-2.57-1-3.66-.4a9.75,9.75,0,0,0-2,1.57,18.92,18.92,0,0,1,.42-2.17c.23-.67.62-1.26.9-1.92h0c.43,0,1.28.52,1.54.66a4.44,4.44,0,0,0,3,.74c.89-.13,2-.61,1.77-1.91-.28-1.79-2.62-1.38-3.54-1s-1.91,1-2.82,1.47l.14-.26a31.83,31.83,0,0,1,2.29-3.19h0l.11-.09a5.77,5.77,0,0,1,1.59.28,4.76,4.76,0,0,0,3.2.18c.89-.39,2-1,1.63-2.3-.47-1.77-2.51-1.06-3.7-.29-.65.46-1.7,1.17-2.42,1.74.46-.52.94-1.05,1.43-1.53h0l.36-.35a14.79,14.79,0,0,1,1.62-.86,6.53,6.53,0,0,0,3-1.92c.57-.82.73-1.9-.17-2.47-1.24-.75-2.43.94-3.14,2.22-.48.9-1.1,2.11-1.54,3.11-.69.65-1.35,1.38-2,2.09a17.88,17.88,0,0,1,.77-1.92c.56-1.36,1.34-2.82,1-3.93s-1.08-1.76-2.07-1.11a4.05,4.05,0,0,0-1,4.56,27.83,27.83,0,0,0,1.08,2.57,27.71,27.71,0,0,0-2.33,3.24.23.23,0,0,0-.13.2,9.51,9.51,0,0,1,.23-1.92,6.61,6.61,0,0,0,0-3.84,1.49,1.49,0,0,0-.43-.67,1.24,1.24,0,0,0-1.82.25,3.77,3.77,0,0,0,.16,4.47,13.44,13.44,0,0,0,1.77,1.92,17.69,17.69,0,0,0-.92,1.91c-.19.79-.34,1.58-.46,2.38h0c-.39-.36-.48-1.69-.48-2a9.33,9.33,0,0,0-.44-3.64c-.46-1-1.38-1.33-2.14-.31-1,1.34,0,3.47.81,4.26a18,18,0,0,0,2.13,1.67c.25.13.12.13.12.13-.21,1.05-.35,2.15-.58,3.16a6.87,6.87,0,0,1-.89-1.8,7.1,7.1,0,0,0-1.77-3,1.24,1.24,0,0,0-.35-.25,1.15,1.15,0,0,0-1.56.65c-1.13,0-2,1.27-2.21,2.34a12.23,12.23,0,0,0-.2,2.63c-.71-.8-1.49-1.55-2.2-2.34a5.26,5.26,0,0,1,1.12-1.09,4.81,4.81,0,0,0,1.9-2.49c.21-.91.17-2.08-1-2.31-1.52-.32-2.2,1.77-2.3,3.11a10.11,10.11,0,0,0,.12,2.69,13.08,13.08,0,0,1-1.45-1.6c-.41-.63-.66-1.3-1-1.91h0c.19-.43,1.12-.89,1.35-1.06a5.77,5.77,0,0,0,2.24-2.34c.34-.9.54-2.13-.58-2.68-1.51-.73-2.43,1.28-2.64,2.66-.18,1.08-.3,2.25-.41,3.36l-.12-.29a34.1,34.1,0,0,1-1.22-3.83h0a.33.33,0,0,1,0-.14,6,6,0,0,1,1.11-1.28,5.57,5.57,0,0,0,1.88-2.82c.21-1,.32-2.36-.88-2.74-1.63-.52-2.25,1.72-2.25,3.2V610c-.16-.69-.3-1.42-.41-2.13h0v-.51a15.24,15.24,0,0,1,.21-1.92,8.17,8.17,0,0,0,.11-3.84c-.34-1-1.08-1.7-2-1.17-1.28.71-.6,2.71,0,4,.42.94,1,2.17,1.56,3.11.14,1,.33,2,.55,2.91a11.13,11.13,0,0,1-1.05-1.72c-.71-1.17-1.45-2.69-2.48-3.09s-2,0-2,1.28c-.05,1.69,1.58,3,3,3.36a22.9,22.9,0,0,0,2.59.42,26.79,26.79,0,0,0,1.22,3.84l.09.21a8,8,0,0,1-1.31-1.23c-1.05-.94-1.67-1.92-3-2.11a1.21,1.21,0,0,0-.75,0,1.45,1.45,0,0,0-.82,1.79,3.25,3.25,0,0,0,3.54,2.29,11.16,11.16,0,0,0,2.39-.6,15.39,15.39,0,0,0,1,1.92c.44.59,1.09,1.13,1.59,1.71h0c-.43.13-1.47-.52-1.77-.69-1.17-.66-2.06-1.46-3.07-1.6s-1.77.54-1.41,1.79c.49,1.59,2.69,1.88,3.73,1.59a16.27,16.27,0,0,0,2.48-1c.29-.09.16,0,.16,0,.69.75,1.47,1.5,2.13,2.27a6.65,6.65,0,0,1-1.88-.2,6.08,6.08,0,0,0-3.33,0,1.24,1.24,0,0,0-.63.41,1.38,1.38,0,0,0,.1,1.84,2.87,2.87,0,0,0,3.93-.14,16,16,0,0,0,1.77-1.91,9.62,9.62,0,0,1,2,3,6.19,6.19,0,0,1-1.77-.17,6,6,0,0,0-3.45.12c-.73.36-1.26,1-.91,1.82C235.83,626.26,232,626.9,231.79,627.09Zm224.14-4.24h-2l1.93-.54Zm66.49,1.94-3.81-.19,1.12-1.56C520.51,623.06,521.82,624.27,522.42,624.79Zm-274.76.53c.44-.42.81-.86,1.27-1.32a10.68,10.68,0,0,1,.3,1.21l-1.57.11Zm2.44-6.57a5.13,5.13,0,0,0,1.12.73,1.64,1.64,0,0,0-.55.36,4.28,4.28,0,0,0-.8-.79h-.1l.33-.3Zm2.52,5.14c-.32.42-.66.8-1,1.19l-2.25.13c-.09-.4-.18-.83-.3-1.23.24-.34,1.18-.55,1.45-.65A20.72,20.72,0,0,0,252.62,623.89ZM247,620.8a2.15,2.15,0,0,1,.8-.67,3.11,3.11,0,0,0,1.61,2.59,6.54,6.54,0,0,1-.32,1.15h0A11.43,11.43,0,0,0,247,620.8Zm6.92-.52a10.15,10.15,0,0,1-1.22,3.53,4.2,4.2,0,0,1-.58-1.11,2.78,2.78,0,0,0,.88-.83,1.91,1.91,0,0,0,.3-1.7l.64.15Zm-1.18,3.84c.37,0,1,.57,1.25.82l-2.1.12c.3-.33.58-.68.86-1ZM316,622c.11.36.2.73.28,1.07H315Zm1.7-7.77a6.44,6.44,0,0,0,1.65,1.15,4.47,4.47,0,0,0-.82.54,4.74,4.74,0,0,0-1.15-1.13l-.14-.1a2.32,2.32,0,0,0,.48-.46Zm.66,6.83c1,.36,2,.52,3.06.81-.3.4-.62.78-.94,1.17h-4c-.09-.37-.18-.73-.29-1.12.37-.5,1.76-.78,2.15-.92Zm-5.26-3.82a2.74,2.74,0,0,1,1.06-1,4.51,4.51,0,0,0,2.39,3.83,12.69,12.69,0,0,1-.46,1.71v-.1h0a16.23,16.23,0,0,0-3.05-4.54Zm10.18-.74a15.39,15.39,0,0,1-1.88,5.12,6.66,6.66,0,0,1-.85-1.63,4.16,4.16,0,0,0,1.29-1.25,2.77,2.77,0,0,0,.45-2.49l.94.21Zm-1.74,5.5a3.15,3.15,0,0,1,1.3.9h-2.18l.79-1Zm40.59.46c-.42-.58-.89-1.13-1.36-1.71a1.81,1.81,0,0,1,.53-.5,9.53,9.53,0,0,0,3.24,2.19Zm-1.52-1.59c.44.52.88,1,1.29,1.57h-2.78Zm-3.08-3.53a8.82,8.82,0,0,1,1.57-1.71c.29-.27.57-.51.85-.74a4.08,4.08,0,0,0-.21.78,5.17,5.17,0,0,0,1,3.84v1.17c-1.05-1.19-2.2-2.29-3.26-3.46ZM373,616a28.59,28.59,0,0,1-1.54,6.4h-1.63l-.14-.27c.64-1,.87-2.55-.52-3.22a2.42,2.42,0,0,0-1.27-.25,21.86,21.86,0,0,0-1.61-2.68,2.24,2.24,0,0,0-.32-1.92,7,7,0,0,0,1.63.73,33.36,33.36,0,0,0,5.31,1.09Z" fill="#e6e7e8"/><path d="M480.33,628.74c0,4.47-103.19,8-230.48,8-34.35,0-66.95-.26-96.24-.72a50.65,50.65,0,0,0,2.37,6.3l-.28.26a49.63,49.63,0,0,1-2.46-6.56c-79-1.25-133.86-4.05-133.86-7.29,0-1.25,8.4-2.46,23.34-3.5a6.22,6.22,0,0,1,0-2c1-5.17,6.16-6.22,9.62-5,2.87,1.05,4.72,2.54,7.35,3.3.17.06-.08-.18-.11-.18h0a40.36,40.36,0,0,1-3.29-12.08c-1.21-.14-3.81,1.8-4.56,2.22-3.11,1.77-5.38,3.42-8.58,2.66-2.54-.61-4.86-2.7-3.72-6.35,1.57-4.93,7-5.09,10.43-3.4a31.93,31.93,0,0,1,6.44,4.67c-.55-3.66-.81-7.39-1.31-11a14.84,14.84,0,0,0-4.64,1.11c-3.47.94-6.21,2-9.35.48-2.48-1.19-5.1-3.6-3.54-7.35,2.11-5.07,8.24-2.84,11.55-.48a31.07,31.07,0,0,1,6,5.7c-.21-2.46-.53-4.91-1-7.33a62.71,62.71,0,0,0-2.46-6.64h-.12a.74.74,0,0,0,0-.21h0c-1.33-.18-4.13,1.45-5,1.84-3.54,1.51-6.21,2.86-9.65,1.81-2.73-.83-6-2.68-5.15-7,1.11-5.84,7.61-4.37,11.16-2.35,2.83,1.63,5.8,3.6,8.55,5.51a9.3,9.3,0,0,0-.43-.9,94.58,94.58,0,0,0-6.57-11.11v.12a.53.53,0,0,0,0-.25,2.68,2.68,0,0,0-.28-.36,15.76,15.76,0,0,0-5,.65c-3.86.74-6.67,1.53-10.07-.19-2.69-1.4-6.08-3.78-4.71-8,1.84-5.76,8.13-2.94,11.67-.14,2.17,1.71,5.11,4.35,7.27,6.36-1.32-1.85-2.76-3.7-4.21-5.43h0c-.11-.14-.89-1.05-1-1.21a36.89,36.89,0,0,0-5-3.24c-3.63-2.16-7-3.69-9.1-7.33-1.65-2.9-1.93-6.5,1-8.17,4.08-2.28,7.42,3.64,9.39,8.05,1.38,3.1,3.06,7.25,4.29,10.63,2,2.37,4,4.95,5.75,7.41a50.52,50.52,0,0,0-2-6.46c-1.52-4.68-3.82-8.64-2.56-13.33,1-3.73,3.71-5.6,6.73-3.22,4.05,3.22,3.94,10.57,2.17,15.4a89.31,89.31,0,0,1-3.86,8.29A94.19,94.19,0,0,1,51.54,582c.09.21.19.42.3.62a33.85,33.85,0,0,0-.34-6.2c-.28-4.89-1.36-8.6.66-12.78,1.56-3.33,4.69-4.25,7.08-.93,3.24,4.47,1.67,11-1.33,14.8a40.79,40.79,0,0,1-5.86,5.75,59.07,59.07,0,0,1,2.54,6.81c.58,2.51.62,5.45,1,8h0c1.17-1.17,1.6-5.5,1.78-6.74.65-4.77,0-8.16,2.05-12.08,1.65-3.12,4.59-4,6.78-.55,3,4.74-.67,11.52-3.31,14a60,60,0,0,1-7.08,5.09c-.8.58-.6.52-.37.4.42,3.52.7,7.23,1.24,10.67a25,25,0,0,0,3.11-5.82c2-4,3-7.49,6.11-9.72,2.48-1.77,5.56-1.25,6.2,2.92.87,5.64-3.86,9.84-7.69,11.13a48.06,48.06,0,0,1-7.75,1.69A36.45,36.45,0,0,0,59.92,621a28.26,28.26,0,0,0,2.79-5.21c2.08-4,3.51-7.75,6.77-9.77,2.57-1.67,5.74-1.59,6.36,2.62.9,5.72-4.11,9.46-8,10.87A48.51,48.51,0,0,1,60,621.29c.53,1,1.15,1.87,1.77,2.76,7.83-.38,16.58-.75,26.16-1.07a55.74,55.74,0,0,1,1.63-9.08c-.64-.92-3-1.49-3.72-1.73-2.66-1-4.64-1.57-6.2-4-1.22-1.94-1.81-5,.73-6.28,3.43-1.78,6.55,1.61,7.52,4.81.87,2.65.94,4.77,1.77,7.12v-.18h.09a30.07,30.07,0,0,1,5.31-8.35c-.56-1-2.92-2-3.54-2.36-2.51-1.47-4.58-2.37-5.7-5.15-.92-2.2-.85-5,1.77-5.88,3.54-1.25,6.39,2.78,7.08,6.16a34.88,34.88,0,0,1,.5,7.15C97,603,99,601,100.86,598.81a15.41,15.41,0,0,0-2.91-3c-2.23-2.16-4.18-3.69-4.83-6.79-.53-2.45-.44-5.59,2.44-6.26,3.93-.88,5.65,4.81,5.92,8.46a31.12,31.12,0,0,1-.32,7.28c1.2-1.45,2.64-2.73,3.7-4.3a46.55,46.55,0,0,0,2.58-5.08h0c-.58-1.12-2.92-2.37-3.54-2.84-2.6-1.93-4.66-3.28-5.74-6.38-.87-2.43-1.4-5.78,1.47-7.26,3.88-2,6.2,3.48,6.78,7.2.45,2.94.78,6.14,1,9.14l.32-.76a87,87,0,0,0,3.12-10.35h-.11c.12-.12.12,0,.12-.12v-.4a16.32,16.32,0,0,0-2.83-3.49c-2.3-2.51-4.13-4.24-4.8-7.65-.55-2.67-.83-6.38,2.25-7.43,4.18-1.36,5.63,4.68,5.77,8.7.09,2.52.06,5.94-.09,8.56.43-1.9.78-3.79,1-5.8h0c0-.16.18-1.19.18-1.37a39.21,39.21,0,0,0-.59-5.31c-.53-3.79-1.31-7.09-.25-10.43.85-2.64,2.77-4.61,5.16-3.2,3.27,1.93,1.56,7.37,0,11-1.1,2.56-2.64,5.84-4,8.41-.37,2.68-.88,5.38-1.42,7.94a36.81,36.81,0,0,0,2.68-4.7c1.93-3.42,3.06-7.08,6.36-8.43,2.6-1,5,.08,5.11,3.5.14,4.63-4.05,8.16-7.72,9.14a55.23,55.23,0,0,1-6.6,1.15,84.17,84.17,0,0,1-3.17,10.57,3.83,3.83,0,0,0-.2.54,23.18,23.18,0,0,0,3.37-3.28c2.65-2.6,4.23-5.21,7.61-5.74a2.93,2.93,0,0,1,2,.09,3.92,3.92,0,0,1,2,4.83c-1,4.61-5.54,6.6-9.08,6.22a30.07,30.07,0,0,1-6.15-1.59,46.19,46.19,0,0,1-2.63,5.21c-1.14,1.65-2.8,3.12-4.09,4.67h0c1.2.36,3.94-1.43,4.74-1.91,3-1.79,4.59-4,7.85-4.31,2.49-.28,4.46,1.47,3.54,4.83-1.26,4.53-6.91,5.11-9.58,4.33a42.81,42.81,0,0,1-6.32-2.8c-.73-.22-.61-.12-.43,0-1.79,2-3.68,4-5.45,6a14.89,14.89,0,0,0,4.83-.5c3.19-.45,5.7-1.41,8.5-.14a3.66,3.66,0,0,1,1.38,6c-2.8,3.41-7.51,1.9-10.11-.34a47.63,47.63,0,0,1-4.73-5A26.33,26.33,0,0,0,89.9,614a18,18,0,0,0,4.32-.44c3.31-.42,6.07-1.11,8.85.3,2.2,1.09,3.7,3.51,1.61,6-2.85,3.34-7.4,1.51-10.07-.68a49.37,49.37,0,0,1-4.84-5.06,51.48,51.48,0,0,0-1.64,9c18.61-.62,40.28-1.16,64.21-1.55a5.54,5.54,0,0,0,.17-.92,9.14,9.14,0,0,0-4,0c-2.84.2-5,.6-7.19-1.13-1.74-1.39-2.91-3.8-1-6.14,2.6-3.14,6.77-1.25,8.86,1.25a30.21,30.21,0,0,1,3.54,5.88c.6-3,1.43-5.86,2.07-8.78a12.22,12.22,0,0,0-3.79-.87c-2.89-.56-5.22-.76-7.17-3.06-1.54-1.79-2.85-4.57-.64-6.82,3-3,7.08.89,8.85,3.86a29.59,29.59,0,0,1,2.94,6.47c.39-1.94,1.08-3.83,1.3-5.84a58.05,58.05,0,0,0,0-5.9h-.11v-.12h0a9.75,9.75,0,0,0-4.25-.44c-3.08-.16-5.45-.16-7.76-2.18-1.8-1.61-3.7-4.18-1.93-7.12,2.46-4,6.89-.61,9,2.29,1.69,2.26,3.37,4.83,4.91,7.27v-.83a88.25,88.25,0,0,0-1.77-10.75h-.09a.67.67,0,0,0,0-.2,2.5,2.5,0,0,0-.12-.36,12.74,12.74,0,0,0-4-1.37c-3.1-.85-5.44-1.29-7.53-3.8-1.64-2-3.52-5-1.31-7.73,3-3.67,7,.74,8.86,4.14,1.17,2.1,2.65,5.1,3.7,7.45-.48-1.87-1.05-3.8-1.67-5.64h0c0-.14-.46-1.1-.46-1.28a33.38,33.38,0,0,0-2.83-4.25c-2.12-3-4.25-5.34-4.8-8.84-.51-2.78.34-5.6,3-5.76,3.65-.22,4.55,5.48,4.82,9.5.17,2.84.28,6.57.28,9.57.85,2.51,1.59,5.15,2.27,7.67a45.86,45.86,0,0,0,.24-5.62c.16-4.07-.47-7.87,1.77-11,1.78-2.46,4.36-2.88,6,0,2.17,3.9.09,9.4-2.63,12.38a67,67,0,0,1-5.19,4.81,89.89,89.89,0,0,1,1.93,11,5.81,5.81,0,0,0,0,.59A30.16,30.16,0,0,0,158,594.2c1.13-3.79,1.34-7,4-9.37a3.16,3.16,0,0,1,1.81-1.11,3.33,3.33,0,0,1,3.8,3c1.19,4.61-1.81,8.87-5.1,10.65a29.19,29.19,0,0,1-6,2.19,50.71,50.71,0,0,1,0,6c-.25,2.07-1.05,4.39-1.47,6.4h0c1.25-.36,2.78-3.52,3.25-4.39,1.79-3.28,2.22-6.08,4.87-8.27,2.18-1.77,4.64-1.41,5.32,2,.92,4.65-3.7,8.44-6.36,9.3a41.41,41.41,0,0,1-6.68,1.27c-.78.16-.6.16-.4.16-.64,2.82-1.46,5.7-2,8.48a17.1,17.1,0,0,0,3.94-3.24c2.63-2.28,4.3-4.53,7.27-5.08,2.38-.4,4.54,1.09,3.86,4.47a6.56,6.56,0,0,1-3.66,4.69c9.63-.12,19.58-.32,29.8-.32a42.81,42.81,0,0,1,1.24-7.05c-.48-.68-2.28-1.1-2.8-1.28a7.66,7.66,0,0,1-4.65-3c-.92-1.47-1.37-3.75.55-4.73,2.58-1.35,4.92,1.18,5.64,3.6.62,2,.66,3.6,1.3,5.37v-.14h0a22.74,22.74,0,0,1,4-6.28c-.37-.74-2.16-1.51-2.6-1.77-1.89-1.11-3.45-1.85-4.3-3.86-.66-1.68-.62-3.75,1.36-4.43,2.71-.95,4.78,2.09,5.31,4.63a25.37,25.37,0,0,1,.38,5.37c1.36-1.67,2.86-3.18,4.25-4.79a11.53,11.53,0,0,0-2.18-2.23c-1.6-1.61-3.05-2.78-3.54-5.1-.48-1.85-.41-4.2,1.77-4.71,2.94-.66,4.23,3.63,4.44,6.36a24.51,24.51,0,0,1-.25,5.48,42.46,42.46,0,0,0,2.78-3.24,37.21,37.21,0,0,0,2-3.83H209c-.37-.84-2.15-1.79-2.61-2.13a10.07,10.07,0,0,1-4.32-4.79c-.65-1.85-1-4.35,1.12-5.48,2.9-1.51,4.66,2.62,5.1,5.44.34,2.19.57,4.61.76,6.86a1.56,1.56,0,0,0,.23-.58,62.54,62.54,0,0,0,2.36-7.79h0v-.1a1.31,1.31,0,0,0,0-.28,12.51,12.51,0,0,0-2.13-2.64,11.55,11.55,0,0,1-3.54-5.76c-.34-2-.55-4.79,1.77-5.58,3.15-1.06,4.23,3.51,4.34,6.55a62.86,62.86,0,0,1,0,6.44c.3-1.43.58-2.92.78-4.37h0c0-.12.12-.88.12-1a33.81,33.81,0,0,0-.42-4c-.41-2.84-1-5.32-.2-7.83.64-2,2.11-3.49,3.88-2.42,2.46,1.45,1.17,5.54,0,8.28-.81,1.91-2,4.3-3,6.32-.29,2-.68,4.12-1.07,6a29.87,29.87,0,0,0,2-3.53c1.44-2.55,2.29-5.31,4.77-6.34,2-.78,3.84.06,3.84,2.64.1,3.48-3.05,6.14-5.79,6.86a38.74,38.74,0,0,1-5,.87,63.27,63.27,0,0,1-2.37,7.95c0,.14-.16.4-.16.4A16.4,16.4,0,0,0,212.1,593c2-1.94,3.19-3.91,5.72-4.31a2.24,2.24,0,0,1,1.49.06,3,3,0,0,1,1.54,3.64A6.19,6.19,0,0,1,214,597a20.77,20.77,0,0,1-4.62-1.18,36.88,36.88,0,0,1-2,3.92c-.85,1.23-2.11,2.34-3.08,3.5h0c.94.29,2.94-1.06,3.54-1.42,2.25-1.35,3.45-3,5.9-3.23,1.94-.22,3.41,1.09,2.72,3.63-.94,3.4-5.19,3.84-7.2,3.24a29.93,29.93,0,0,1-4.75-2c-.55-.17-.46,0-.32,0-1.34,1.55-2.83,3.06-4.11,4.61a11.45,11.45,0,0,0,3.54-.37c2.47-.34,4.29-1.08,6.4-.12a2.28,2.28,0,0,1,1.22.82,2.92,2.92,0,0,1-.18,3.75c-2.11,2.56-5.65,1.43-7.59-.24a37.2,37.2,0,0,1-3.55-3.76,19.68,19.68,0,0,0-3.89,6.2,11.84,11.84,0,0,0,3.24-.35c2.5-.3,4.58-.82,6.67.25,1.65.84,2.78,2.65,1.21,4.57-2.14,2.57-5.56,1.14-7.56-.51a36.45,36.45,0,0,1-3.65-3.8,38.08,38.08,0,0,0-1.24,7c17.65-.24,36.11-.24,55.11-.24h13a7.92,7.92,0,0,1,7.08-.78,20,20,0,0,1,1.91.8h4.36a52,52,0,0,1-2.32-9.84c-1.2-.16-3.81,1.77-4.55,2.19-3.12,1.77-5.38,3.44-8.59,2.68-2.53-.6-4.85-2.72-3.72-6.34,1.58-4.93,7-5.1,10.43-3.42a30.71,30.71,0,0,1,6.45,4.69c-.55-3.69-.82-7.39-1.3-11.06a15.75,15.75,0,0,0-4.65,1.09c-3.47,1-6.22,2-9.35.5-2.46-1.18-5.1-3.6-3.54-7.34,2.1-5.08,8.23-2.86,11.54-.49a29.93,29.93,0,0,1,6,5.7q-.3-3.69-.95-7.33a65.88,65.88,0,0,0-2.46-6.64H269v-.18h0c-1.33-.2-4.12,1.45-5,1.81-3.54,1.53-6.22,2.86-9.65,1.81-2.73-.82-6-2.68-5.16-7,1.12-5.84,7.53-4.39,11.16-2.38,2.83,1.63,5.81,3.62,8.57,5.54-.14-.3-.28-.63-.44-.93A98,98,0,0,0,262,573.28v.1a.81.81,0,0,0,0-.22c-.06-.08-.22-.36-.3-.36a15.18,15.18,0,0,0-5.05.64c-3.84.72-6.68,1.53-10.08-.18-2.69-1.43-6.07-3.79-4.71-8,1.84-5.76,8.13-2.94,11.67-.14,2.2,1.71,5.12,4.34,7.28,6.36-1.33-1.86-2.76-3.71-4.21-5.44h0c-.11-.14-.89-1.07-1-1.21a37.13,37.13,0,0,0-5-3.24c-3.63-2.15-7-3.68-9.11-7.35-1.63-2.87-1.93-6.5,1.05-8.15,4-2.25,7.4,3.65,9.37,8.05,1.38,3.12,3.06,7.27,4.3,10.65,2,2.38,4,4.94,5.74,7.41a50.52,50.52,0,0,0-2-6.46c-1.52-4.67-3.82-8.64-2.57-13.35,1-3.7,3.74-5.59,6.73-3.2,4.07,3.22,4,10.55,2.18,15.4q-1.74,4.26-3.86,8.3a96.2,96.2,0,0,1,6.75,11.31,4,4,0,0,0,.31.62,35,35,0,0,0-.35-6.22c-.28-4.87-1.36-8.57.66-12.78,1.55-3.32,4.69-4.23,7.08-.93,3.24,4.49,1.66,11-1.33,14.8a40.49,40.49,0,0,1-5.86,5.78,57.07,57.07,0,0,1,2.53,6.8c.59,2.5.62,5.46,1,8h0c1.17-1.14,1.59-5.49,1.77-6.72.67-4.75,0-8,2.07-12.08,1.63-3.1,4.57-4,6.77-.54,3,4.83-.67,11.63-3.31,14.09a60.94,60.94,0,0,1-7.09,5.09c-.79.59-.6.53-.37.41.44,3.52.71,7.2,1.26,10.65a26.23,26.23,0,0,0,3.1-5.8c2-4,3-7.49,6.11-9.73,2.48-1.77,5.56-1.26,6.2,2.9a9.71,9.71,0,0,1-3.9,9,3.18,3.18,0,0,1,2.44.14,4.13,4.13,0,0,1,3-.18,6.92,6.92,0,0,1-1-2.31c-.45-2.06-.38-4.71,2.07-5.26,3.27-.74,4.73,4,5,7.09a27.72,27.72,0,0,1-.27,6,46.72,46.72,0,0,0,3.1-3.61,44.88,44.88,0,0,0,2.18-4.26h0c-.41-1-2.37-2-2.9-2.4-2.16-1.61-3.92-2.74-4.82-5.35-.71-2-1.15-4.79,1.24-6,3.26-1.71,5.21,2.9,5.7,6,.37,2.45.66,5.15.87,7.67.09-.21.18-.43.25-.65a71.38,71.38,0,0,0,2.62-8.69h0l.11-.13a1.71,1.71,0,0,0,0-.32,13.61,13.61,0,0,0-2.39-2.92c-1.94-2.13-3.46-3.58-4-6.44-.45-2.21-.69-5.35,1.89-6.24,3.53-1.19,4.73,3.93,4.85,7.31a61.58,61.58,0,0,1,0,7.19c.36-1.59.66-3.25.89-4.88h0c0-.12.16-1,.16-1.14a34.93,34.93,0,0,0-.5-4.47c-.44-3.18-1.09-5.94-.21-8.76.8-2.21,2.32-3.89,4.34-2.68,2.74,1.61,1.31,6.18,0,9.22-.92,2.14-2.21,4.91-3.33,7.07-.3,2.25-.74,4.53-1.19,6.66a32.84,32.84,0,0,0,2.25-4c1.6-2.86,2.55-5.94,5.32-7.07,2.17-.91,4.19.06,4.3,2.92.1,3.88-3.42,6.86-6.48,7.69a54.27,54.27,0,0,1-5.56,1,72.51,72.51,0,0,1-2.66,8.87,3.71,3.71,0,0,0-.16.47,19.49,19.49,0,0,0,2.82-2.78c2.23-2.18,3.56-4.37,6.39-4.81a2.41,2.41,0,0,1,1.57,0,3.25,3.25,0,0,1,1.79,4,6.87,6.87,0,0,1-7.61,5.22,23.4,23.4,0,0,1-5.17-1.33,37.6,37.6,0,0,1-2.22,4.39c-.95,1.39-2.35,2.61-3.43,3.92h0c1.06.3,3.31-1.21,4-1.59,2.52-1.51,3.85-3.32,6.59-3.62,2.16-.26,3.81,1.21,3,4-1.05,3.83-5.79,4.31-8,3.65a37.9,37.9,0,0,1-5.31-2.34c-.62-.18-.5-.1-.36,0-1.5,1.71-3.15,3.41-4.58,5.16a12.33,12.33,0,0,0,4.05-.43c2.68-.38,4.73-1.18,7.09-.12a3.22,3.22,0,0,1,2,3.16q16.78.15,32.44.37c.76-3.1,4.27-3.87,6.27-3.29s3.38,1.51,5.15,1.9c.12,0-.09-.12-.09-.12h0a27.57,27.57,0,0,1-2.71-8.06c-.83,0-2.53,1.41-3,1.74-2.05,1.36-3.56,2.61-5.77,2.25a3.17,3.17,0,0,1-2.78-4.17c.87-3.44,4.6-3.82,7-2.84a22,22,0,0,1,4.6,2.88c-.51-2.47-.85-5-1.31-7.49a10.44,10.44,0,0,0-3.14,1c-2.35.81-4.17,1.67-6.39.81-1.73-.71-3.63-2.22-2.69-4.86,1.24-3.58,5.53-2.37,7.88-.9a20.68,20.68,0,0,1,4.32,3.58c-.24-1.67-.55-3.32-.94-4.95a45.61,45.61,0,0,0-1.93-4.41h-.09v-.14h0c-.92-.12-2.76,1.19-3.34,1.49-2.36,1.21-4.13,2.25-6.54,1.71-1.87-.5-4.18-1.53-3.77-4.53.44-4.05,5-3.42,7.53-2.17,2,1,4.11,2.19,6.07,3.36-.11-.2-.21-.4-.34-.61a65.89,65.89,0,0,0-4.9-7.26h0c0-.16,0-.1,0-.16s-.21-.25-.21-.25a11.34,11.34,0,0,0-3.44.71c-2.6.68-4.5,1.37-6.89.36-1.91-.78-4.3-2.25-3.54-5.23,1.05-4,5.44-2.4,8-.67,1.65,1.11,3.75,2.72,5.31,4-1-1.19-2-2.4-3.08-3.5h0c-.25-.27-.51-.53-.78-.77a23,23,0,0,0-3.54-2c-2.57-1.31-4.94-2.2-6.5-4.59-1.24-1.89-1.57-4.35.39-5.62,2.68-1.73,5.21,2.14,6.71,5.06,1.07,2,2.38,4.83,3.35,7.06,1.47,1.53,2.89,3.18,4.21,4.79a38.19,38.19,0,0,0-1.64-4.33c-1.22-3.12-2.94-5.71-2.25-9,.53-2.54,2.34-4,4.48-2.54,2.9,2,3.13,7,2.05,10.43q-1,3-2.32,5.86a63.31,63.31,0,0,1,5,7.4c.08.14.16.28.25.41a24.91,24.91,0,0,0-.48-4.23c-.35-3.32-1.24-5.8,0-8.78a3.13,3.13,0,0,1,1-1.62,2.53,2.53,0,0,1,3.84.64c2.39,2.91,1.55,7.42-.36,10.18a28,28,0,0,1-3.79,4.25,36.76,36.76,0,0,1,2,4.53c.49,1.67.63,3.68,1,5.43h0c.79-.86,1-3.84,1-4.71.26-3.24-.32-5.51.95-8.31,1.07-2.22,3-3,4.61-.71,2.18,3.1,0,7.92-1.77,9.73a38.77,38.77,0,0,1-4.61,3.82c-.51.45-.39.41-.25.3.45,2.4.77,4.92,1.26,7.23a16.64,16.64,0,0,0,1.91-4.12c1.23-2.92,1.76-5.28,3.81-7a2.67,2.67,0,0,1,.74-.57,2.44,2.44,0,0,1,3.37,1.46c2.43,0,4.25,2.89,4.76,5.37a28.42,28.42,0,0,1,.41,6c1.52-1.85,3.21-3.54,4.75-5.35a12.71,12.71,0,0,0-2.43-2.48c-1.88-1.81-3.51-3.1-4.07-5.7-.45-2-.36-4.71,2.07-5.25,3.29-.75,4.73,4,5,7.08a26.52,26.52,0,0,1-.27,6,46.57,46.57,0,0,0,3.1-3.6,38.07,38.07,0,0,0,2.18-4.27h.11c-.43-.94-2.4-2-2.91-2.39-2.18-1.61-3.91-2.76-4.83-5.36-.71-2-1.15-4.79,1.24-6,3.25-1.71,5.22,2.9,5.7,6,.39,2.46.65,5.15.87,7.67l.26-.64a73.92,73.92,0,0,0,2.62-8.7h-.09l.11-.12a.86.86,0,0,0,0-.32,13.89,13.89,0,0,0-2.37-2.94c-1.93-2.12-3.47-3.56-4-6.42-.46-2.22-.71-5.36,1.89-6.24,3.51-1.19,4.73,3.92,4.86,7.3a71.83,71.83,0,0,1,0,7.19c.33-1.59.63-3.26.86-4.87h0c0-.14.15-1,.15-1.17a36.91,36.91,0,0,0-.48-4.45c-.46-3.18-1.12-5.94-.21-8.76.77-2.21,2.32-3.88,4.32-2.67,2.76,1.61,1.31,6.18,0,9.22-.92,2.13-2.22,4.89-3.33,7.06-.3,2.26-.75,4.51-1.19,6.67a32.24,32.24,0,0,0,2.25-4c1.61-2.86,2.55-5.94,5.31-7.07,2.2-.9,4.22.07,4.31,2.92.12,3.89-3.42,6.87-6.49,7.69a48.61,48.61,0,0,1-5.54,1,72.66,72.66,0,0,1-2.66,8.88,2.35,2.35,0,0,0-.17.44,18.9,18.9,0,0,0,2.83-2.76c2.21-2.17,3.54-4.37,6.39-4.81a2.56,2.56,0,0,1,1.66.07,3.33,3.33,0,0,1,1.71,4.06,6.91,6.91,0,0,1-7.63,5.21,22.78,22.78,0,0,1-5.16-1.33,39.29,39.29,0,0,1-2.23,4.39q-1.63,2.06-3.43,3.91h0c1.06.4,3.31-1.21,4-1.61,2.52-1.59,3.84-3.3,6.59-3.61,2.16-.26,3.81,1.21,3,4-1,3.8-5.79,4.29-8,3.64a36.94,36.94,0,0,1-5.32-2.35c-.6-.18-.49-.1-.35,0-1.49,1.71-3.15,3.4-4.59,5.15a12.38,12.38,0,0,0,4.06-.42c2.69-.38,4.73-1.19,7.08-.12a2.6,2.6,0,0,1,1.35.9,3.27,3.27,0,0,1-.2,4.21c-2.33,2.84-6.28,1.59-8.48-.3a41.61,41.61,0,0,1-4-4.19,22,22,0,0,0-4.36,6.93,14.32,14.32,0,0,0,3.63-.38c2.78-.35,5.1-.91,7.44.28a3.92,3.92,0,0,1,2.07,2.21c28.56.63,53,1.45,71.47,2.42a3.33,3.33,0,0,1,4.29-2.44c1.39.4,2.3,1,3.54,1.29h0a18.18,18.18,0,0,1-1.77-5.5c-.57,0-1.72,1-2.06,1.17a5.43,5.43,0,0,1-3.93,1.53,2.14,2.14,0,0,1-1.88-2.82c.59-2.43,3.12-2.69,4.75-2a14.19,14.19,0,0,1,3.12,2c-.36-1.69-.57-3.4-.89-5.09a7.25,7.25,0,0,0-2.12.66,5.79,5.79,0,0,1-4.34.55c-1.12-.47-2.39-1.51-1.77-3.3.81-2.42,3.72-1.59,5.31-.61a13.88,13.88,0,0,1,2.94,2.44c-.16-1.13-.37-2.26-.64-3.36a28.64,28.64,0,0,0-1.31-3h0a.17.17,0,0,0,0-.1h0c-.64-.08-1.88.82-2.27,1a6.27,6.27,0,0,1-4.44,1.17c-1.28-.3-2.83-1.07-2.57-3.08.37-2.76,3.35-2.33,5.12-1.49,1.36.67,2.8,1.49,4.13,2.3-.07-.15-.15-.29-.23-.43a44.32,44.32,0,0,0-3.33-4.93h0c0-.12,0-.1,0-.12l-.15-.14a7.48,7.48,0,0,0-2.33.46,6.63,6.63,0,0,1-4.68.24c-1.29-.52-2.92-1.53-2.39-3.54.71-2.74,3.65-1.63,5.42-.46a39.91,39.91,0,0,1,3.54,2.72c-.67-.83-1.38-1.64-2.11-2.4h0l-.51-.52a15.13,15.13,0,0,0-2.39-1.33,10,10,0,0,1-4.43-3.12c-.83-1.29-1.06-3,.29-3.83,1.8-1.17,3.52,1.43,4.55,3.44.72,1.41,1.61,3.29,2.26,4.82a31.87,31.87,0,0,1,2.87,3.24,24.69,24.69,0,0,0-1.11-2.94c-.84-2-2-3.83-1.54-6,.37-1.73,1.59-2.74,3-1.73,2,1.37,2.15,4.77,1.42,7.08-.47,1.38-1,2.72-1.59,4a44,44,0,0,1,3.41,5l.18.28a16.19,16.19,0,0,0-.34-2.87c-.24-2.34-.85-4,0-6a2.13,2.13,0,0,1,.68-1.1,1.72,1.72,0,0,1,2.6.43,6,6,0,0,1-.23,6.91,19.78,19.78,0,0,1-2.59,2.88,27.45,27.45,0,0,1,1.37,3.08c.32,1.12.42,2.49.65,3.7h0c.55-.56.69-2.6.69-3.18.18-2.22-.23-3.75.64-5.66.69-1.49,2-2,3.14-.48,1.5,2.11,0,5.39-1.19,6.62a28.29,28.29,0,0,1-3.12,2.6c-.35.3-.26.2-.16.2.29,1.61.52,3.32.85,4.91a11.88,11.88,0,0,0,1.3-2.82,11.08,11.08,0,0,1,2.58-4.71,1.9,1.9,0,0,1,.43-.33,1.69,1.69,0,0,1,2.37.94c1.65,0,2.89,2,3.22,3.64a20.15,20.15,0,0,1,.29,4c1-1.25,2.17-2.4,3.22-3.65a8.43,8.43,0,0,0-1.65-1.67c-1.27-1.22-2.39-2.11-2.76-3.88-.37-1.39-.25-3.18,1.4-3.57,2.23-.5,3.22,2.82,3.36,4.84a18.49,18.49,0,0,1-.17,4.14,29.11,29.11,0,0,0,2.1-2.45,30.47,30.47,0,0,0,1.49-2.9H466c-.28-.65-1.61-1.37-2-1.63a7.45,7.45,0,0,1-3.27-3.63c-.5-1.41-.8-3.3.85-4.16,2.19-1.15,3.52,2,3.86,4.12.26,1.67.44,3.51.58,5.22a3.52,3.52,0,0,0,.18-.45,48.8,48.8,0,0,0,1.77-5.89h0v-.25a9.09,9.09,0,0,0-1.63-2,8.73,8.73,0,0,1-2.73-4.37c-.32-1.53-.49-3.64,1.28-4.24,2.39-.81,3.29,2.65,3.29,5v4.87c.23-1.07.43-2.19.59-3.3h0c0-.1.08-.79.08-.79a25.75,25.75,0,0,0-.4-3.16,12.72,12.72,0,0,1-.14-6c.47-1.51,1.55-2.63,2.92-1.83,1.87,1.11.88,4.27,0,6.28-.62,1.45-1.51,3.32-2.27,4.79-.19,1.53-.49,3.06-.8,4.53a22,22,0,0,0,1.53-2.67c1.09-2,1.75-4.05,3.63-4.82,1.48-.58,2.92,0,2.92,2,.07,2.63-2.32,4.65-4.41,5.21a38,38,0,0,1-3.77.67,49.68,49.68,0,0,1-1.77,6,.58.58,0,0,0-.11.33,11.83,11.83,0,0,0,1.91-1.9c1.53-1.46,2.43-3,4.36-3.26a1.69,1.69,0,0,1,1.13,0,2.24,2.24,0,0,1,1.15,2.75,4.67,4.67,0,0,1-5.18,3.54A16.37,16.37,0,0,1,466,610a13.75,13.75,0,0,1-3.84,5.66h0c.71.2,2.25-.83,2.69-1.09,1.72-1,2.62-2.26,4.48-2.46,1.47-.16,2.59.85,2.07,2.76-.72,2.58-3.94,2.9-5.47,2.46a25.4,25.4,0,0,1-3.54-1.59c-.41-.14-.34,0-.23,0-1,1.16-2.14,2.31-3.12,3.5a9.43,9.43,0,0,0,2.75-.28,8.25,8.25,0,0,1,4.87,0,1.74,1.74,0,0,1,.95.64,2.21,2.21,0,0,1-.17,2.84c-1.6,1.93-4.29,1.07-5.76-.2a25.35,25.35,0,0,1-2.71-2.86,15.57,15.57,0,0,0-3,4.71,10.22,10.22,0,0,0,2.46-.24,8.11,8.11,0,0,1,5.06.18,2.17,2.17,0,0,1,1.31,2.8C475.09,627.77,480.72,628.76,480.33,628.74Zm-326.86-6.26h3c-.9-.26-1.77-.54-2.83-.83Zm-93.32.28c-1.14.06-3,1.83-3.86,2.7l5.57-.28c-.56-.78-1.11-1.59-1.64-2.42Zm397.63,3.54c-.65-.66-1.18-1.32-1.78-2-.18.65-.32,1.27-.46,1.89l2.32.16Zm-3.57-10.18a6.07,6.07,0,0,1-1.65,1.07,3.06,3.06,0,0,1,.82.58,5.39,5.39,0,0,1,1.15-1.23h.14l-.36-.42Zm-3.56,8c.46.64,1,1.25,1.45,1.83l3.28.2c.12-.62.26-1.26.44-1.91-.36-.52-1.74-.84-2.13-1A28.57,28.57,0,0,1,450.65,624.09Zm8.14-4.81a3.27,3.27,0,0,0-1-1,4.83,4.83,0,0,1-2.36,4,13.42,13.42,0,0,0,.46,1.79V624h0a17.79,17.79,0,0,1,3-4.79Zm-10.11-.73a16.4,16.4,0,0,0,1.92,5.34,7.38,7.38,0,0,0,.85-1.71,4.11,4.11,0,0,1-1.28-1.31,3.11,3.11,0,0,1-.46-2.64l-.92.24Zm1.72,5.74c-.55.06-1.43,1.05-1.65,1.33l3.1.2c-.44-.52-.87-1.05-1.29-1.61Zm-91-1.55a13.34,13.34,0,0,1-1.37-1.75c-.16.56-.28,1.11-.41,1.67h1.93ZM355.36,609a9.13,9.13,0,0,1-2.21,1.73,4.58,4.58,0,0,1,1.18.83,7.91,7.91,0,0,1,1.69-1.77l.21-.14a8.16,8.16,0,0,1-.71-.73Zm-.74,10.41c-1.54.58-2.91.83-4.48,1.27.44.62.9,1.23,1.36,1.79l5.83.12c.12-.58.24-1.15.4-1.73-.55-.77-2.55-1.25-3.11-1.45Zm7.49-5.72a4.59,4.59,0,0,0-1.4-1.41,7.09,7.09,0,0,1-3.54,5.88,15.9,15.9,0,0,0,.65,2.64v-.16h0a25.15,25.15,0,0,1,4.45-7Zm-14.9-1.1a24.07,24.07,0,0,0,2.84,7.91,10.33,10.33,0,0,0,1.24-2.54,5.92,5.92,0,0,1-1.88-1.91,4.46,4.46,0,0,1-.65-3.89l-1.39.35Zm2.54,8.45a5,5,0,0,0-1.86,1.43h3.2c-.39-.48-.79-1-1.18-1.51Zm-59.29.75c.64-.89,1.31-1.76,2-2.62a2.3,2.3,0,0,0-.78-.77A14.12,14.12,0,0,1,287,621.8Zm4.27.12a19.35,19.35,0,0,1-2-2.56c-.66.8-1.29,1.59-1.91,2.42h4.09Zm2.44-8.1a13.25,13.25,0,0,0-2.25-2.63L293.68,610a5.48,5.48,0,0,1,.29,1.21,8.24,8.24,0,0,1-1.4,6v1.81c1.54-1.85,3.2-3.55,4.76-5.36Zm-22.56-2a46.34,46.34,0,0,0,2.52,9.86h2.14a.92.92,0,0,0,.19-.4c-.92-1.61-1.25-3.92.76-5a3.29,3.29,0,0,1,1.86-.38,30.68,30.68,0,0,1,2.36-4.15,3.64,3.64,0,0,1,.46-2.9,11,11,0,0,1-2.37,1.15,48.41,48.41,0,0,1-7.76,1.69Z" fill="#e6e7e8"/></g><path d="M283.34,359.87l.36-23.57a24.29,24.29,0,0,1,7-17.14,21.92,21.92,0,0,1,11.14-5.84,4.51,4.51,0,0,1,5.24,4.52v0a4.55,4.55,0,0,1-2.95,4.26c-4.14,1.59-11.05,5.26-9.81,11.8L293,359Z" fill="#2f2e41"/><rect x="278.94" y="353.27" width="18.47" height="73.44" fill="#2f2e41"/><rect x="278.94" y="353.27" width="18.47" height="73.44" fill="#fff" opacity="0.2"/><path d="M415,488.68s4.86,46.93-.54,78.22H200.86L37.32,468.78s43.78-52.4,113.91-28.66c0,0,46.4,16.19,62.58,64.2l85.24-1.62s-21.58,15.65-22.66,59.89h9.17s.54-50.18,43.16-70.68c0,0,31.83-18.34,72.83-.54l3.44-6.44a1.79,1.79,0,0,1,2.49-.7Z" fill="#85f200"/><path d="M415,488.68s4.86,46.93-.54,78.22H200.86L37.32,468.78s43.78-52.4,113.91-28.66c0,0,46.4,16.19,62.58,64.2l85.24-1.62s-21.58,15.65-22.66,59.89h9.17s.54-50.18,43.16-70.68c0,0,31.83-18.34,72.83-.54l3.44-6.44a1.79,1.79,0,0,1,2.49-.7Z" opacity="0.2"/><path d="M213.81,504.32c-17.45-48.9-62.58-64.2-62.58-64.2C79.23,417,37.32,468.78,37.32,468.78c-6.28,5.56-4.82-1.7-4.82-1.7s34.25-54.67,101.15-48.19c0,0,80.11,9,87.45,85.3Z" fill="#85f200"/><path d="M298.52,502.68s-21,12.88-22.13,59.91h9.17S285.7,515,328,492.52c0,0,29.28-18.86,73.55-1.15l3.44-6.44a1.81,1.81,0,0,1,2.49-.7l7.56,4.45s3.47-24.27-14.88-33.8S362.94,425,263.67,420.71c0,0,.6,48.41-3.19,82.73Z" fill="#85f200"/><path d="M382.59,474.36s-58.53-18.58-117.87-18a403.35,403.35,0,0,1-4.24,47.12l38-.76S325.4,465.19,382.59,474.36Z" fill="#fff" opacity="0.2"/><path d="M97.3,421.46l14-83.26,134.87.56s29.24,72.61,14.31,164.68L221,504.2s-2.75-56.59-64.51-79.49C156.53,424.71,128.41,413.58,97.3,421.46Z" fill="#2f2e41"/><path d="M168,353l-2.83,56.71a6.08,6.08,0,0,0,3.75,5.94c7.25,3,22.64,9.62,31.1,15.67,0,0,11.33,7,20,1.08l25.9-10.25s-7.56-69.6-30.75-72.84H171.87A3.89,3.89,0,0,0,168,353Z" fill="#85f200" opacity="0.14"/><path d="M111.3,338.2s-8.59,1.89-6.52-10.09c0,0-2.48-5.78,17.77-5.78,0,0,100.39-3.72,123.52,7,0,0,8.05,5.59.1,9.41Z" fill="#85f200"/><path d="M244.32,559.28H199.93v-50h49.82a7.15,7.15,0,0,1,7.06,8.23l-5.43,35.68A7.14,7.14,0,0,1,244.32,559.28Z" fill="#2f2e41"/><path d="M244.32,559.28H199.93v-50h49.82a7.15,7.15,0,0,1,7.06,8.23l-5.43,35.68A7.14,7.14,0,0,1,244.32,559.28Z" fill="#fff" opacity="0.2"/><path d="M418.07,521.11s.45-10,7.73-9.11h27.32a6.38,6.38,0,0,1,6.37,6.38v35.5a6.38,6.38,0,0,1-6.37,6.38H431.71A64.15,64.15,0,0,0,418.07,521.11Z" fill="#85f200"/><circle cx="116.12" cy="536.23" r="91.45" fill="#2f2e41"/><circle cx="116.12" cy="537.31" r="54.76" opacity="0.2"/><circle cx="116.12" cy="537.31" r="19.15" fill="#ebebeb"/><circle cx="115.58" cy="501.16" r="4.59" fill="#ebebeb"/><circle cx="152.8" cy="537.58" r="4.59" fill="#ebebeb"/><circle cx="115.85" cy="573.99" r="4.59" fill="#ebebeb"/><circle cx="80.24" cy="537.31" r="4.59" fill="#ebebeb"/><circle cx="364.16" cy="561.29" r="67.55" fill="#2f2e41"/><circle cx="365.14" cy="561.78" r="37.58" opacity="0.2"/><circle cx="365.14" cy="561.78" r="16.46" fill="#ebebeb"/><path d="M223.21,476.08c1.38,4.19,1.54,7.58,2.3,10a12.31,12.31,0,0,0,9.72,8.38,22,22,0,0,0,7.2.13,11.19,11.19,0,0,0,9-9.36c8.64-55.42-7.75-114.33-7.75-114.33C237.24,338,229.14,339,229.14,339l-66.9-.54-5.39,78.23S205.94,423.74,223.21,476.08Z" fill="#85f200" opacity="0.25"/><path d="M121.5,410.19l7.79-53.93a12.06,12.06,0,0,1,12.33-9.4l11.16-.59L149,412.82S132.44,412.77,121.5,410.19Z" fill="#85f200" opacity="0.25"/><path d="M152.81,338.65l-3.69,74.12s-41.37.36-39.93-11.51l9-51.07s0-8.13,11.2-11.72Z" fill="#85f200" opacity="0.25"/><rect x="485.61" y="245.64" width="16.61" height="20.87" transform="translate(-23.87 52.55) rotate(-5.95)" fill="#2f2e41"/><rect x="485.61" y="245.64" width="16.61" height="20.87" transform="translate(-23.87 52.55) rotate(-5.95)" opacity="0.2"/><path d="M489,264.47l42.91,358.34a6.45,6.45,0,0,0,6.41,5.68h0a6.45,6.45,0,0,0,6.41-7.24L500.87,262.77Z" fill="#2f2e41"/><path d="M622.32,598.34s-13,19.83-30.05,17.35c0,0-12.08.31-15.18,7.12h81a3.94,3.94,0,0,0,4-3.67,12.22,12.22,0,0,0-1.59-7.06,9.57,9.57,0,0,1-1.15-4.17l-.72-10.19S635.48,599.72,622.32,598.34Z" fill="#85f200"/><path d="M574.13,627.59s-.33-2.7,3-4.78h81s2.54,0,3.3-2c0,0,1.84,5.09-4.42,6Z" fill="#d1d3d4"/><path d="M591.51,595.18c11.81,1.56,58.18,7.12,76.84.51l-2.24-203.5S685.64,374,673,349.77c0,0-14.74-12.48-55.3-15,0,0-15.07,124.06-19.54,170.57,0,0-6,66.94-9,86.72A2.73,2.73,0,0,0,591.51,595.18Z" fill="#2f2e41"/><path d="M591.51,595.18c11.81,1.56,58.18,7.12,76.84.51l-2.24-203.5S685.64,374,673,349.77c0,0-14.74-12.48-55.3-15,0,0-15.07,124.06-19.54,170.57,0,0-6,66.94-9,86.72A2.73,2.73,0,0,0,591.51,595.18Z" opacity="0.2"/><path d="M715.09,432.89l-.87-1.19s12.89-4.24,23.68.87L729.42,434Z" fill="#f7a48b"/><path d="M696.67,354.77s43.54-6.86,51.89-23C748.56,331.81,715.88,332.31,696.67,354.77Z" fill="#85f200"/><path d="M696.67,354.77s43.54-6.86,51.89-23C748.56,331.81,715.88,332.31,696.67,354.77Z" opacity="0.2"/><path d="M705.71,346.31a52.64,52.64,0,0,0,10,7.84,7.24,7.24,0,0,1,3.55,5.61c.85,9.79,3.18,35.45,5.23,46a3.48,3.48,0,0,1-2.32,3.95,8.94,8.94,0,0,0-5.26,5.29,26.74,26.74,0,0,1-6,6.58,1,1,0,0,0-.2,1.53c.76.79,2.57,1.57,6.9.34l-2.36,6.75s13.19-2,23.32,1.35c0,0,2-14.18-.69-18.91L743.61,363s4-16.19-3.78-30.38C739.83,332.59,719.43,335.54,705.71,346.31Z" fill="#f9b499"/><path d="M690.92,465.72h-1.79v-7.91a24.6,24.6,0,0,1,5.83-16.1c5.2-6,14.75-13.21,30.63-13.07.14,0,19.47-1.08,29.74,16.39a24.81,24.81,0,0,1,3.36,12.59l.19,7.72H757.1l-.2-7.72a23.07,23.07,0,0,0-3.1-11.68c-9.7-16.5-28-15.52-28.14-15.51h-.41c-15,0-24,6.75-28.92,12.45a22.81,22.81,0,0,0-5.39,14.93Z" fill="#2f2e41"/><path d="M688.92,463.9h70.37a0,0,0,0,1,0,0V530a2.82,2.82,0,0,1-2.82,2.82H691.74a2.82,2.82,0,0,1-2.82-2.82V463.9A0,0,0,0,1,688.92,463.9Z" fill="#85f200"/><ellipse cx="724.08" cy="463.75" rx="35.21" ry="2.14" fill="#85f200"/><ellipse cx="724.08" cy="463.75" rx="35.21" ry="2.14" fill="#fff" opacity="0.2"/><path d="M635.3,227.17l3.28-10s-6,1.19-6.86,4.29C631.72,221.48,630.54,224.12,635.3,227.17Z" fill="#85f200"/><path d="M635.3,227.17l3.28-10s-6,1.19-6.86,4.29C631.72,221.48,630.54,224.12,635.3,227.17Z" opacity="0.2"/><path d="M676.1,336.1s16.4,11.51,20.57,18.67c0,0,15.21-19.09,51.89-23,0,0-28.53-43.84-71.49-56.26-.09,0-.07-.06,0,0,1.6,1.35,6.25,11.85,5.79,31.5a58.59,58.59,0,0,1-2.54,15.55C679.23,326.23,677.76,331,676.1,336.1Z" fill="#85f200"/><path d="M681.74,340.32l-4.57-3.48s4.77-49.22-.1-61.29C677.07,275.55,693,284.22,681.74,340.32Z" opacity="0.2"/><path d="M643.81,255.77l.85,7s15.42,1.11,21.9,4.17c0,0-1.89-4.42-5.18-6.7V251.9S652.62,261.39,643.81,255.77Z" fill="#f9b499"/><path d="M652.58,339.7s15.43,34.85-.1,52.92a8,8,0,0,0-1.76,6.54c2.06,12,10.7,49.07,43.57,95.45L722,529.5s8.05,8.49,7.38,16.1c0,0-8-11.63-22.59,3.13,0,0-34.59,27.88-23.25,66,0,0-33.1-3.87-64.41-109,0,0-25.44-105.65-21.7-154.78a18.78,18.78,0,0,1,2.93-9c2.66-4.05,7.77-8.36,17.29-7.28A216.85,216.85,0,0,1,652.58,339.7Z" fill="#2f2e41"/><path d="M683.56,614.77s43.83,18.94,45.17-21.76c0,0,4.47-39.36.67-47.41,0,0-11.41-20.13-40.48,24.6C688.92,570.2,675.5,593.16,683.56,614.77Z" fill="#2f2e41"/><path d="M683.56,614.77s43.83,18.94,45.17-21.76c0,0,4.47-39.36.67-47.41,0,0-11.41-20.13-40.48,24.6C688.92,570.2,675.5,593.16,683.56,614.77Z" opacity="0.2"/><path d="M703.32,551.45s20.19,23.67,27.64,55.87c0,0,1.64,9.54-7.75,18.34,0,0-.89,3.72,2.39,1.34,0,0,11.63-11,11-23L736,589a76.4,76.4,0,0,0-.93-9.06c-1.22-7.41-2.68-24.14,8.15-28.06,0,0-5.07-3.58-9.24-2.68a6.36,6.36,0,0,1-4.55-3.58S721.51,532.36,703.32,551.45Z" fill="#f9b499"/><path d="M743.45,551.81l-.26.05S730.7,555,735,579.92L736.63,604a25.37,25.37,0,0,1-3.36,12.77s-4.19,7.5-8,10.56a.45.45,0,0,0,.22.8c5.45.71,28.77,3,33.61-8.61a9.63,9.63,0,0,0,.23-6.36,57.41,57.41,0,0,1-1.81-17,55.46,55.46,0,0,1,2.62-14.83c1.32-4.27,2.68-11.29.52-18.44C758.38,555.49,751.06,550.51,743.45,551.81Z" fill="#d1d3d4"/><ellipse cx="749.15" cy="567.52" rx="9.16" ry="12.02" opacity="0.2"/><path d="M524.08,324l53.11-1.17s-.34,16.49,9.43,27.94c0,0-36.36,1.2-63.37-9.46a9,9,0,0,0-8,.71,15.05,15.05,0,0,1-7,2.35s-13.8,4-13.46-4.71c0,0-6.06.67-3-6.06,0,0-4.38-2.36-1.35-6.4,0,0-2.8-2.1-1-4.55a4.19,4.19,0,0,1,2.9-1.6c1.83-.24,5.28-1.07,7.2-3.95,0,0,1.7-1.94,4.9.37a25,25,0,0,0,5.23,2.9c.68.28,1.4.59,2.13.93A27.54,27.54,0,0,0,524.08,324Z" fill="#f9b499"/><path id="a11431f7-ab5a-48f3-848c-747445e4f3d4" data-name="SVGID" d="M729.33,438.15c-2.88,2.88-5.12.32-5.12.32a5.27,5.27,0,0,1-6.07.64c-7,1.64-8.21-3.07-8.35-5.7a3.09,3.09,0,0,1,1.92-3.1c1.06-.39,2.37-.1,3.38,2.58,0,0,3.8-2.68,6.48-.45,0,0,3.36-3.8,5.59.67,0,0,2.69-4,5.82-.22l4.85-.32s.06,0,0,.05C737.66,433.26,735.41,439.54,729.33,438.15Z" fill="#f9b499"/><g clip-path="url(#f36c1835-e09f-49ea-bde7-a69573d7bd6c)"><path d="M715.09,432.89s0,4.09,3,5.95" fill="none" stroke="#f7a48b" stroke-miterlimit="10" stroke-width="0.25"/><path d="M721.57,432.44a8.77,8.77,0,0,0,2.64,6" fill="none" stroke="#f7a48b" stroke-miterlimit="10" stroke-width="0.25"/><path d="M727.16,433.11a10.33,10.33,0,0,0,2.17,5" fill="none" stroke="#f7a48b" stroke-miterlimit="10" stroke-width="0.25"/></g><path d="M435.14,221.43l-.38,24.75s-1.06,5.94,11.2,5.08L544,242s4.78-.17,4.4-7.94l-3.29-21.86-3-.38V233.3l-5.68.44-3.92-20.39-2.7.82.07,19.39-6,.43-2.74-19.76-3-.08.62,20.9-6.86.11-3-19.47-2.68-.37.92,20.9-6,.14-3.95-19.5-2.09.24.34,20.3-7.76.08-3-20.07-2.68-.37,1.22,21.21-6.57.12-3.93-19.79-2.69.23v21.47l-5.66-.45-3.63-20.08-2.66-.67.56,23-5.66-.15-3.9-21-3.28-.09.91,21.5-5.67-.15-2.72-20.66Z" fill="#85f200"/><path d="M644.66,262.79a16.81,16.81,0,0,0-1.74.8,22.32,22.32,0,0,0-11.25,14.57l-14,56.61s38,1.34,55.3,15c0,0,28.52-65.8-5.52-82.66C667.45,267.11,660,263.77,644.66,262.79Z" fill="#85f200"/><path d="M625.38,335.29s12,1,16.64,2.56c0,0,35.59-48.39.51-67.84C642.53,270,650.21,314.55,625.38,335.29Z" opacity="0.2"/><path d="M576.49,316c.09,7.37,1.68,32.23,18.7,43.32a2.2,2.2,0,0,0,2.51-.09c6.65-5,38.92-29.75,49.27-48.84a18.79,18.79,0,0,0,1.54-3.84c2.35-8,8.21-34.43-14.75-41.24,0,0-13.42-5.37-34.29,22.66l-21.65,24.46A5.32,5.32,0,0,0,576.49,316Z" fill="#85f200"/><path d="M644.15,259.21l-.34-3.44s8.89,1.26,13.25-1.59C657.06,254.18,654.8,259.29,644.15,259.21Z" fill="#f7a48b"/><ellipse cx="652.38" cy="231.16" rx="26.64" ry="17.49" transform="translate(324.34 840.6) rotate(-81.22)" fill="#f9b499"/><path d="M653.27,216.94s7.35,3.55,12.41,13.68l2.45,9.56s-2.68,8.13-6.75,11.72v8.36s3.52,3,4.74,5.84c0,0,15,1,17.3-10.65,0,0,3.45.24,2.81,6.08,0,.1.09.18.17.12,1.64-1.11,12.89-9.21,5.12-18.62l-20.25-22.66c-.08-.68-1.62-1.32-2.63-1.63C665.87,217.89,660.77,216.94,653.27,216.94Z" fill="#2f2e41"/><path d="M638.58,217.19s-12.65,2.89-3.28,10c0,0-25.1-2.88-19-11.5,0,0,11.4-10.13,45.6-4.56,0,0,31.28,5,35.53,13.46a2.81,2.81,0,0,1-.2,2.85c-1.34,1.9-5.35,4.93-17.09,3l-8.83-10s-.31-2.93-17.65-3.44C653.64,216.94,643.9,215.67,638.58,217.19Z" fill="#85f200"/><path d="M632.75,210.1s3.29-14.44,18.49-14.19l13.94,1s14.69,2,16.72,19C681.9,215.93,654.79,207.22,632.75,210.1Z" fill="#85f200"/><path d="M632.75,210.1s3.29-14.44,18.49-14.19l13.94,1s14.69,2,16.72,19C681.9,215.93,654.79,207.22,632.75,210.1Z" opacity="0.2"/><ellipse cx="669.93" cy="234.4" rx="5.24" ry="6.06" fill="#f9b499"/><path d="M490.34,327.17a18.31,18.31,0,0,0,9.08-2.23" fill="none" stroke="#f7a48b" stroke-miterlimit="10" stroke-width="0.25"/><path d="M491.69,333.57a16,16,0,0,0,10-2.42" fill="none" stroke="#f7a48b" stroke-miterlimit="10" stroke-width="0.25"/><path d="M494.72,339.63a19.07,19.07,0,0,0,8.72-2.55" fill="none" stroke="#f7a48b" stroke-miterlimit="10" stroke-width="0.25"/><path d="M474.84,495.66c4.13-7.4,9.09-12.56,14.42-12.56,14.49,0,26.26,38.33,26.26,55.48a24.24,24.24,0,0,1-4.14,14.56h0c-4.68,6.44-12.83,9.14-22.12,9.14-14.52,0-26.27-6.55-26.27-23.7C463,527.69,467.69,508.32,474.84,495.66Z" fill="#bcbec0"/><polygon points="510.79 545.57 501.25 541.96 509.92 537.56 491.8 543.76 491.5 537.36 506.31 526.76 499.43 530.56 497.72 525.54 498.22 531.36 491.34 534.96 491.27 527.76 500.72 512.94 490.7 525.96 489.8 507.54 488.83 517.74 483.91 512.74 488.57 521.34 489.41 543.16 488.06 540.36 486.37 533.76 485.87 539.16 482.74 534.96 481.1 513.54 480.93 523.74 476.47 514.94 480.5 525.36 481.34 534.56 474.05 527.76 488.97 545.76 488.7 549.78 487.1 549.58 483.17 545.16 485.11 549.18 471.59 542.96 476.94 546.78 473.28 549.98 478.52 547.37 488.84 552.98 487.8 628.48 493.46 628.48 491.96 546.16 499.83 542.56 510.79 545.57" fill="#d1d3d4"/></svg>