<svg id="aadda0d0-5e75-448c-8094-3be324c87abf" data-name="fd1d2f90-53ed-4e74-aa28-0c18745b684a" xmlns="http://www.w3.org/2000/svg" width="865.76" height="682.89" viewBox="0 0 865.76 682.89"><path d="M588.9,125.24h0a8,8,0,0,1,8,8V195.4a8,8,0,0,1-8,8h0Z" fill="#2f2e41"/><path d="M589.32,217.65h0a8,8,0,0,1,8,8v28.69a8,8,0,0,1-8,8h0Z" fill="#2f2e41"/><path d="M333,52.05H555.41a36.32,36.32,0,0,1,36.32,36.32h0V607A22.7,22.7,0,0,1,569,629.7H319.35a22.7,22.7,0,0,1-22.7-22.7h0V88.37A36.32,36.32,0,0,1,333,52.05Z" fill="#2f2e41"/><path d="M329.57,60H557.68a26.12,26.12,0,0,1,26.1,26.1V608.62A12.48,12.48,0,0,1,571.3,621.1H316a12.48,12.48,0,0,1-12.48-12.48V86.1A26.11,26.11,0,0,1,329.57,60Z" fill="#f0f0ff"/><path d="M443.38,516.17a53.1,53.1,0,1,1,53.1-53.1A53.16,53.16,0,0,1,443.38,516.17Zm0-104.2a51.1,51.1,0,1,0,51.1,51.1A51.15,51.15,0,0,0,443.38,412Z" fill="#18ec46"/><path d="M174.43,566.56l-19.16,58.06a9.05,9.05,0,0,1-8.6,6.22H103.25a12.15,12.15,0,0,0,11.39-8l20.68-56.33Z" fill="#18ec46"/><path d="M174.43,566.56l-19.16,58.06a9.05,9.05,0,0,1-8.6,6.22H103.25a12.15,12.15,0,0,0,11.39-8l20.68-56.33Z" opacity="0.2" style="isolation:isolate"/><path d="M318.08,621.88,225.21,348.31l-.08-.22-59.83-.74a13.31,13.31,0,0,0-12.72,8.9L59.8,621a7.41,7.41,0,0,0,7,9.84h36.45a12.15,12.15,0,0,0,11.39-8l20.68-56.33h105l20.12,58.12a7.91,7.91,0,0,0,7.5,5.34h44.33a6.16,6.16,0,0,0,6.12-6.2h0A6.08,6.08,0,0,0,318.08,621.88ZM224.3,522.62H149.73a2.1,2.1,0,0,1-2.13-2h0a2.06,2.06,0,0,1,.13-.78L188.21,412,207,465.29l19.24,54.53A2.1,2.1,0,0,1,225,522.5,1.67,1.67,0,0,1,224.3,522.62Z" fill="#18ec46"/><path d="M207,465.29l-19.81,57.33h-37.5a2.1,2.1,0,0,1-2.13-2h0a2.06,2.06,0,0,1,.13-.78L188.21,412Z" fill="#18ec46"/><path d="M207,465.29l-19.81,57.33h-37.5a2.1,2.1,0,0,1-2.13-2h0a2.06,2.06,0,0,1,.13-.78L188.21,412Z" opacity="0.2" style="isolation:isolate"/><path d="M354.05,630.15H302.34V630h9.94a6.15,6.15,0,0,0,6.17-6.13,6.27,6.27,0,0,0-.33-2L225.21,348.31l29.19-1.08a16.69,16.69,0,0,1,15.77,11.21l91,261.7a7.54,7.54,0,0,1-7.12,10Z" fill="#18ec46"/><path d="M354.05,630.15H302.34V630h9.94a6.15,6.15,0,0,0,6.17-6.13,6.27,6.27,0,0,0-.33-2L225.21,348.31l29.19-1.08a16.69,16.69,0,0,1,15.77,11.21l91,261.7a7.54,7.54,0,0,1-7.12,10Z" opacity="0.2" style="isolation:isolate"/><path d="M457.1,177.9V291a7.81,7.81,0,0,1-7.8,7.81H379.09c1.49,6.87,6.85,22,25,20.88V311.5a.48.48,0,0,1,.46-.48.47.47,0,0,1,.28.09l17.28,11.74a.48.48,0,0,1,.12.65l-.12.12-16.94,12.05a.47.47,0,0,1-.74-.38v-7.5s-30.88,3.28-35.39-29h-17.3A7.81,7.81,0,0,1,344,291V177.9a7.81,7.81,0,0,1,7.81-7.81H449.3A7.81,7.81,0,0,1,457.1,177.9Z" fill="#18ec46"/><path d="M436.54,336.2V223.07a7.81,7.81,0,0,1,7.81-7.81h70.2c-1.49-6.87-6.84-22-25-20.88v8.22a.48.48,0,0,1-.46.48.47.47,0,0,1-.28-.09l-17.29-11.74a.48.48,0,0,1-.1-.67.47.47,0,0,1,.1-.1l16.94-12a.45.45,0,0,1,.64.1h0a.44.44,0,0,1,.09.27v7.5s30.8-3.36,35.35,28.9h17.3a7.81,7.81,0,0,1,7.81,7.81V336.2a7.81,7.81,0,0,1-7.81,7.81h-97.5A7.81,7.81,0,0,1,436.54,336.2Z" fill="#2f2e41"/><path d="M429.27,247.51c-2-20-18.57-18-18.57-18l1.14-5.42-7.14-.58-.86,4.86a81.51,81.51,0,0,0-10.57,1.14c0-2,.28-8.28.28-8.28L417,219.8v-6.29l-22.57,1.72c-1.14-3.43,2-12,2-12l-7.71.28a31.92,31.92,0,0,0-1,11.67l-12.57.54.39,6.08,11.15-.57.57,10.86c-20,9.42-14.57,26.57-14.57,26.57,6.57,14.57,20.85.57,20.85.57l1.15,2.86c3.71-.58,6.57-4.58,6.57-4.58-1.43-.57-2.29-3.42-2.29-3.42,7.14-5.15,10.29-20.29,10.29-20.29,10,1.71,12,8.57,12,8.57,5.71,18.57-18,18.29-18,18.29l4.28,7.14C431.27,264.37,429.27,247.51,429.27,247.51Zm-50.93,7.79s-3-7.93,9.21-16.93c0,0,1.07,10.5,4.07,15C391.62,253.37,380.7,263.44,378.34,255.3ZM397,248.44c-3-3-3.86-13.5-3.86-13.5,7.72-1.71,9.22-.43,9.22-.43C403.2,239.87,397,248.44,397,248.44Z" fill="#fff"/><path d="M500.35,251H486l-20.43,59.1h12.17l4.35-13.91h22.59l4.78,13.91h12.61ZM484.7,286.2l8.69-22.6,8.26,22.6Z" fill="#fff"/><circle cx="443.38" cy="462.56" r="34.06" fill="#18ec46"/><path d="M443.38,505.64a43.08,43.08,0,1,1,43.08-43.08A43.13,43.13,0,0,1,443.38,505.64Zm0-85.16a42.08,42.08,0,1,0,42.08,42.08A42.13,42.13,0,0,0,443.38,420.48Z" fill="#18ec46"/><rect x="437.65" y="442.03" width="11.67" height="22.17" rx="5.83" fill="#f0f0ff"/><path d="M443.48,469.75a12.54,12.54,0,0,1-12-8.68.52.52,0,1,1,1-.31,11.56,11.56,0,0,0,22-.12.49.49,0,0,1,.6-.34h0a.5.5,0,0,1,.33.62A12.51,12.51,0,0,1,443.48,469.75Z" fill="#f0f0ff"/><rect x="442.98" y="469.25" width="1" height="10.4" fill="#f0f0ff"/><ellipse cx="443.48" cy="479.98" rx="7.5" ry="1.39" fill="#f0f0ff"/><rect x="409.45" y="595.17" width="66.93" height="12.55" rx="6.27" fill="#18ec46"/><path d="M602.27,463.69H551.79A6.68,6.68,0,0,1,545.1,457v0h0l-.79-28.54a6.71,6.71,0,0,1,6.69-6.69h50.49Z" fill="#18ec46"/><path d="M602.27,463.69H551.79A6.68,6.68,0,0,1,545.1,457v0h0l-.79-28.54a6.71,6.71,0,0,1,6.69-6.69h50.49Z" opacity="0.2" style="isolation:isolate"/><path d="M593.58,629.77H551c-9.72-2.28-9.72-12-9.72-12V603.52c-.57-13.72,5.72-21.15,5.72-21.15l76-118.91,44.22-.33L585.07,588.42S575.34,628,593.58,629.77Z" fill="#18ec46"/><path d="M593.58,629.77H551c-9.72-2.28-9.72-12-9.72-12V603.52c-.57-13.72,5.72-21.15,5.72-21.15l76-118.91,44.22-.33L585.07,588.42S575.34,628,593.58,629.77Z" opacity="0.2" style="isolation:isolate"/><path d="M722.52,468l-76,118,74.11-.53a10.94,10.94,0,0,1,11,10.88h0v22.49a10.94,10.94,0,0,1-10.93,10.95H593.58c-18.24-1.82-8.51-41.35-8.51-41.35l82.11-125.29-44.22.33-31.18.24a4.24,4.24,0,0,1-4.28-4.2h0V426a4.24,4.24,0,0,1,4.24-4.24h133.2a12,12,0,0,1,12.2,11.8h0v1.27C735.7,449.25,722.52,468,722.52,468Z" fill="#18ec46"/><path d="M93.27,491.78c0,.58,4.65,7.26-6.53,7.26,0,0-18-.87-23.24.3,0,0-40.65,4.42-30.71-6.29l48.87-1.27Z" fill="#2f2e41"/><path d="M88.19,496s5.38.29,5.08-4.22l-.72-14.66-15-7.56-2.9.88S69.6,471,62.49,478c0,0-7.56,6.24-17,7.11,0,0-10.59.72-12.71,7.95a2.5,2.5,0,0,0,1.7,3.11h.09a63.86,63.86,0,0,0,28.78.39s3.19-1.89,13.07-.44C76.43,496.14,84.71,496.58,88.19,496Z" fill="#18ec46"/><path d="M88.19,496s5.38.29,5.08-4.22l-.72-14.66-15-7.56-2.9.88S69.6,471,62.49,478c0,0-7.56,6.24-17,7.11,0,0-10.59.72-12.71,7.95a2.5,2.5,0,0,0,1.7,3.11h.09a63.86,63.86,0,0,0,28.78.39s3.19-1.89,13.07-.44C76.43,496.14,84.71,496.58,88.19,496Z" fill="#fff" opacity="0.2" style="isolation:isolate"/><path d="M131.28,513.62c10.39.44,16.13-5.19,16.13-5.19,4-2.87,10.6-3,10.6-3,8.83-.89,4.49-10.71,4.49-10.71,1.78,6.74-3.77,7.74-3.77,7.74-7.54,1.38-9.52,2.18-9.52,2.18-6.75,4.16-11.31,6.54-23.61,6.54s-12.9-2.57-12.9-2.57a5,5,0,0,1,.16-2.45h-.14C103.78,515.5,131.28,513.62,131.28,513.62Z" fill="#2f2e41"/><path d="M158.33,460.22l-.59,19s-3.38,8.54-10.32,2.39-8.73-4.57-8.73-4.57l.6-14.88Z" fill="#f9b499"/><path d="M112.7,508.63s.6,2.57,12.9,2.57,16.86-2.38,23.61-6.54c0,0,2-.8,9.52-2.18,0,0,5.55-1,3.77-7.74l-4.76-15.48s-3.18,8.34-10.32,2.38c0,0-5.55-5.35-8.73-4.56s-6.94,12.3-6.94,12.3a23.34,23.34,0,0,1-7.74,7.54c-4,2.16-9.89,5.28-11.15,9.26A5,5,0,0,0,112.7,508.63Z" fill="#18ec46"/><path d="M112.7,508.63s.6,2.57,12.9,2.57,16.86-2.38,23.61-6.54c0,0,2-.8,9.52-2.18,0,0,5.55-1,3.77-7.74l-4.76-15.48s-3.18,8.34-10.32,2.38c0,0-5.55-5.35-8.73-4.56s-6.94,12.3-6.94,12.3a23.34,23.34,0,0,1-7.74,7.54c-4,2.16-9.89,5.28-11.15,9.26A5,5,0,0,0,112.7,508.63Z" fill="#fff" opacity="0.2" style="isolation:isolate"/><path d="M98.94,458S94,470,92.55,477.12c0,0-7.7,7.84-12.2-.44,0,0-2.61-5.08-5.66-6.24l7.26-24Z" fill="#f9b499"/><path d="M248.52,289.86l.58,7.72s-40.91,12.16-72.36,1.74l.77-12.93,38.6-7.91Z" fill="#f9b499"/><path d="M189.16,185.82c12.14,16.34,36.44,4.86,36.44,4.86-6.62-10.38-4.19-25.63-4.19-25.63l3.09-13.25-3.76-4.2-1.39.59c.65,14.06-4.34,25.5-12.92,27.49a12.15,12.15,0,0,1-5.3,0v.19C201.3,182.06,189.16,185.82,189.16,185.82Z" fill="#f9b499"/><path d="M237.31,195.76a12.9,12.9,0,0,1-1.77-9.72" fill="none" stroke="#ed1c24" stroke-miterlimit="10"/><path d="M271.08,232.69c-3.45,1.67-15,6.35-27.13,1.17,0,0,22.19,53.77,3.41,56.33,0,0-4.9,1.71-19.41-.85,0,0-7.68-1.28-20.06,1.49,0,0-36.06,4.91-33.28-6.61,0,0,2.77-25.18-1.07-37.34l-10.24-22s7.37-34.66,20.11-36.21l5.75-2.87s8.92,16.08,36.44,4.86l20.48-7.81s19.63,5.12,22.19,20.48L272,231A1.61,1.61,0,0,1,271.08,232.69Z" fill="#18ec46"/><path d="M162.37,217.79l7.11,5.19,7.26,4.69s-6.69,1.37-14.51-3.2l-7.82,1.91-8.83-7.9a.76.76,0,0,1-.05-1.07.78.78,0,0,1,.53-.25l13.41-.28A4.66,4.66,0,0,1,162.37,217.79Z" fill="#2f2e41"/><path d="M178.55,242.59s-1.32,5.63-4.19,7.51a105.38,105.38,0,0,1,.67,29.78s-9.75,10.92-17,8.72a3.78,3.78,0,0,1-2.24-2c-1.72-3.52-6-14.15-1.11-25.51,0,0,3.31-6.63-.89-13l-6.74-10.83s-5.08-6.73-1.87-13.91c0,0,1.43-.78,2,3.64,0,0,1.54,7.73,4.63,7.62,0,0,1.88.33-.33-4.86,0,0-2.87-4.64-2.65-8.17l4.75,4.09Z" fill="#f9b499"/><path d="M174.36,250.1a16.86,16.86,0,0,0-3.07,5.11,14.82,14.82,0,0,0-1,5.74,8.31,8.31,0,0,0,.24,1.41c.12.5.24,1,.34,1.5a26.33,26.33,0,0,1,.43,3.05,11.73,11.73,0,0,1-.84,6,14.44,14.44,0,0,0,.06-6c-.16-1-.34-2-.58-2.94l-.36-1.45a8.58,8.58,0,0,1-.28-1.58,13.32,13.32,0,0,1,.26-3.15,15.1,15.1,0,0,1,1-3A12.93,12.93,0,0,1,174.36,250.1Z" fill="#f7a48b"/><path d="M166.73,238.72c-.4,1-.76,1.9-1.17,2.82-.21.44-.41.91-.65,1.35a8.89,8.89,0,0,1-.83,1.35,6.28,6.28,0,0,1,.57-3.11,6.59,6.59,0,0,1,.83-1.37A3.49,3.49,0,0,1,166.73,238.72Z" fill="#f7a48b"/><path d="M249.1,297.58s19.52,54.91-8,62.54c0,0-14.51,7.87-46.24,6.39,0,0-36.89-.25-41.07,1.23a72.43,72.43,0,0,0,1.72,9.59s6.79,14.8,5,51.62v23s2.06,9.42-2.35,10c0,0-23,11.19-22.68-1.47,0,0-1.18-41.23-8.84-65.68L114,426.29a150.49,150.49,0,0,0-8.84,32.7s-20.32,3.24-26.8-7.95l6.77-20L104,350.9s.89-15.91,22.39-20.62c0,0,26.6-13.3,43.81-17.74a6.18,6.18,0,0,0,4.5-4.55l2.08-8.67S204.57,310,249.1,297.58Z" fill="#2f2e41"/><g opacity="0.2"><path d="M216.77,314.38a50.32,50.32,0,0,0-9.42-.49L205,314c-.79,0-1.58.11-2.36.17s-1.57.11-2.36.19l-2.34.28-2.35.29-2.33.38-2.33.4-1.17.19-1.15.25-4.63,1c-1.54.35-3.06.76-4.59,1.14A223.91,223.91,0,0,0,143.84,331c-.72.32-1.45.62-2.15,1l-2.13,1-4.25,2.06-2.13,1c-.71.34-1.42.67-2.13,1.07A20,20,0,0,0,121,352.74c-.16,1.58-.22,3.16-.24,4.74a109.14,109.14,0,0,0,1.69,18.83c.54,3.11,1.15,6.2,1.86,9.26.33,1.54.71,3.07,1.09,4.6s.79,3,1.19,4.56c-1.43-6.12-2.73-12.28-3.64-18.5a107.8,107.8,0,0,1-1.4-18.73,40.54,40.54,0,0,1,.31-4.67,19.25,19.25,0,0,1,.94-4.51A19,19,0,0,1,131.51,338c.68-.37,1.38-.7,2.09-1l2.13-1,4.25-2,2.12-1c.71-.34,1.44-.63,2.16-1a232.1,232.1,0,0,1,35.32-13c1.51-.41,3-.84,4.54-1.21l4.6-1.05,1.14-.26,1.16-.21,2.32-.43,2.31-.42,2.33-.32,2.33-.34c.78-.1,1.56-.16,2.34-.25l2.35-.23,2.35-.13A53,53,0,0,1,216.77,314.38Z"/></g><path d="M201,174.58s1.18,3.72-3.83,7.31c0,0,22.67,1.9,20.62-20.41Z" fill="#f7a48b"/><path d="M178.46,141.37c.12.88.26,1.76.43,2.64h0c.17.89.35,1.79.57,2.7a55.35,55.35,0,0,0,5.85,15.09c.06.11.12.22.19.33,3.61,6.14,8.17,10.63,12.89,12.64l.32.13a15.76,15.76,0,0,0,2.42.75,12.15,12.15,0,0,0,5.3,0c8.58-2,13.57-13.43,12.92-27.49,0-1.12-.11-2.23-.25-3.34a59.17,59.17,0,0,0-1.2-7c-3-13-9.89-23.24-17.4-27.32-13.19,3.07-19.74,14.78-19.74,14.78-.87.76-1.67,1.49-2.38,2.21A51.2,51.2,0,0,0,178.46,141.37Z" fill="#f9b499"/><path d="M176.12,147.16c4.2,4.64.67,19.88.67,19.88a20.45,20.45,0,0,0,0,8.32,6.18,6.18,0,0,0,2,3.34c4.26,3.74,4.64,10,4.64,10l5.75-2.87c12.51-3.52,12-10.13,12-10.13a17.35,17.35,0,0,1-2.42-.75l-.32-.13c-5.8-2.7-9.49-6.92-12.89-12.64-.07-.11-.13-.22-.19-.33a67.88,67.88,0,0,1-6.42-17.79h0c-.23-1.08-.34-1.71-.34-1.71a4.88,4.88,0,0,0-.09-.93c-.68-8.32,3.85-7.91,3.85-7.91,5.31-3,12.6,3.07,15.29,5.6a17.31,17.31,0,0,0,4.7,3.2,16.92,16.92,0,0,0,12.7.48,11.38,11.38,0,0,0,3.76,1.55l.34.56,1.64,2.75,3.76,4.2c-8.77,26,1.1,38.88,1.1,38.88,7.51,10.38-1.32,17.23-1.32,17.23,11,2.2,13-12.15,13-12.15,4,5.52,9.28,5.74,9.28,5.74,6.62.44,6.41-5.74,6.41-5.74-12.82-.45-6-15.69-6-15.69,6.18-12.59-2.87-22.09-2.87-22.09-4.42-4.19-6.63-14.36-6.63-14.36a53.59,53.59,0,0,0-19-30.67,14.71,14.71,0,0,0-6.71-2.88,29.09,29.09,0,0,0-11.27.35c-13.19,3.07-19.74,14.78-19.74,14.78-.87.76-1.67,1.49-2.38,2.21C165.42,140.42,176.12,147.16,176.12,147.16Z" fill="#2f2e41"/><path d="M217.43,147.82c0,2.93,1.93,5.3,4.31,5.3s4.31-2.37,4.31-5.3a7,7,0,0,0-.16-1.44,5.64,5.64,0,0,0-.59-1.54c-.19-.05-.39-.08-.58-.12a13.71,13.71,0,0,0-1.57-.18h-1.49a11.74,11.74,0,0,1-2.8-.59,5.13,5.13,0,0,0-.82,1.24h0A6.3,6.3,0,0,0,217.43,147.82Z" fill="#f9b499"/><path d="M211,138.57a14.83,14.83,0,0,0,4.16,4.55,13.58,13.58,0,0,0,2.41,1.36h0a11.69,11.69,0,0,0,3.5.88h1.53a11.65,11.65,0,0,1,1.45.12,10.54,10.54,0,0,1,1.37.21c.49.11,1,.24,1.46.38a11.7,11.7,0,0,1,2.66,1.11,3.37,3.37,0,0,1,1.78,2.16,2.24,2.24,0,0,0-.31-1.52,5.73,5.73,0,0,0-1-1.25,10.18,10.18,0,0,0-2.7-1.63,12.5,12.5,0,0,0-2.45-.79l-.58-.12a13.71,13.71,0,0,0-1.57-.18h-1.49a11.74,11.74,0,0,1-2.8-.59,14.65,14.65,0,0,1-2.6-1.14A27,27,0,0,1,211,138.57Z" fill="#2f2e41"/><path d="M178.42,242.55a12.92,12.92,0,0,1-2.17,5.6s-5.85-3.61-8.28-9.24Z" fill="#f7a48b"/><path d="M246.08,256.9c-20.69-2.77-42.46-22.83-42.46-22.83-9-9-17.28-9.6-17.28-9.6a52.36,52.36,0,0,1-8.11-.42c-7-3-8.75-1.07-8.75-1.07l7.26,4.69a23.07,23.07,0,0,1-14.51-3.2c-8.75-2.77-7.47.43-7.47.43-5.12,1.49,1.5,5.55,1.5,5.55,7.57,9.39,24.69,14.45,32.1,16.27a32.26,32.26,0,0,0,4.79.86,2.14,2.14,0,0,1,.62.06,16.27,16.27,0,0,1,10,5.52A135.33,135.33,0,0,0,235,279.31c26,14.93,30.72,6,30.72,6,6.41-4,3.56-51.78,3.56-51.78s-12.94,5.91-25.32.36C244,233.86,247.15,248.58,246.08,256.9Z" fill="#f9b499"/><path d="M174.4,234.13s-14.43-5.31-19.64-9.23" fill="none" stroke="#f7a48b" stroke-miterlimit="10"/><path d="M174.58,237.37s-12.52-4.48-18.32-6.92" fill="none" stroke="#f7a48b" stroke-miterlimit="10"/><line x1="173.68" y1="239.71" x2="160.72" y2="234.49" fill="none" stroke="#f7a48b" stroke-miterlimit="10"/><path d="M246.08,256.9s1.44,6.54,10.79,9.72" fill="none" stroke="#f7a48b" stroke-miterlimit="10"/><path d="M765.74,548.56l-60.44,1.19,17.92-47.06,33,9.79c-3.82,7.17-5.45,20.81-1.84,22,.56.18.89.26.89.26C766.94,538,765.74,548.56,765.74,548.56Z" fill="#18ec46"/><path d="M765.74,548.56l-60.44,1.19,17.92-47.06,33,9.79c-3.82,7.17-5.45,20.81-1.84,22,.56.18.89.26.89.26C766.94,538,765.74,548.56,765.74,548.56Z" fill="#18ec46"/><path d="M765.74,548.56l-60.44,1.19,17.92-47.06,33,9.79c-3.82,7.17-5.45,20.81-1.84,22,.56.18.89.26.89.26C766.94,538,765.74,548.56,765.74,548.56Z" fill="#fff" opacity="0.2" style="isolation:isolate"/><path d="M765.74,548.56l-26.25.53c1.59-5.36,1.81-8.87,14.86-14.65.56.18.89.26.89.26C766.94,538,765.74,548.56,765.74,548.56Z" opacity="0.2" style="isolation:isolate"/><path d="M725.37,549.75H659l7.23-39,30.41,3.35c-1.08,17.12,13.77,20.42,17.38,21.57l.89.26C726.56,539.24,725.37,549.75,725.37,549.75Z" fill="#18ec46"/><path d="M725.37,549.75H659l7.23-39,30.41,3.35c-1.08,17.12,13.77,20.42,17.38,21.57l.89.26C726.56,539.24,725.37,549.75,725.37,549.75Z" fill="#fff" opacity="0.2" style="isolation:isolate"/><path d="M725.37,549.75H699.3A33.09,33.09,0,0,1,714,535.64l.89.26C726.56,539.24,725.37,549.75,725.37,549.75Z" opacity="0.2" style="isolation:isolate"/><path d="M685,515.59c.21,1.29.47,2.57.79,3.84s.63,2.53,1,3.78a43,43,0,0,0,2.86,7.25,23.85,23.85,0,0,0,4.45,6.32,14.7,14.7,0,0,0,6.64,3.89,13.62,13.62,0,0,1-3.72-1.26,15.32,15.32,0,0,1-3.22-2.32,18.07,18.07,0,0,1-2.59-3,26.56,26.56,0,0,1-2.05-3.39,39.55,39.55,0,0,1-2.78-7.38A44.11,44.11,0,0,1,685,515.59Z" opacity="0.2" style="isolation:isolate"/><path d="M743.65,509.27c-.53,1.16-1.07,2.31-1.56,3.48s-1,2.33-1.48,3.51c-.93,2.35-1.82,4.73-2.51,7.16a27.91,27.91,0,0,0-1.29,7.42,7.66,7.66,0,0,0,.72,3.62,3.17,3.17,0,0,0,.21.41l.28.37.14.19a1.29,1.29,0,0,0,.17.16l.35.31a6.64,6.64,0,0,0,.79.51l.88.34a4.41,4.41,0,0,1-3.06-2.16,8,8,0,0,1-.91-3.74,26,26,0,0,1,1.19-7.58,63.72,63.72,0,0,1,2.65-7.18A70.12,70.12,0,0,1,743.65,509.27Z" opacity="0.2" style="isolation:isolate"/><path d="M759.73,514.27l-47.55-13.59s44.46-80.58,50.64-88c0,0-11.43,3.7-17,6.17l-32-58.9,3-3.15S822.1,345.68,828.9,381.5c0,0,2.47,13.89-19.76,53.1C809.13,434.61,776.71,494.2,759.73,514.27Z" fill="#2f2e41"/><path d="M759.73,514.27l-47.55-13.59s44.46-80.58,50.64-88c0,0-11.43,3.7-17,6.17l-32-58.9,3-3.15S822.1,345.68,828.9,381.5c0,0,2.47,13.89-19.76,53.1C809.13,434.61,776.71,494.2,759.73,514.27Z" opacity="0.2" style="isolation:isolate"/><path d="M737.4,332.14l3.69,24.61s-1.54,8.31,9.54,12.31l16,4.92,22.15-11.69-19.69-13.84.92-20.93H737.43Z" fill="#f7a48b"/><path d="M619.08,375.67c3.79-14.25,19.63-70.78,38.8-96.66,0,0,13-26.62,43.53-27.84,0,0,12-.85,16.71-.12l26.46,11.4,11.07,1.49a4.16,4.16,0,0,1,2,1.95s11.71.49,14.31,26.67c0,0,2,23.09.32,35.29L741,327.52S720.44,352.89,713.85,360l-92.28,18.35a2.14,2.14,0,0,1-2.53-1.66,2.2,2.2,0,0,1,0-1Z" fill="#18ec46"/><path d="M717.59,251.74l10.25-14.12,5.75-6.37,9.49,6.75,1.5,24.45-1.88,2.07s8.4,7.15,5.26,13.53a4.67,4.67,0,0,1-3.19,2.48c-4.13.91-14.92,1.43-31.4-11.06,0,0-11.87-10.08-4.07-15.61A10.2,10.2,0,0,1,717.59,251.74Z" fill="#f9b499"/><path d="M622.53,378.15s-11.6,27.53,3.89,39.57a20,20,0,0,0,12.38,4l36-.26,12.36,2.12s-22.61,75.61-26,89l46.34,3.17s29-52,38.79-86.59c0,0,11-40.74,2.68-49L713.85,360Z" fill="#2f2e41"/><path d="M657.88,279l9.39,41.44,39.27.24s10.24-63.66-20-66.34C686.54,254.35,670.44,257.34,657.88,279Z" fill="#18ec46"/><path d="M657.88,279l9.39,41.44,39.27.24s10.24-63.66-20-66.34C686.54,254.35,670.44,257.34,657.88,279Z" opacity="0.2" style="isolation:isolate"/><path d="M741,327.52l4.79-6.16a14.78,14.78,0,0,0,1.16-1.57l1.13-1.59,2.25-3.18c.39-.52.73-1.08,1.07-1.63l1-1.65,2.08-3.29,1.88-3.41.94-1.71c.31-.56.56-1.17.84-1.75l1.67-3.51,1.42-3.62.35-.91.29-.93.58-1.86c.42-1.22.68-2.49,1-3.75a40,40,0,0,0,1-7.7v-1.94c0-.65-.1-1.3-.15-1.94a16.4,16.4,0,0,0-.86-3.79,15.44,15.44,0,0,1,1,3.77c.07.65.18,1.29.22,1.94l.08,2a39.93,39.93,0,0,1-.84,7.78l-.41,1.92a6.33,6.33,0,0,1-.25.95l-.28.94-.56,1.88-.29.93-.35.92-1.41,3.66-1.66,3.55c-.28.58-.54,1.18-.85,1.76l-1,1.7L755,308.71,752.86,312l-1.06,1.65c-.35.55-.71,1.1-1.11,1.61l-2.32,3.15L747.21,320c-.38.53-.76,1-1.19,1.55Z" opacity="0.2" style="isolation:isolate"/><g opacity="0.2"><path d="M741.9,285.09c-11.58,0-28.5-9.59-29.37-10.09a.57.57,0,1,1,.56-1h0c.25.14,25.61,14.52,35,8.45,2.68-1.74,3.79-5.11,3.29-10a.57.57,0,0,1,.44-.66.59.59,0,0,1,.66.45v.1c.54,5.35-.74,9.07-3.8,11.06A12.22,12.22,0,0,1,741.9,285.09Z"/></g><path d="M637.78,375.51c1.46-6.5,3.11-13,4.84-19.39s3.59-12.84,5.56-19.21,4.09-12.69,6.46-18.92a155,155,0,0,1,8.06-18.29l-2.12,4.52c-.68,1.52-1.3,3.07-2,4.6l-.49,1.15-.45,1.16-.9,2.33-.9,2.32-.85,2.36c-.55,1.57-1.14,3.12-1.67,4.7l-1.62,4.72c-1,3.17-2.08,6.33-3,9.52s-2,6.36-2.92,9.55l-2.76,9.6c-.92,3.2-1.8,6.41-2.67,9.63S638.62,372.29,637.78,375.51Z" opacity="0.2" style="isolation:isolate"/><path d="M666.11,315.44c3.4-.38,6.81-.7,10.22-1s6.81-.57,10.22-.86,6.83-.5,10.24-.72l5.12-.31c1.71-.09,3.42-.19,5.13-.26-1.7.19-3.41.35-5.11.53l-5.11.47c-3.4.31-6.82.57-10.22.85s-6.83.51-10.24.72S669.53,315.29,666.11,315.44Z" fill="#18ec46"/><path d="M626.5,407.25a14.06,14.06,0,0,0,3.86,2.95l1.07.59,1.12.49a18.33,18.33,0,0,0,2.26.9l2.32.76,2.37.55,1.19.28c.39.09.8.13,1.2.2l2.41.36a98.2,98.2,0,0,0,19.47.18l4.85-.57c1.61-.2,3.24-.35,4.83-.66l4.81-.84,2.41-.41c.79-.16,1.59-.35,2.38-.53l4.76-1.06c1.59-.36,3.18-.69,4.75-1.14l9.42-2.55.56-.15-.27.51c-2,3.88-3.86,7.83-5.67,11.8l-2.69,6-2.57,6c-3.38,8.06-6.45,16.24-9.27,24.5l-1,3.11c-.36,1-.7,2.06-1,3.11l-1.93,6.26c-.65,2.08-1.2,4.2-1.8,6.3l-.88,3.15c-.29,1.05-.53,2.12-.8,3.18L673,486.87l-1.38,6.4-.69,3.2-.56,3.23-1.13,6.46,1-6.47.53-3.24.65-3.21,1.3-6.43,1.53-6.37c.27-1.06.5-2.13.79-3.19l.87-3.16c.59-2.1,1.13-4.22,1.77-6.31l1.91-6.27c.31-1.05.65-2.09,1-3.12l1-3.12q4.17-12.42,9.17-24.56c3.34-8.09,6.94-16.06,11-23.84l.29.36-9.45,2.52c-1.57.45-3.17.77-4.76,1.12l-4.77,1.05c-.8.17-1.59.36-2.39.51l-2.42.41-4.82.82c-1.6.31-3.23.44-4.85.64l-4.86.55-4.88.27c-.82,0-1.63.11-2.45.11H654c-1.63,0-3.27,0-4.89-.16l-2.44-.2-1.22-.1a8.45,8.45,0,0,1-1.21-.19l-2.41-.39c-.41-.07-.81-.12-1.21-.21l-1.19-.3L637,413.1l-2.32-.8a18.45,18.45,0,0,1-2.26-.92l-1.11-.51-1.07-.6A14.19,14.19,0,0,1,626.5,407.25Z" opacity="0.2" style="isolation:isolate"/><path d="M704.68,504.84c-3.45.42-6.9.78-10.35,1.14s-6.9.65-10.35,1-6.91.59-10.37.85l-5.19.38c-1.73.11-3.46.24-5.19.33,1.72-.22,3.44-.4,5.17-.6l5.17-.54c3.45-.35,6.9-.65,10.36-1s6.91-.59,10.36-.85S701.21,505,704.68,504.84Z" opacity="0.2" style="isolation:isolate"/><path d="M769.47,423.26c-2.6,2.68-5,5.53-7.41,8.42-1.19,1.45-2.37,2.9-3.51,4.38l-1.72,2.21-1.67,2.26q-6.69,9-12.62,18.55c-1,1.58-1.93,3.2-2.9,4.79l-1.45,2.41-1.38,2.44-2.75,4.89-2.62,5-1.31,2.48c-.44.83-.83,1.68-1.24,2.52l-2.47,5-.62,1.26-.59,1.27-1.16,2.56-2.32,5.11,2.2-5.17,1.1-2.58.55-1.29.59-1.28,2.4-5.08c.41-.84.78-1.7,1.21-2.53l1.28-2.5,2.57-5,2.74-4.91,1.37-2.45,1.44-2.42c1-1.6,1.9-3.23,2.89-4.82,4-6.34,8.21-12.54,12.74-18.51A163.66,163.66,0,0,1,769.47,423.26Z" fill="#2f2e41"/><rect x="734.4" y="482.65" width="0.56" height="34.91" transform="translate(212.75 1219.44) rotate(-88.28)" fill="#2f2e41"/><path d="M688.64,422a57.94,57.94,0,0,1,5.64-8,68,68,0,0,1,6.79-7,55.69,55.69,0,0,1,7.82-5.85,46.14,46.14,0,0,1,8.78-4.24l-2.21,1-1.1.51-1.06.59-2.13,1.17-2,1.3c-.69.42-1.34.9-2,1.37s-1.34.91-2,1.42l-1.9,1.52c-.62.51-1.21,1.06-1.82,1.59a76.57,76.57,0,0,0-6.84,6.88L693,416.15l-1.51,1.9C690.5,419.32,689.55,420.63,688.64,422Z" opacity="0.2" style="isolation:isolate"/><path d="M794.71,360.79l11.07-9.5a2.84,2.84,0,0,1,1.86-.69h24.77l1.81,2.37s.87.88-.28,2.1l-29.87,25.26L778.8,371Z" fill="#18ec46"/><ellipse cx="809.66" cy="355.89" rx="1.98" ry="0.92" transform="translate(-65.99 231.61) rotate(-15.65)" fill="#fff"/><ellipse cx="806.57" cy="358.24" rx="1.98" ry="0.92" transform="translate(-66.74 230.86) rotate(-15.65)" fill="#fff"/><ellipse cx="803.6" cy="360.72" rx="1.98" ry="0.92" transform="translate(-67.52 230.15) rotate(-15.65)" fill="#fff"/><path d="M742.7,264.52l3.09-3.18-8.86-22.75S729.44,251.65,742.7,264.52Z" fill="#f7a48b"/><ellipse cx="755.49" cy="235.26" rx="29.85" ry="18.89" transform="translate(352.86 916.44) rotate(-76.71)" fill="#f9b499"/><path d="M739.88,224.45s11.66,0,17.68-10a13.51,13.51,0,0,0,5.08,4,16.75,16.75,0,0,0,2.05.86,10.07,10.07,0,0,1,6,5.91s.94-2.45-3.76-6.4c0,0,9.4,3.57,8.08,10.72,0,0,11.29-10.16,4.89-22.57,0,0-6.39-11.28-25.58-6.58,0,0-6-8.28-17.86-.75,0,0-11.67,5.26-8.66,38Z" fill="#2f2e41"/><ellipse cx="738.33" cy="230.09" rx="4.88" ry="6.83" transform="translate(-33.51 181.82) rotate(-13.73)" fill="#f9b499"/><path d="M668.48,320.76l4.92,38.45s-.61,11.7,13.54,14.47l70.15,17.23s19.08,4.92,34.46,3.07c0,0,10.77,1.23,7.08-3.07,0,0,11.69,2.15,8.92-4.62,0,0,5.48-.5,4.56-3.06a2.09,2.09,0,0,0-1.22-1.2l-28.48-11.28a.21.21,0,0,1-.1-.28h0a.24.24,0,0,1,.1-.1l2.1-1.31s9.41-2.87,10.4-8.86a1,1,0,0,0-.78-1.18h0a1.07,1.07,0,0,0-.56.05c-3.07,1-10.56,3.29-15.82,3.53,0,0-14.47.31-19.7,11.38l-55.69-24,2.77-29.53Z" fill="#f9b499"/><path d="M807.55,386.29a46,46,0,0,1-7-1.14,46.75,46.75,0,0,1-6.82-2.11A50.16,50.16,0,0,1,807.55,386.29Z" fill="#f7a48b"/><path d="M798.63,390.91a20.63,20.63,0,0,1-4.82-.58,20.24,20.24,0,0,1-4.6-1.54A23.58,23.58,0,0,1,798.63,390.91Z" fill="#f7a48b"/><path d="M791.55,394a11.19,11.19,0,0,1-6.18-2.42,9.68,9.68,0,0,1,3.27.75A10.15,10.15,0,0,1,791.55,394Z" fill="#f7a48b"/><path d="M138.6,104.47H73.87a6.23,6.23,0,0,0-6.23,6.23h0v16.18a6.23,6.23,0,0,0,6.23,6.23h42.72c6.77,9,17.41,10.6,17.41,10.6-3.22-2-4-7.06-4.09-10.6h8.69a6.23,6.23,0,0,0,6.23-6.23V110.7A6.23,6.23,0,0,0,138.6,104.47Z" fill="#18ec46" opacity="0.35" style="isolation:isolate"/><path d="M86.17,124.6V111.44h1.75v5.4h6.84v-5.4H96.5V124.6H94.76v-6.21H87.92v6.21Z" fill="#fff"/><path d="M105.72,121.53l1.67.21a4.11,4.11,0,0,1-1.46,2.27,4.55,4.55,0,0,1-7.28-4.1,5.28,5.28,0,0,1,1.24-3.73,4.17,4.17,0,0,1,3.22-1.33,4,4,0,0,1,3.12,1.3,5.2,5.2,0,0,1,1.22,3.66v.43h-7.12a3.68,3.68,0,0,0,.89,2.41,2.65,2.65,0,0,0,2,.84,2.48,2.48,0,0,0,1.51-.47A3.07,3.07,0,0,0,105.72,121.53Zm-5.31-2.61h5.33a3.28,3.28,0,0,0-.61-1.81,2.45,2.45,0,0,0-2-.93,2.59,2.59,0,0,0-1.88.74A3,3,0,0,0,100.41,118.92Z" fill="#fff"/><path d="M109.38,124.6V111.44H111V124.6Z" fill="#fff"/><path d="M113.47,124.6V111.44h1.62V124.6Z" fill="#fff"/><path d="M117,119.83a4.91,4.91,0,0,1,1.47-3.92,4.43,4.43,0,0,1,3-1.06,4.3,4.3,0,0,1,3.22,1.29,4.85,4.85,0,0,1,1.25,3.56,6.28,6.28,0,0,1-.56,2.89,3.89,3.89,0,0,1-1.6,1.64,4.78,4.78,0,0,1-2.31.59,4.25,4.25,0,0,1-3.23-1.29A5.1,5.1,0,0,1,117,119.83Zm1.66,0a4.11,4.11,0,0,0,.8,2.75,2.64,2.64,0,0,0,4,0,4.09,4.09,0,0,0,.8-2.79,3.91,3.91,0,0,0-.8-2.68,2.67,2.67,0,0,0-3.77-.23,2.5,2.5,0,0,0-.23.23,4,4,0,0,0-.81,2.73Z" fill="#fff"/><path d="M128.68,121.33l-.49-7v-2.91h2v2.91l-.47,7Zm-.42,3.27v-1.84h1.86v1.84Z" fill="#fff"/><path d="M754.88,150.25h64.73a6.23,6.23,0,0,1,6.23,6.23v16.18a6.23,6.23,0,0,1-6.23,6.23H776.89c-6.77,9-17.41,10.6-17.41,10.6,3.22-2,4-7.06,4.09-10.6h-8.69a6.23,6.23,0,0,1-6.23-6.23V156.48A6.23,6.23,0,0,1,754.88,150.25Z" fill="#18ec46" opacity="0.35" style="isolation:isolate"/><path d="M756.91,156.66h10.35v13.16h-1.75V158.21h-6.86v11.61h-1.74Z" fill="#fff"/><path d="M769.9,173.47V160.28h1.47v1.24a3.62,3.62,0,0,1,1.18-1.09,3.25,3.25,0,0,1,1.59-.36,3.74,3.74,0,0,1,3.56,2.4,6.8,6.8,0,0,1-.05,5.15,4,4,0,0,1-1.52,1.79A3.92,3.92,0,0,1,774,170a2.93,2.93,0,0,1-1.45-.35,3.13,3.13,0,0,1-1-.86v4.64Zm1.46-8.36a4.12,4.12,0,0,0,.75,2.72,2.3,2.3,0,0,0,1.8.88,2.35,2.35,0,0,0,1.85-.91,4.34,4.34,0,0,0,.77-2.83,4.22,4.22,0,0,0-.75-2.73,2.28,2.28,0,0,0-1.79-.91,2.36,2.36,0,0,0-1.83,1,4.32,4.32,0,0,0-.8,2.78Z" fill="#fff"/><path d="M780.13,160.28h1.61v7.28l4.48-7.28H788v9.54h-1.62v-7.23l-4.48,7.23h-1.74Z" fill="#fff"/><path d="M790.41,160.28h3.73a7.11,7.11,0,0,1,2,.23,2.67,2.67,0,0,1,1.15.84,2.36,2.36,0,0,1,.48,1.47,2.48,2.48,0,0,1-.28,1.19,2.36,2.36,0,0,1-.85.84,2.21,2.21,0,0,1,1.11.84,2.45,2.45,0,0,1,.45,1.46,2.56,2.56,0,0,1-1,2,4.21,4.21,0,0,1-2.56.66h-4.3Zm1.62,4h1.72a6.14,6.14,0,0,0,1.42-.11,1.44,1.44,0,0,0,.69-.44,1.13,1.13,0,0,0,.31-.78,1.1,1.1,0,0,0-.54-1,4.11,4.11,0,0,0-1.83-.3H792Zm0,4.19h2.12a3.94,3.94,0,0,0,1.89-.32,1.26,1.26,0,0,0,.54-1.1,1.38,1.38,0,0,0-.3-.85,1.28,1.28,0,0,0-.77-.49,7.87,7.87,0,0,0-1.53-.1h-2Z" fill="#fff"/><path d="M806.49,166.75l1.67.21a4.11,4.11,0,0,1-1.46,2.27,4.55,4.55,0,0,1-7.28-4.1,5.28,5.28,0,0,1,1.24-3.73,4.17,4.17,0,0,1,3.22-1.33,4,4,0,0,1,3.12,1.3,5.2,5.2,0,0,1,1.22,3.66v.43H801.1a3.68,3.68,0,0,0,.89,2.41,2.65,2.65,0,0,0,2,.84,2.51,2.51,0,0,0,1.52-.47A3.12,3.12,0,0,0,806.49,166.75Zm-5.31-2.61h5.33a3.28,3.28,0,0,0-.61-1.81,2.45,2.45,0,0,0-2-.93,2.59,2.59,0,0,0-1.88.74A3,3,0,0,0,801.18,164.14Z" fill="#fff"/><path d="M808.71,160.28h7.75v1.34h-3.07v8.2h-1.61v-8.2h-3.07Z" fill="#fff"/><path d="M818.87,166.55l-.5-7v-2.92h2v2.92l-.46,7Zm-.43,3.27V168h1.86v1.84Z" fill="#fff"/></svg>