<svg id="e7b8ed24-a714-452f-bdc8-4409bba19620" data-name="Layer 1" xmlns="http://www.w3.org/2000/svg" xmlns:xlink="http://www.w3.org/1999/xlink" width="865.76" height="682.89" viewBox="0 0 865.76 682.89"><defs><clipPath id="a0686cd6-6656-4035-86fc-4c3cc2f333c3"><path id="b8a0787a-497b-491a-87c4-286daaaba5eb" data-name="SVGID" d="M574.8,574l-4.25,16.69a3.91,3.91,0,0,1-3.62,3c-4.29.15-12.3,2-15.91,12.76l-3.33,7.27a1,1,0,0,0,.88,1.43l49.29,1.74,18.64-45.21a3.71,3.71,0,0,0-.55-3.77,70,70,0,0,0-15.57-13.71s-2.4.36-8.65-1.36l-3.48-.72-.76,6.48S582.46,571.06,574.8,574Z" fill="#58eb19"/></clipPath></defs><g id="ac69eef8-2545-4d7e-bf87-69655163cb1a" data-name="freepik--background-simple--inject-1"><path d="M849.53,512.52C867.82,375.08,779.08,192.44,687.22,117,521.27-19.15,383.4,7.18,276.15,55.93S153.69,267.56,79.64,341.23-36.52,514,75.83,612.63s203.06,48.51,320.42,42.25,273.2,43,357.45.17C812.54,625.16,841.51,573.33,849.53,512.52Z" fill="#58eb19"/><path d="M849.53,512.52C867.82,375.08,779.08,192.44,687.22,117,521.27-19.15,383.4,7.18,276.15,55.93S153.69,267.56,79.64,341.23-36.52,514,75.83,612.63s203.06,48.51,320.42,42.25,273.2,43,357.45.17C812.54,625.16,841.51,573.33,849.53,512.52Z" fill="#fff" opacity="0.8" style="isolation:isolate"/></g><g id="be37336f-c53b-4b8e-8531-1b2ee83a64df" data-name="freepik--Floor--inject-1"><path d="M17.25,535.73c10.46,25.34,29.26,51.14,58.58,76.86,112.34,98.63,203.06,48.51,320.42,42.25s273.2,43,357.45.17c51.17-26,79.77-68.67,91.66-119.32Z" fill="#58eb19"/><path d="M17.25,535.73c10.46,25.34,29.26,51.14,58.58,76.86,112.34,98.63,203.06,48.51,320.42,42.25s273.2,43,357.45.17c51.17-26,79.77-68.67,91.66-119.32Z" fill="#fff" opacity="0.5" style="isolation:isolate"/></g><g id="ac451e0f-3356-4cc4-b786-c4b2944a2700" data-name="freepik--background-complete--inject-22"><path d="M49.29,398.8s145.81-82.3,252.22-82.3c104.24,0,245.61,41.58,284,50.89,100.93,24.46,230.84,31.41,230.84,31.41Z" fill="#dbdbdb"/><path d="M816.47,398.8S737,343.62,647.17,343.62c-62.67,0-152.61,22.22-237.32,34.72-32.26,4.75-200.17,20.46-200.17,20.46Z" fill="#c7c7c7"/><path d="M760.88,312.06s-23.39,52.1,14.89,52.1,13.48-53.88,13.48-53.88,8.86-3.91-1.42-33S773,248.14,768.69,248.14c-5.41,0-10.37,12.57-6.74,31.89C762,280.06,748.48,304.16,760.88,312.06Z" fill="#dbdbdb"/><polygon points="779.17 398.62 775.48 320.14 771.8 398.62 779.17 398.62" fill="#a6a6a6"/><polygon points="776.98 353.03 763.08 336.8 773.98 355.19 776.98 353.03" fill="#a6a6a6"/><path d="M87.3,310.21s23.85,53.15-15.19,53.15-13.82-55-13.82-55-9-4,1.45-33.61,15.17-29.67,19.52-29.67c5.51,0,10.65,12.84,6.91,32.55C86.17,277.66,99.93,302.26,87.3,310.21Z" fill="#c7c7c7"/><polygon points="68.61 398.62 72.37 318.54 76.14 398.62 68.61 398.62" fill="#a6a6a6"/><polygon points="70.85 352.12 85.03 335.53 73.91 354.31 70.85 352.12" fill="#a6a6a6"/><path d="M266.72,310.21s-23.94,53.15,15.18,53.15,13.74-55,13.74-55,9.05-4-1.44-33.61S279,245.11,274.67,245.11c-5.5,0-10.63,12.84-6.91,32.55C267.81,277.66,254.06,302.26,266.72,310.21Z" fill="#c7c7c7"/><polygon points="285.38 398.62 281.61 318.54 277.84 398.62 285.38 398.62" fill="#a6a6a6"/><polygon points="283.13 352.12 268.95 335.53 280.07 354.31 283.13 352.12" fill="#a6a6a6"/><path d="M739.7,309.57s12-4.75,21.51,11.8c9.76,17-2.47,28.17-12.18,21.52,0,0-7.62,16-22.86,12.18s-17.7-16-17.7-16-13.51.95-13.82-9.14,9.52-19,9.52-19,.57-25.11,16.94-24.92S739.7,309.57,739.7,309.57Z" fill="#ebebeb"/><polygon points="728.56 398.62 725.12 323.86 721.7 398.62 728.56 398.62" fill="#a6a6a6"/><polygon points="726.59 351.05 736.66 330.97 723.67 349.29 726.59 351.05" fill="#a6a6a6"/><path d="M516.38,314.6s11.32-4.5,20.3,11.14c9.21,16-2.35,26.59-11.5,20.3,0,0-7.19,15.08-21.56,11.49s-16.71-15.09-16.71-15.09-12.75.9-13.11-8.63,9-18,9-18,.54-23.72,16-23.53S516.38,314.6,516.38,314.6Z" fill="#ebebeb"/><polygon points="505.86 398.62 502.63 328.07 499.4 398.62 505.86 398.62" fill="#a6a6a6"/><polygon points="504.01 353.74 513.51 334.79 501.25 352.07 504.01 353.74" fill="#a6a6a6"/><path d="M142.58,289.48s14.7-5.82,26.36,14.47c11.95,20.82-3,34.56-14.93,26.37,0,0-9.34,19.59-28,14.92s-21.7-19.59-21.7-19.59-16.56,1.16-17-11.21,11.66-23.32,11.66-23.32.71-30.8,20.73-30.58S142.58,289.48,142.58,289.48Z" fill="#ebebeb"/><polygon points="128.91 398.62 124.72 306.98 120.5 398.62 128.91 398.62" fill="#a6a6a6"/><polygon points="126.51 340.32 138.83 315.72 122.9 338.16 126.51 340.32" fill="#a6a6a6"/><path d="M674.94,92.66H479.45s19.4-52.95,49.23-52.95,39.18,36.56,39.18,36.56,20.08-19.89,36.61-19.89,30.92,26.24,30.92,26.24S658.75,68.58,674.94,92.66Z" fill="#ebebeb"/><path d="M347.36,106.32H256s20.4-29.57,36.5-29.57,20.84,19.71,20.84,19.71,11.35-9.21,21.87-7.57S347.36,106.32,347.36,106.32Z" fill="#ebebeb"/><path d="M782.84,222.38H691.47s20.42-29.52,36.5-29.52,20.84,19.73,20.84,19.73,11.34-9.21,21.87-7.57S782.84,222.38,782.84,222.38Z" fill="#ebebeb"/><path d="M260.74,180.44H82.81s24.37-54.4,50.44-57.81,38.54,40.43,38.54,40.43,16.81-15.55,30-15.55,23.43,20.42,23.43,20.42S251.67,154,260.74,180.44Z" fill="#ebebeb"/></g><polygon points="813 382.28 52.73 380.3 52.61 356.82 812.88 358.8 813 382.28" fill="#e6e7e8"/><polygon points="813 468.68 52.73 466.69 52.61 443.23 812.88 445.2 813 468.68" fill="#e6e7e8"/><polygon points="68 316.91 83.03 304.39 98.04 316.91 95.23 533.8 70.83 533.8 68 316.91" fill="#ebebeb"/><path d="M86.26,362A3.25,3.25,0,1,1,83,358.8h0A3.25,3.25,0,0,1,86.26,362Z" opacity="0.2" style="isolation:isolate"/><path d="M86.26,454.77A3.25,3.25,0,1,1,83,451.54h0A3.25,3.25,0,0,1,86.26,454.77Z" opacity="0.2" style="isolation:isolate"/><polygon points="145.74 316.91 160.75 304.39 175.78 316.91 172.95 533.8 148.56 533.8 145.74 316.91" fill="#ebebeb"/><path d="M164,454.77a3.23,3.23,0,1,1-3.23-3.23h0A3.22,3.22,0,0,1,164,454.77Z" opacity="0.2" style="isolation:isolate"/><path d="M164,362a3.23,3.23,0,1,1-3.23-3.23h0A3.23,3.23,0,0,1,164,362Z" opacity="0.2" style="isolation:isolate"/><polygon points="223.46 316.91 238.47 304.39 253.5 316.91 250.67 533.8 226.28 533.8 223.46 316.91" fill="#ebebeb"/><path d="M241.72,454.77a3.25,3.25,0,1,1-3.26-3.23h0A3.25,3.25,0,0,1,241.72,454.77Z" opacity="0.2" style="isolation:isolate"/><path d="M241.72,362a3.25,3.25,0,1,1-3.26-3.23h0A3.25,3.25,0,0,1,241.72,362Z" opacity="0.2" style="isolation:isolate"/><polygon points="301.18 316.91 316.21 304.39 331.23 316.91 328.41 533.8 304.02 533.8 301.18 316.91" fill="#ebebeb"/><path d="M319.44,454.77a3.25,3.25,0,1,1-3.26-3.23h0A3.25,3.25,0,0,1,319.44,454.77Z" opacity="0.2" style="isolation:isolate"/><path d="M319.44,362a3.25,3.25,0,1,1-3.26-3.23h0A3.25,3.25,0,0,1,319.44,362Z" opacity="0.2" style="isolation:isolate"/><polygon points="378.92 316.91 393.94 304.39 408.96 316.91 406.13 533.8 381.74 533.8 378.92 316.91" fill="#ebebeb"/><path d="M397.18,454.77a3.25,3.25,0,1,1-3.26-3.23h0A3.25,3.25,0,0,1,397.18,454.77Z" opacity="0.2" style="isolation:isolate"/><path d="M397.18,362a3.25,3.25,0,1,1-3.26-3.23h0A3.25,3.25,0,0,1,397.18,362Z" opacity="0.2" style="isolation:isolate"/><polygon points="456.64 316.91 471.67 304.39 486.69 316.91 483.87 533.8 459.48 533.8 456.64 316.91" fill="#ebebeb"/><path d="M474.9,454.77a3.25,3.25,0,1,1-3.26-3.23h0A3.25,3.25,0,0,1,474.9,454.77Z" opacity="0.2" style="isolation:isolate"/><path d="M474.9,362a3.25,3.25,0,1,1-3.26-3.23h0A3.25,3.25,0,0,1,474.9,362Z" opacity="0.2" style="isolation:isolate"/><polygon points="534.38 316.91 549.4 304.39 564.42 316.91 561.59 533.8 537.2 533.8 534.38 316.91" fill="#ebebeb"/><path d="M552.64,362a3.25,3.25,0,1,1-3.26-3.23h0A3.25,3.25,0,0,1,552.64,362Z" opacity="0.2" style="isolation:isolate"/><polygon points="612.11 316.91 627.13 304.39 642.15 316.91 639.33 533.8 614.94 533.8 612.11 316.91" fill="#ebebeb"/><path d="M630.37,362a3.25,3.25,0,1,1-3.27-3.23h0A3.26,3.26,0,0,1,630.37,362Z" opacity="0.2" style="isolation:isolate"/><polygon points="689.84 316.91 704.86 304.39 719.89 316.91 717.05 533.8 692.66 533.8 689.84 316.91" fill="#ebebeb"/><path d="M708.09,362a3.23,3.23,0,1,1-3.23-3.23h0A3.23,3.23,0,0,1,708.09,362Z" opacity="0.2" style="isolation:isolate"/><polygon points="767.57 316.91 782.58 304.39 797.61 316.91 794.79 533.8 770.38 533.8 767.57 316.91" fill="#ebebeb"/><path d="M785.83,362a3.25,3.25,0,1,1-3.27-3.23h0A3.25,3.25,0,0,1,785.83,362Z" opacity="0.2" style="isolation:isolate"/><path d="M558,454.77a3.25,3.25,0,1,1-3.27-3.23h0A3.25,3.25,0,0,1,558,454.77Z" opacity="0.2" style="isolation:isolate"/><path d="M377.79,467.7,437.45,470l38.84-22.66-16.09-22-20,7.62s-55,7.86-68.44,9.71C371.78,442.73,363,454.75,377.79,467.7Z" fill="#f9b499"/><path d="M371.26,440.71c-3-1.67-7.18-2.46-11,2.1a14.1,14.1,0,0,1-8.34,4.69l-25,4.48s-6-1.85-9.71,8.32c0,0-15,9.46.46,18,0,0,1.39,14.33,17.57,13.41,0,0,16.65-1.39,17.11-13.41,0,0,15.26,2.31,18-8.33h7.36a2.27,2.27,0,0,0,1.8-3.66c-3.29-4.17-7.54-11.4-5.39-19A5.86,5.86,0,0,0,371.26,440.71Z" fill="#58eb19"/><path d="M543.85,580.05v32.1s-106.26,3.92-97.35-7.49c0,0,19.13-24.84,36.88-8.41a1.88,1.88,0,0,0,2.88-.36l4.1-6.56h27.19Z" fill="#58eb19"/><path id="ab30bc0c-a5e9-46da-96c8-1e880e7ea6e4" data-name="SVGID" d="M574.8,574l-4.25,16.69a3.91,3.91,0,0,1-3.62,3c-4.29.15-12.3,2-15.91,12.76l-3.33,7.27a1,1,0,0,0,.88,1.43l49.29,1.74,18.64-45.21a3.71,3.71,0,0,0-.55-3.77,70,70,0,0,0-15.57-13.71s-2.4.36-8.65-1.36l-3.48-.72-.76,6.48S582.46,571.06,574.8,574Z" fill="#58eb19"/><g clip-path="url(#a0686cd6-6656-4035-86fc-4c3cc2f333c3)"><path d="M550.45,607.51s36.19,2.68,41.72-10.52c0,0,11.13-28.78,8.27-42.58a.1.1,0,0,1,.15-.1c2,1.35,18.16,12.47,15.91,17.34l-18.64,45.21-49.29-1.74s-1.68.11-.88-1.43Z" opacity="0.2"/></g><path d="M516.51,368.92s-15.59,6.16-30.5,28.44a64.93,64.93,0,0,0-4.89,8.73c-2.2,4.72-7.88,14.09-18.55,15.05a2.94,2.94,0,0,0-2.37,4.26c5.86,11.46,24.27,41.21,54.65,34.7,0,0,18.38-64.53,9.26-84.46Z" fill="#58eb19"/><path d="M515.92,368.92s-15,5.91-29.91,28.19a65.55,65.55,0,0,0-4.89,8.73c-2.2,4.72-7.88,14.09-18.55,15.05a2.94,2.94,0,0,0-2.37,4.26c5.86,11.46,24.27,41.21,54.65,34.7,0,0,18.23-64.44,9.12-84.37Z" opacity="0.2"/><path d="M533.76,329.9s-.53,16.92,12.4,25c0,0-18.86,5.16-22.63,20.24L507.1,360.6S526.76,361.14,533.76,329.9Z" fill="#f9b499"/><path d="M556.33,470.58l-1.07,10.7s21.7,8,37.93,18.19a99.56,99.56,0,0,0,28.5,12.22c11.9,3,23.82,3.54,21.29-7.41,0,0,3.63-81.26-56.85-131.77-1.78-1.49-3.53-3-5.23-4.63-5.57-5.2-20.94-17.81-35.39-13.7Z" fill="#58eb19"/><path d="M575.82,418.92s24.71,30.51,31.71,69.42a13.84,13.84,0,0,0,7.28,9.93c5.78,2.94,15,6.2,25.74,4.62,0,0-7.23,6.62-22.8,5.42a50.58,50.58,0,0,1-24-8.6c-6.28-4.19-18.29-11-38.44-18.43l1.07-10.7s12.54,6.64,14.15-7.27C570.48,463.31,574.75,425.87,575.82,418.92Z" opacity="0.2"/><path d="M555.26,481.28l-1.06,8.16s1.3,9.71-20.63,16.13c0,0-71.14,36.9-82.91,47.6,0,0-12.29,18.22,1.77,31.54a12.59,12.59,0,0,0,8.19,3.38L512.15,590a17.29,17.29,0,0,0,5.4-.66,383.57,383.57,0,0,0,37.1-12.83,23.59,23.59,0,0,1,9.71-1.75l5.06.17a14.11,14.11,0,0,0,11.09-4.76,40.68,40.68,0,0,0,8.71-15.95,2,2,0,0,1,2.51-1.39c3.72,1.15,12.09,3,20.47-.17,0,0,27.81-8,28.35-25.14L640.49,512s-8.21,5.7-33.88-5.71C606.61,506.24,567.74,484.13,555.26,481.28Z" fill="#2f2e41"/><path d="M616.59,510.16s-1.07,16.05-24.6,23.89l-28.88,9.63s50.45,7.13,65.07-15.69c0,0,3.39-3.74,2-14.8A38.51,38.51,0,0,1,616.59,510.16Z" opacity="0.2"/><path d="M451.49,571.14s-7.13,2.5-2.49,8.91c0,0,3.27,7.51,11.62,8L512.15,590l7.1-1,3.2-.71,32.2-11.77a26.43,26.43,0,0,1,9.71-1.75s15.51,3.89,21.57-13.23c0,0-14.27,9.27-12.13,2.5l.61-8.55a.3.3,0,0,0-.56-.17c-2.4,4.48-10.49,18.73-11.1,8.72l-2.33-9a.51.51,0,0,0-1,0c-1.15,4.5-4.51,15.13-10.94,16.53L518.89,579s-22.49,6.43-36.06-1.76a.74.74,0,0,1,.42-1.36l13.61.47a17.6,17.6,0,0,0,8.61-1.91l46.94-24,16,.66a.23.23,0,0,0,.1-.43l-4.12-1.94a.42.42,0,0,1,0-.77l10.1-3.58-11.41-.72s-16.76,3.57-29.6,11.77l-30,13.48a25.08,25.08,0,0,1-10.31,2.21Z" opacity="0.2"/><path d="M492.91,634.73l193.24,8.45s-1.11-5-17.78-5.41a1.8,1.8,0,0,1-1.75-2c.67-4.94.23-16.38-22-4.16A5,5,0,0,1,638,629.7a60.27,60.27,0,0,0-18.76-20.19A45.3,45.3,0,0,0,567.11,611a51.42,51.42,0,0,0-15,17.64.94.94,0,0,1-1.53.21c-2.34-2.58-8.86-8.41-14.21-.14,0,0-4.83-13.89-15.1-10.87,0,0-9.42.5-10.29,8.68a5.42,5.42,0,0,1-3.11,4.47A48.44,48.44,0,0,1,492.91,634.73Z" fill="#a7a9ac"/><path d="M514,366.47l-6.5-5.28s18.08-7,23.08-26.43C530.62,334.76,529.62,362.76,514,366.47Z" fill="#f7a48b"/><ellipse cx="538.78" cy="321.87" rx="8.35" ry="11.31" fill="#f9b499"/><ellipse cx="507.54" cy="319.98" rx="27.2" ry="41.2" fill="#f9b499"/><path d="M499.19,286.86s-13.46,6.46-17.23,19.39c0,0-9.86-8.82-10.74-33.08a.78.78,0,0,1,1.16-.71l6.34,3.63-8.08-10.61a.55.55,0,0,1,.33-.88c4.66-.94,27-4.94,39.53,1.79,0,0,33.93-3.23,34.47,23.7,0,0,12.39-3.23,12.39,14.54,0,0-3.77,12.39-10.23,17.24,0,0,0-10.77-8.35-11.31,0,0-3.49.27-4.56,2.05,0,0,1,10.79,0,17.88,0,0-12.1,6.37-9.61-27.15C524.59,303.34,505.88,301.4,499.19,286.86Z" fill="#2f2e41"/><path d="M466.11,542.79S419,477.36,419,458.81c0,0,6.07-26,33.17-20.68l62.64,22,18.72,45.47Z" fill="#2f2e41"/><path d="M466.11,542.79S419,477.36,419,458.81c0,0,6.07-26,33.17-20.68l62.64,22,18.72,45.47Z" opacity="0.2"/><path d="M514.85,460.1s-.54,15-13.37,16.58c0,0-54,10.7-79.17,27.28,0,0,18.72,7,20.33,16.58,0,0,87.29-5.79,107.45-23.06a12.32,12.32,0,0,0,4.11-8l2.13-18.86S541.82,471.2,514.85,460.1Z" fill="#f9b499"/><path d="M509.53,439c1.63-15.52,10.89-91.31,36-84.77,0,0,37-7.69,30.61,62.91,0,0-4.5,41.41-7.72,52.39a3.14,3.14,0,0,1-3,2.24c-9.09.14-44.94-.64-62.65-21a3.13,3.13,0,0,1,.52-4.54l3.71-2.79A6.33,6.33,0,0,0,509.53,439Z" fill="#58eb19"/><path d="M420.59,465.33l9.93-16a1.51,1.51,0,0,1,2-.54l15.81,8.63a18.19,18.19,0,0,1,8,8.8L465,486.3l5.34-1.65-10-21.26a29.47,29.47,0,0,0-7.7-10l-9.28-7.84a1.84,1.84,0,0,1,1.31-3.24l21.58,1.42a.5.5,0,0,0,.19-1l-14.22-4.58s-24.43-6.8-33.17,20.68C419,458.81,418.92,463.48,420.59,465.33Z" opacity="0.2"/><path d="M328.75,440.5C313.66,440,303,422.14,311,408.89c3.33-5.49,8.73-7.49,14.6-4.82a37,37,0,0,1,5.72,3.53c5.72,1.18,11.57-.48,16,5.09C357.37,425.29,342,441,328.75,440.5Z" fill="#58eb19"/><path d="M351.19,408.61c.14-.46-.47-.94-.8-.48-4.06,5.83-9.34-4-13.8-4.48a5.81,5.81,0,0,0-2.71.34,5.05,5.05,0,0,0-3.81-3.39c-5-1.22-9.36,2.57-13.71-1.91-.28-.28-.74.12-.61.46,2.2,5.32,7.51,6.05,12.66,6.83-.4.28-.8.61-1.28.91-1.54,1-3.54,1-5.14,1.91a9.52,9.52,0,0,0-3.42,3.37c-.28.54.56,1,.9.55,2-2.87,6.79.2,9.53.37,2.1.11,4.73-.35,5.72-2.42a3.5,3.5,0,0,0,.29-2.27c1.54.7,3.71,2.25,4.42,2.57a14.45,14.45,0,0,0,5.81,1.66A5.85,5.85,0,0,0,351.19,408.61Z" fill="#2f2e41"/><path d="M313.24,558.33c4.63-13.94,13.07-26,20.51-38.53,18-30.19,25.35-62.6,14.09-96.63-10-30.1-25.47-57.19-30.89-88.89-4.91-28.69-2.26-56.27,9.75-83,.19-.42.89-.12.74.3-11.44,30.05-10.35,64.21-2.46,95,7.76,30.25,26.42,56.19,34.12,86.31,7.21,28.27.69,56.54-12.62,82-7.49,14.3-17.78,27.25-23.62,42.4-6,15.67-5.1,31.93-6.25,48.34a4,4,0,0,1-8.06,0C307.46,590.14,308.32,573.22,313.24,558.33Z" fill="#bcbec0"/><path d="M320.08,444.18c3.81-27.76,18.15-52,24.25-79.11a159.88,159.88,0,0,0-5.07-88.44c-.17-.49.61-.7.78-.21a189.13,189.13,0,0,1,11,78.64c-2.19,28.16-14.79,53-20.51,80.29-6.33,31.11-.55,59.73,8.42,89.6a265.56,265.56,0,0,1,11.44,82.22c-.09,5-7.93,5.05-7.83,0,.57-29.42-4.48-57.19-13.58-85.06C320.61,496.49,316.38,471.1,320.08,444.18Z" fill="#d1d3d4"/><path d="M361,413.16c15.12-.51,25.81-18.37,17.75-31.62-3.34-5.49-8.73-7.49-14.61-4.81a37.06,37.06,0,0,0-5.71,3.51c-5.72,1.2-11.56-.48-16,5.09C332.41,397.93,348,413.6,361,413.16Z" fill="#58eb19"/><path d="M344.65,385.24a14.75,14.75,0,0,0,5.84-1.66c.68-.33,2.86-1.91,4.42-2.58a3.3,3.3,0,0,0,.27,2.27c1.06,2.08,3.69,2.54,5.71,2.42,2.69-.17,7.48-3.24,9.54-.36.34.48,1.2,0,.89-.55a9.37,9.37,0,0,0-3.41-3.38c-1.6-.89-3.58-.87-5.15-1.9-.47-.31-.85-.63-1.26-.92,5.15-.76,10.45-1.48,12.66-6.82.14-.34-.32-.74-.61-.46-4.36,4.5-8.71.71-13.7,1.91A5.08,5.08,0,0,0,356,376.6a5.72,5.72,0,0,0-2.72-.34c-4.46.53-9.72,10.31-13.78,4.48-.35-.46-1,0-.81.47A5.82,5.82,0,0,0,344.65,385.24Z" fill="#2f2e41"/><path d="M323.36,536.2c-15.12-.5-25.81-18.36-17.77-31.61,3.34-5.49,8.75-7.49,14.61-4.82a38.82,38.82,0,0,1,5.71,3.5c5.72,1.21,11.58-.45,16,5.09C352,521,336.44,536.65,323.36,536.2Z" fill="#58eb19"/><path d="M345.76,504.3c.13-.45-.48-.95-.8-.47-4.06,5.83-9.34-4-13.8-4.48a5.68,5.68,0,0,0-2.71.34,5.13,5.13,0,0,0-3.81-3.41c-5-1.2-9.36,2.59-13.71-1.91-.29-.28-.74.12-.61.46,2.19,5.32,7.51,6,12.66,6.82-.4.29-.8.61-1.28.92-1.54,1-3.53,1-5.15,1.91a9.34,9.34,0,0,0-3.41,3.37c-.28.51.55,1,.9.53,2-2.86,6.78.21,9.53.38,2.1.12,4.73-.34,5.72-2.42a3.4,3.4,0,0,0,.28-2.26c1.55.7,3.72,2.24,4.43,2.57a14.61,14.61,0,0,0,5.81,1.66A5.86,5.86,0,0,0,345.76,504.3Z" fill="#2f2e41"/><path d="M337.31,332.05c-15.09-.51-25.79-18.38-17.74-31.63,3.33-5.49,8.73-7.49,14.6-4.8a35.66,35.66,0,0,1,5.72,3.51c5.72,1.2,11.57-.48,16,5.09C365.93,316.82,350.41,332.49,337.31,332.05Z" fill="#58eb19"/><path d="M359.75,300.14c.13-.46-.48-.94-.8-.48-4.06,5.84-9.34-3.94-13.8-4.48a6,6,0,0,0-2.73.35,5,5,0,0,0-3.81-3.4c-5-1.22-9.36,2.58-13.73-1.9-.26-.29-.72.11-.59.45,2.2,5.34,7.5,6.07,12.66,6.83-.42.28-.8.61-1.28.91-1.54,1-3.54,1-5.14,1.91a9.49,9.49,0,0,0-3.41,3.37c-.29.54.55,1,.89.56,1.91-2.88,6.79.19,9.53.36,2.1.11,4.73-.34,5.72-2.42a3.49,3.49,0,0,0,.29-2.27c1.54.72,3.71,2.25,4.42,2.57a14.45,14.45,0,0,0,5.81,1.66A5.84,5.84,0,0,0,359.75,300.14Z" fill="#2f2e41"/><path d="M225.76,609.7c33,.94,66.13,1,99.12,1s66.29,1.07,99.23-1.29a.47.47,0,0,0,.35-.55.45.45,0,0,0-.35-.35c-3-.23-6.05-.36-9-.53-7.93-6.75-19.21-12.38-28-5.51-2.94-9.65-13.21-11.78-22.88-11.21,5.72-12.64-4.15-26.37-17.75-28.48-13.95-2.18-29.75,5.85-32.57,20-5.72-1.77-10.72,1.09-15.26,5.28-6.71-7.14-16.08,1.07-20.2,9.06A15.12,15.12,0,0,0,268,594.85a10.11,10.11,0,0,0-4.69,2.14c-1.14,1-2.31,4-3.41,4.33s-5-1.7-6.41-1.91a14.62,14.62,0,0,0-7.77,1.22,11.84,11.84,0,0,0-6.37,7.32l-13.71.3a.73.73,0,0,0-.66.79.71.71,0,0,0,.78.66Z" fill="#a7a9ac"/><path d="M237.73,459.11c15.12-.5,25.81-18.36,17.75-31.61-3.32-5.49-8.73-7.49-14.59-4.82a38.92,38.92,0,0,0-5.72,3.5c-5.71,1.2-11.57-.45-16,5.11C209.13,443.85,224.65,459.52,237.73,459.11Z" fill="#58eb19"/><path d="M215.31,427.17c-.15-.45.48-.95.8-.47,4.06,5.83,9.34-4,13.8-4.48a5.68,5.68,0,0,1,2.71.34,5.13,5.13,0,0,1,3.81-3.41c5-1.2,9.36,2.59,13.71-1.91.28-.28.74.12.61.46-2.19,5.32-7.51,6-12.66,6.83.4.28.8.61,1.26.91,1.56,1,3.54,1,5.15,1.91a9.24,9.24,0,0,1,3.43,3.37c.28.52-.56,1-.9.53-2-2.86-6.79.21-9.53.39-2.1.11-4.73-.35-5.72-2.43a3.47,3.47,0,0,1-.29-2.26c-1.54.7-3.71,2.25-4.42,2.57a14.53,14.53,0,0,1-5.72,1.66A5.83,5.83,0,0,1,215.31,427.17Z" fill="#2f2e41"/><path d="M246.15,587.78c-4-12-11.26-22.42-17.67-33.21-15.48-26.09-21.88-53.93-12.14-83.28,8.6-25.93,22-49.34,26.69-76.62,4.23-24.78,1.9-48.55-8.45-71.43-.17-.36-.8,0-.64.27,9.79,25.89,8.9,55.28,2.11,81.84-6.69,26.06-22.78,48.44-29.41,74.34-6.22,24.37-.59,48.75,10.88,70.65,6.45,12.32,15.25,23.49,20.34,36.54,5.21,13.5,4.42,27.53,5.4,41.66a3.48,3.48,0,0,0,7,0C251.13,615.19,250.44,600.61,246.15,587.78Z" fill="#d1d3d4"/><path d="M242.28,557.3c15.12-.5,25.82-18.36,17.75-31.63-3.31-5.49-8.73-7.47-14.58-4.8a39.86,39.86,0,0,0-5.72,3.51c-5.72,1.2-11.55-.46-16,5.09C213.69,542.09,229.19,557.76,242.28,557.3Z" fill="#58eb19"/><path d="M219.94,525.41c-.15-.48.48-1,.8-.48,4.06,5.83,9.34-4,13.81-4.48a5.66,5.66,0,0,1,2.7.34,5.11,5.11,0,0,1,3.81-3.41c5-1.2,9.36,2.59,13.71-1.91.29-.28.74.12.61.46-2.19,5.32-7.51,6.05-12.66,6.83.4.28.8.61,1.26.91,1.56,1,3.55,1,5.15,1.91a9.24,9.24,0,0,1,3.43,3.37c.29.52-.57,1-.9.54-2-2.86-6.78.21-9.53.38-2.09.11-4.74-.36-5.72-2.42a3.44,3.44,0,0,1-.28-2.27c-1.55.7-3.82,2.25-4.43,2.57a14.45,14.45,0,0,1-5.81,1.66A5.83,5.83,0,0,1,219.94,525.41Z" fill="#2f2e41"/><path d="M246.08,466.56c-3.81-27.76-18.15-52-24.25-79.11A159.89,159.89,0,0,1,226.9,299c.17-.5-.61-.71-.8-.23a188.65,188.65,0,0,0-11,78.65c2.19,28.14,14.89,53,20.43,80.28,6.31,31.13.56,59.74-8.42,89.59a265.43,265.43,0,0,0-11.44,82.2c.1,5,7.93,5,7.84,0-.58-29.41,4.46-57.19,13.57-85.06C245.54,518.85,249.78,493.42,246.08,466.56Z" fill="#bcbec0"/><path d="M211.84,414.56C196.72,414,186,396.2,194.09,382.93c3.32-5.49,8.73-7.49,14.59-4.8a36.8,36.8,0,0,1,5.72,3.5c5.71,1.2,11.55-.45,16,5.09C240.44,399.32,224.94,415,211.84,414.56Z" fill="#58eb19"/><path d="M228.25,386.67a14.61,14.61,0,0,1-5.81-1.66c-.71-.33-2.88-1.91-4.42-2.58a3.49,3.49,0,0,1-.29,2.27c-1,2.06-3.7,2.54-5.72,2.4-2.69-.15-7.45-3.22-9.53-.36-.32.5-1.18,0-.9-.53a9.22,9.22,0,0,1,3.44-3.38c1.6-.91,3.58-.87,5.14-1.9.46-.31.86-.65,1.26-.94-5.15-.76-10.46-1.48-12.66-6.82-.13-.32.33-.74.61-.44,4.35,4.5,8.7.71,13.71,1.91a5.09,5.09,0,0,1,3.81,3.41,5.69,5.69,0,0,1,2.71-.36c4.46.53,9.74,10.31,13.8,4.5.33-.48.95,0,.8.47A5.84,5.84,0,0,1,228.25,386.67Z" fill="#2f2e41"/><path d="M238.66,364.46c15.1-.52,25.79-18.38,17.75-31.63-3.34-5.49-8.73-7.49-14.6-4.82a37,37,0,0,0-5.72,3.53c-5.72,1.2-11.55-.48-16,5.09C210.05,349.23,225.66,364.9,238.66,364.46Z" fill="#58eb19"/><path d="M216.24,332.55c-.15-.46.46-.94.79-.48,4.08,5.83,9.34-3.95,13.8-4.48a5.72,5.72,0,0,1,2.72.34,5.1,5.1,0,0,1,3.82-3.39c5-1.22,9.34,2.57,13.7-1.91.29-.28.75.12.59.46-2.19,5.34-7.49,6-12.64,6.83.41.28.79.61,1.26.91,1.57,1,3.55,1,5.15,1.91a9.26,9.26,0,0,1,3.41,3.37c.31.53-.55,1-.89.55-2-2.88-6.79.19-9.54.37-2.09.11-4.72-.35-5.71-2.43a3.28,3.28,0,0,1-.27-2.26c-1.56.7-3.81,2.25-4.42,2.57a14.75,14.75,0,0,1-5.84,1.66A5.83,5.83,0,0,1,216.24,332.55Z" fill="#2f2e41"/><path d="M216.13,513.17c-15,2.1-28.59-13.65-22.88-28.1,2.33-6,7.31-8.88,13.56-7.24A38.19,38.19,0,0,1,213,480.3c5.72.21,11.31-2.44,16.63,2.27C241.66,493.25,229.07,511.38,216.13,513.17Z" fill="#58eb19"/><path d="M227.57,482.86a15,15,0,0,1-6-.63c-.74-.21-3.14-1.35-4.8-1.79a3.26,3.26,0,0,1,.11,2.28,5.86,5.86,0,0,1-5.28,3.38c-2.68.3-7.91-1.91-9.39,1.26-.25.55-1.19.19-1-.37a9.56,9.56,0,0,1,2.81-3.92c1.43-1.17,3.37-1.47,4.74-2.73.4-.38.75-.78,1.09-1.14-5.2.13-10.56.34-13.65-4.54-.19-.3.19-.78.52-.55,5.07,3.68,8.71-.8,13.84-.48a5.19,5.19,0,0,1,4.42,2.69,5.9,5.9,0,0,1,2.61-.8c4.48-.25,11.44,8.48,14.35,2,.25-.52.94-.15.88.34A5.85,5.85,0,0,1,227.57,482.86Z" fill="#2f2e41"/><path d="M340.4,632c-33,.91-66.13,1-99.13,1s-66.28,1.06-99.22-1.3a.46.46,0,0,1,0-.92c3-.21,6-.36,9-.51,7.93-6.75,19.21-12.37,28-5.53C182,615.16,192.28,613,202,613.61c-5.72-12.64,4.13-26.38,17.74-28.5,13.94-2.17,29.76,5.87,32.56,20,5.82-1.76,10.74,1.08,15.25,5.3,6.7-7.17,16.09,1.07,20.19,9a15.16,15.16,0,0,1,10.45-2.3,9.57,9.57,0,0,1,4.67,2.13c1.16.94,2.33,4,3.43,4.33s5-1.72,6.41-1.91a14.8,14.8,0,0,1,7.77,1.2,11.9,11.9,0,0,1,6.37,7.32l13.71.31a.74.74,0,0,1-.1,1.47Z" fill="#a7a9ac"/><path d="M374.17,447.35c1.25-5.72-4.64-7.49-4.64-7.49-5.47-2.09-9.27,2.95-9.27,2.95a14,14,0,0,1-6.35,4.18,14.57,14.57,0,0,0-4.23,2.2c-5.62,4.31-20,15.72-21.83,21.29-2.21,6.64,2.78,10.73,14.57,3.77a3.47,3.47,0,0,1,3-.31c2.73,1,9.49,2,19.9-6.7l11-5.34S372.23,454.94,374.17,447.35Z" fill="#58eb19"/><path d="M374.17,447.35c1.25-5.72-4.64-7.49-4.64-7.49-5.47-2.09-9.27,2.95-9.27,2.95a14,14,0,0,1-6.35,4.18,14.57,14.57,0,0,0-4.23,2.2c-5.62,4.31-20,15.72-21.83,21.29-2.21,6.64,2.78,10.73,14.57,3.77a3.47,3.47,0,0,1,3-.31c2.73,1,9.49,2,19.9-6.7l11-5.34S372.23,454.94,374.17,447.35Z" opacity="0.2"/><path d="M335.27,486.24l32.37,56.29,28.58-40.83S352.18,490.91,335.27,486.24Z" fill="#d1d3d4"/><polygon points="335.27 486.24 367.93 533.49 396.22 501.7 367.64 542.53 335.27 486.24" opacity="0.2"/><path d="M422.31,504s-10-9.19-8.74,1.71a1.84,1.84,0,0,1-1.87,2.08c-4.55-.15-14.84.78-19.59,11.26,0,0-10.42,9.78-2.93,17.27,0,0-9.77,31.29,11.73,19.56,0,0,7.5,2.28,13,1.3,0,0,6.11,5.2,12.67,0a14.25,14.25,0,0,0,4.74-7.53l6.8-25.84a3.77,3.77,0,0,1,2.66-2.69l1.82-.5S442.74,511.72,422.31,504Z" fill="#58eb19"/><path d="M403.27,545.47c.83-7.56,3-23.39,7.37-30.49a5.31,5.31,0,0,1,6-2.38c4.63,1.27,13.43,4.15,17.58,8.54a2.5,2.5,0,0,1,.57,2.41L427.14,550a4.52,4.52,0,0,1-5.15,3.19l-15-2.76A4.52,4.52,0,0,1,403.27,545.47Z" opacity="0.2"/><polygon points="352.69 497.51 393.09 531.4 395.37 521.62 352.69 497.51" fill="#2f2e41"/><polygon points="393.09 531.4 394.19 526.79 352.69 497.51 393.09 531.4" opacity="0.2"/><g opacity="0.2"><polygon points="389.31 536.24 388.88 535.92 393.09 531.4 396.37 517.35 396.96 517.45 393.48 531.71 389.31 536.24"/></g></svg>